{"glyphs":{"0":{"ha":823,"x_min":77,"x_max":746,"o":"m 403 -11 l 403 -11 q 297 -11 225 36 q 154 82 115 186 q 77 290 77 454 l 77 454 q 77 610 116 717 q 155 825 232 881 q 308 937 415 937 l 415 937 q 582 937 664 823 q 746 709 746 475 l 746 475 q 746 235 659 112 q 572 -11 403 -11 z m 283 474 l 283 474 q 283 325 296 237 q 309 149 338 107 q 366 65 414 65 l 414 65 q 439 65 459 78 q 478 90 493 117 q 509 144 519 188 q 530 233 535 299 q 540 365 540 446 l 540 446 q 540 568 531 650 q 522 733 505 778 q 488 823 465 842 q 441 861 411 861 l 411 861 q 375 861 350 837 q 326 813 311 765 q 296 717 289 644 q 283 572 283 474 z "},"1":{"ha":823,"x_min":107,"x_max":733,"o":"m 544 756 l 544 189 q 544 150 548 130 q 553 110 564 97 q 575 85 596 78 q 617 71 649 67 q 681 63 733 62 l 733 62 l 733 0 l 148 0 l 148 62 q 223 65 255 71 q 288 77 304 88 q 321 100 329 121 q 337 142 337 189 l 337 189 l 337 680 q 337 707 327 720 q 316 732 298 732 l 298 732 q 281 732 250 716 q 219 701 149 652 l 149 652 l 107 724 l 461 937 l 548 937 q 544 871 544 756 l 544 756 z "},"2":{"ha":823,"x_min":73,"x_max":710,"o":"m 271 166 l 511 166 q 555 166 577 173 q 599 179 611 195 q 624 211 632 243 l 632 243 l 710 243 l 694 0 l 73 0 l 73 45 q 102 110 156 186 q 210 263 287 354 l 287 354 q 360 440 398 496 q 437 551 456 601 q 475 650 475 703 l 475 703 q 475 778 441 820 q 408 863 351 863 l 351 863 q 296 863 261 824 q 225 786 209 703 l 209 703 l 87 703 l 87 863 q 170 897 216 910 q 263 923 309 930 q 355 937 408 937 l 408 937 q 508 937 571 910 q 634 883 662 837 q 690 791 690 730 l 690 730 q 690 677 670 631 q 650 585 601 526 q 552 467 435 357 l 435 357 q 383 306 338 254 q 292 202 271 173 l 271 173 l 271 166 z "},"3":{"ha":823,"x_min":86,"x_max":709,"o":"m 221 703 l 99 703 l 99 863 q 271 937 410 937 l 410 937 q 494 937 558 913 q 622 890 657 846 q 692 802 692 739 l 692 739 q 692 681 669 637 q 646 593 604 561 q 562 528 496 497 l 496 497 l 496 491 q 555 481 603 452 q 652 422 681 374 q 709 325 709 260 l 709 260 q 709 182 671 120 q 633 59 555 24 q 477 -11 366 -11 l 366 -11 q 289 -11 215 3 q 141 17 86 42 l 86 42 l 86 212 l 208 212 q 228 135 264 100 q 300 65 358 65 l 358 65 q 502 65 502 243 l 502 243 q 502 338 451 385 q 401 432 298 432 l 298 432 l 244 432 l 244 509 q 362 514 423 565 q 484 615 484 711 l 484 711 q 484 786 454 824 q 423 863 365 863 l 365 863 q 332 863 303 848 q 275 833 253 797 q 231 761 221 703 l 221 703 z "},"4":{"ha":823,"x_min":35,"x_max":781,"o":"m 326 0 l 326 45 q 351 52 365 59 q 380 67 387 80 q 395 94 397 115 q 399 136 399 168 l 399 168 l 399 269 l 35 269 l 35 342 l 447 930 l 600 930 l 600 354 l 621 354 q 654 354 667 358 q 681 363 691 375 q 701 387 709 418 l 709 418 l 781 418 l 772 269 l 600 269 l 600 168 q 600 132 603 110 q 606 89 614 76 q 623 64 637 57 q 651 51 673 45 l 673 45 l 673 0 l 326 0 z m 167 366 l 167 354 l 399 354 l 399 509 q 399 607 406 715 l 406 715 l 399 715 l 167 366 z "},"5":{"ha":823,"x_min":106,"x_max":732,"o":"m 106 42 l 106 42 l 106 212 l 229 212 q 246 138 283 101 q 321 65 380 65 l 380 65 q 454 65 489 111 q 524 157 524 252 l 524 252 q 524 347 479 396 q 433 446 347 446 l 347 446 q 314 446 276 439 q 237 433 208 425 l 208 425 l 146 463 l 146 926 l 547 926 q 572 926 584 929 q 595 932 603 941 q 610 949 619 970 l 619 970 l 694 970 l 680 754 l 264 754 l 264 510 q 304 522 347 528 q 389 534 451 534 l 451 534 q 535 534 598 503 q 662 471 697 412 q 732 353 732 273 l 732 273 q 732 179 690 116 q 648 52 568 21 q 489 -11 378 -11 l 378 -11 q 307 -11 233 3 q 159 18 106 42 z "},"6":{"ha":823,"x_min":75,"x_max":760,"o":"m 609 937 l 646 890 l 646 848 q 497 844 405 756 q 313 667 282 503 l 282 503 l 289 500 q 342 536 395 553 q 449 570 513 570 l 513 570 q 591 570 647 536 q 703 502 731 439 q 760 377 760 294 l 760 294 q 760 204 722 135 q 684 66 605 28 q 526 -11 411 -11 l 411 -11 q 306 -11 230 31 q 155 73 115 155 q 75 237 75 355 l 75 355 q 75 513 141 642 q 208 770 331 848 q 454 926 609 937 l 609 937 z m 433 477 l 433 477 q 399 477 370 467 q 341 457 319 440 q 296 424 289 413 q 281 403 277 383 q 274 363 274 314 l 274 314 q 274 190 309 127 q 343 65 414 65 l 414 65 q 455 65 483 81 q 510 96 527 124 q 544 153 551 192 q 559 232 559 280 l 559 280 q 559 377 527 427 q 494 477 433 477 z "},"7":{"ha":823,"x_min":85,"x_max":753,"o":"m 753 926 l 753 881 l 376 -2 l 237 -2 l 237 45 l 578 734 l 578 745 l 276 745 q 246 745 228 740 q 210 735 198 725 q 186 714 179 697 q 172 680 164 644 l 164 644 l 85 644 l 103 926 l 753 926 z "},"8":{"ha":823,"x_min":65,"x_max":758,"o":"m 597 489 l 597 489 l 599 480 q 677 450 718 392 q 758 334 758 254 l 758 254 q 758 174 715 114 q 673 54 592 21 q 512 -12 404 -12 l 404 -12 q 302 -12 225 19 q 149 49 107 107 q 65 165 65 243 l 65 243 q 65 301 86 345 q 108 389 143 418 q 178 447 227 469 l 227 469 l 226 478 q 76 543 76 694 l 76 694 q 76 764 119 819 q 162 874 241 905 q 321 937 418 937 l 418 937 q 583 937 667 876 q 751 816 751 705 l 751 705 q 751 632 713 577 q 675 522 597 489 z m 279 700 l 279 700 q 279 611 314 564 q 349 517 416 517 l 416 517 q 482 517 515 561 q 548 606 548 688 l 548 688 q 548 772 514 816 q 479 861 415 861 l 415 861 q 348 861 314 820 q 279 779 279 700 z m 271 260 l 271 260 q 271 163 307 114 q 342 65 413 65 l 413 65 q 457 65 488 85 q 519 106 535 148 q 552 190 552 248 l 552 248 q 552 308 535 352 q 518 395 486 419 q 454 443 412 443 l 412 443 q 361 443 330 419 q 298 395 285 354 q 271 313 271 260 z "},"9":{"ha":823,"x_min":63,"x_max":748,"o":"m 256 -11 l 221 29 l 221 78 q 265 79 298 86 l 298 86 q 338 94 373 112 q 408 130 434 157 l 434 157 q 467 189 488 230 q 510 271 523 319 q 535 368 541 421 l 541 421 l 534 424 q 482 388 432 372 q 381 355 311 355 l 311 355 q 231 355 175 390 q 119 424 91 485 q 63 547 63 629 l 63 629 q 63 719 105 790 q 148 861 227 899 q 307 937 415 937 l 415 937 q 524 937 599 891 q 674 846 711 760 q 748 674 748 552 l 748 552 q 748 382 690 260 q 633 138 523 69 q 412 1 256 -11 l 256 -11 z m 389 448 l 389 448 q 414 448 436 453 q 458 458 477 468 q 496 477 513 491 q 530 505 535 514 q 541 523 544 540 q 548 557 548 586 l 548 586 q 548 719 512 790 q 477 861 408 861 l 408 861 q 368 861 341 845 q 313 829 296 801 q 279 772 271 733 q 264 693 264 646 l 264 646 q 264 448 389 448 z "},"\u0000":{"ha":0,"x_min":0,"x_max":0,"o":""},"\t":{"ha":306,"x_min":0,"x_max":0,"o":""},"A":{"ha":905,"x_min":-5,"x_max":891,"o":"m 566 220 l 547 287 l 258 287 l 235 222 q 226 195 220 170 q 214 144 214 116 l 214 116 q 214 50 284 45 l 284 45 l 284 0 l -5 0 l -5 45 q 20 47 39 62 q 58 77 73 103 q 89 129 106 177 l 106 177 l 389 930 l 570 930 l 794 171 q 809 120 819 99 q 829 77 846 64 q 862 51 891 45 l 891 45 l 891 0 l 517 0 l 517 45 q 552 49 569 64 q 586 80 586 109 l 586 109 q 586 130 581 155 q 576 181 566 220 l 566 220 z m 419 748 l 283 366 l 528 366 l 419 748 z "},"B":{"ha":905,"x_min":65,"x_max":844,"o":"m 649 491 l 649 485 q 744 455 794 398 q 844 342 844 262 l 844 262 q 844 195 821 144 q 798 94 752 62 q 705 30 643 15 q 580 0 483 0 l 483 0 l 65 0 l 65 45 q 90 52 105 59 q 119 67 126 81 q 134 95 136 116 q 138 138 138 170 l 138 170 l 138 755 q 138 787 136 808 q 134 830 127 844 q 120 857 105 866 q 91 874 65 881 l 65 881 l 65 926 l 509 926 q 585 926 633 918 l 633 918 q 697 908 744 883 l 744 883 q 786 861 810 819 q 833 778 833 721 l 833 721 q 833 568 649 491 l 649 491 z m 348 520 l 438 520 q 506 520 545 540 q 583 559 603 596 q 623 632 623 696 l 623 696 q 623 752 602 785 q 580 818 540 832 q 500 846 440 846 l 440 846 q 393 846 348 843 l 348 843 l 348 520 z m 348 441 l 348 81 q 388 79 440 79 l 440 79 q 505 79 546 95 q 588 111 611 151 q 634 191 634 260 l 634 260 q 634 309 622 343 q 610 378 585 400 q 561 421 527 431 q 493 441 442 441 l 442 441 l 348 441 z "},"C":{"ha":796,"x_min":70,"x_max":739,"o":"m 739 905 l 739 905 l 739 708 l 646 708 q 630 785 595 821 q 559 857 503 857 l 503 857 q 395 857 340 754 q 286 652 286 450 l 286 450 q 286 262 336 165 q 386 68 483 68 l 483 68 q 532 68 564 85 q 595 102 613 135 q 632 168 646 229 l 646 229 l 739 229 l 739 23 q 664 5 602 -3 q 541 -11 474 -11 l 474 -11 q 333 -11 244 40 q 155 91 112 194 q 70 296 70 454 l 70 454 q 70 601 120 710 q 170 819 267 878 q 363 937 498 937 l 498 937 q 567 937 623 929 q 678 922 739 905 z "},"D":{"ha":979,"x_min":65,"x_max":909,"o":"m 65 926 l 418 926 q 531 926 607 908 q 683 890 742 852 q 801 814 837 762 q 873 709 891 640 q 909 570 909 483 l 909 483 q 909 377 884 293 q 859 209 810 149 l 810 149 q 766 96 702 61 q 637 26 554 12 l 554 12 q 482 0 373 0 l 373 0 l 65 0 l 65 45 q 90 52 105 59 q 119 67 126 81 q 134 95 136 116 q 138 138 138 170 l 138 170 l 138 755 q 138 787 136 808 q 134 830 127 844 q 120 857 105 866 q 91 874 65 881 l 65 881 l 65 926 z m 348 845 l 348 82 q 360 80 410 80 l 410 80 q 484 80 535 102 l 535 102 q 573 118 600 146 l 600 146 q 644 193 666 268 l 666 268 q 690 349 690 467 l 690 467 q 690 595 656 681 q 621 766 558 806 q 496 846 408 846 l 408 846 q 366 846 348 845 l 348 845 z "},"E":{"ha":802,"x_min":65,"x_max":745,"o":"m 65 926 l 738 926 l 738 710 l 645 710 q 623 774 607 797 q 591 820 570 833 q 548 846 496 846 l 496 846 l 348 846 l 348 521 l 437 521 q 467 521 484 529 q 501 538 512 557 q 524 577 534 618 l 534 618 l 610 618 l 610 343 l 534 343 q 524 382 513 403 q 501 424 485 433 q 469 441 437 441 l 437 441 l 348 441 l 348 79 l 495 79 q 519 79 535 82 q 551 85 564 93 q 577 100 589 113 q 601 126 610 141 q 619 156 629 180 q 640 205 652 248 l 652 248 l 745 248 l 732 0 l 65 0 l 65 45 q 90 52 105 59 q 119 67 126 81 q 134 95 136 116 q 138 138 138 170 l 138 170 l 138 755 q 138 787 136 808 q 134 830 127 844 q 120 857 105 866 q 91 874 65 881 l 65 881 l 65 926 z "},"F":{"ha":766,"x_min":65,"x_max":721,"o":"m 348 422 l 348 170 q 348 134 350 116 q 352 97 357 85 q 363 74 371 67 q 378 60 392 54 q 406 48 430 45 l 430 45 l 430 0 l 65 0 l 65 45 q 90 51 105 59 q 119 67 126 81 q 134 95 136 117 q 138 138 138 171 l 138 171 l 138 755 q 138 787 136 808 q 134 830 127 844 q 120 857 105 866 q 91 874 65 881 l 65 881 l 65 926 l 721 926 l 721 710 l 628 710 q 606 774 590 797 q 574 820 553 833 q 531 846 479 846 l 479 846 l 348 846 l 348 501 l 435 501 q 467 501 484 511 q 501 521 512 544 q 524 567 531 609 l 531 609 l 608 609 l 608 313 l 531 313 q 523 356 511 379 q 500 403 483 412 q 466 422 435 422 l 435 422 l 348 422 z "},"G":{"ha":898,"x_min":70,"x_max":859,"o":"m 777 901 l 777 901 l 777 708 l 684 708 q 668 765 648 796 q 628 827 596 842 q 565 857 515 857 l 515 857 q 448 857 397 816 q 345 775 315 685 q 286 595 286 458 l 286 458 q 286 339 306 252 q 326 165 367 117 q 408 68 468 68 l 468 68 q 528 68 556 104 q 585 140 585 218 l 585 218 l 585 243 q 585 295 581 317 q 578 339 571 350 q 564 361 552 368 q 541 374 511 383 l 511 383 l 511 428 l 859 428 l 859 383 q 825 373 812 360 q 800 347 796 326 q 791 304 791 266 l 791 266 l 791 10 l 694 -10 l 648 39 q 567 -11 463 -11 l 463 -11 q 264 -11 167 105 q 70 220 70 455 l 70 455 q 70 578 104 672 q 139 766 200 824 q 262 883 339 910 q 416 937 504 937 l 504 937 q 652 937 777 901 z "},"H":{"ha":1002,"x_min":65,"x_max":937,"o":"m 865 754 l 865 170 q 865 118 869 99 q 873 79 887 66 q 901 54 937 45 l 937 45 l 937 0 l 583 0 l 583 45 q 622 55 633 65 q 645 75 650 94 q 654 113 654 170 l 654 170 l 654 442 l 348 442 l 348 170 q 348 146 349 126 q 351 106 355 93 q 359 80 367 71 q 374 62 388 56 q 401 50 421 45 l 421 45 l 421 0 l 65 0 l 65 45 q 90 52 105 59 q 119 67 126 81 q 134 95 136 116 q 138 138 138 170 l 138 170 l 138 755 q 138 787 136 808 q 134 830 127 844 q 120 857 105 866 q 91 874 65 881 l 65 881 l 65 926 l 421 926 l 421 881 q 385 871 372 859 q 359 846 353 826 q 348 806 348 754 l 348 754 l 348 528 l 654 528 l 654 754 q 654 806 650 826 q 646 846 632 858 q 619 871 583 881 l 583 881 l 583 926 l 937 926 l 937 881 q 907 873 893 864 q 880 854 874 840 q 868 826 866 808 q 865 791 865 754 l 865 754 z "},"I":{"ha":486,"x_min":65,"x_max":421,"o":"m 348 755 l 348 170 q 348 146 349 126 q 351 106 355 93 q 359 80 367 71 q 374 62 388 56 q 401 50 421 45 l 421 45 l 421 0 l 65 0 l 65 45 q 90 52 105 59 q 119 67 126 81 q 134 95 136 116 q 138 138 138 170 l 138 170 l 138 755 q 138 788 136 809 q 134 830 127 844 q 120 858 105 866 q 91 874 65 881 l 65 881 l 65 926 l 421 926 l 421 881 q 393 873 380 865 q 367 857 360 844 q 353 832 351 812 q 348 793 348 755 l 348 755 z "},"J":{"ha":473,"x_min":24,"x_max":415,"o":"m 342 755 l 342 75 q 342 2 331 -43 q 319 -89 293 -124 l 293 -124 q 262 -167 210 -199 l 210 -199 q 148 -238 58 -266 l 58 -266 l 24 -182 q 65 -164 85 -148 q 105 -132 114 -113 q 123 -94 127 -66 q 132 -38 132 16 l 132 16 l 132 755 q 132 787 130 808 q 128 830 121 844 q 114 857 99 866 q 85 874 59 881 l 59 881 l 59 926 l 415 926 l 415 881 q 387 873 373 865 q 360 856 354 844 q 347 831 345 812 q 342 793 342 755 l 342 755 z "},"K":{"ha":947,"x_min":65,"x_max":957,"o":"m 583 544 l 819 180 q 846 140 864 116 q 882 92 895 78 q 909 64 922 57 q 935 50 957 44 l 957 44 l 957 0 l 589 0 l 589 45 q 612 48 621 56 q 629 64 629 77 l 629 77 q 629 87 626 98 q 623 109 611 129 q 600 149 564 203 l 564 203 l 460 363 q 441 393 428 409 q 414 425 400 432 q 386 439 361 439 l 361 439 l 348 439 l 348 170 q 348 146 349 126 q 351 106 355 93 q 359 80 367 71 q 374 62 388 56 q 401 50 421 45 l 421 45 l 421 0 l 65 0 l 65 45 q 90 52 105 59 q 119 67 126 81 q 134 95 136 116 q 138 138 138 170 l 138 170 l 138 755 q 138 787 136 808 q 134 830 127 844 q 120 857 105 866 q 91 874 65 881 l 65 881 l 65 926 l 421 926 l 421 881 q 393 873 379 865 q 366 856 360 844 q 353 831 351 812 q 348 793 348 755 l 348 755 l 348 513 l 362 513 q 393 513 412 520 q 430 527 449 545 q 469 562 524 627 q 579 692 604 727 q 629 762 638 784 q 647 807 647 829 l 647 829 q 647 853 631 867 q 615 880 586 881 l 586 881 l 586 926 l 932 926 l 932 880 q 907 875 888 865 q 870 856 846 834 q 823 813 786 772 l 786 772 l 583 544 z "},"L":{"ha":765,"x_min":65,"x_max":726,"o":"m 65 926 l 421 926 l 421 881 q 397 874 382 866 q 368 859 360 845 q 353 831 350 810 q 348 789 348 756 l 348 756 l 348 81 l 479 81 q 519 81 543 93 q 566 105 584 131 q 601 156 613 197 q 626 238 633 274 l 633 274 l 726 274 l 711 0 l 65 0 l 65 45 q 90 52 105 60 q 119 68 126 82 q 134 96 136 117 q 138 138 138 171 l 138 171 l 138 755 q 138 787 136 808 q 134 830 127 844 q 120 857 105 866 q 91 874 65 881 l 65 881 l 65 926 z "},"M":{"ha":1175,"x_min":63,"x_max":1109,"o":"m 1109 926 l 1109 881 q 1074 871 1061 859 q 1048 847 1043 827 q 1038 807 1038 756 l 1038 756 l 1038 170 q 1038 128 1042 104 q 1046 80 1058 67 q 1071 55 1109 45 l 1109 45 l 1109 0 l 762 0 l 762 45 q 791 53 803 59 q 814 65 821 75 q 827 85 830 105 q 833 125 833 171 l 833 171 l 833 503 q 833 558 836 633 q 838 707 840 739 l 840 739 l 825 739 q 817 711 808 685 q 799 659 774 592 l 774 592 l 592 102 l 473 102 l 281 652 q 264 699 252 745 l 252 745 l 239 745 q 246 633 246 481 l 246 481 l 246 169 q 246 119 251 99 q 256 79 270 66 q 284 54 319 45 l 319 45 l 319 0 l 63 0 l 63 45 q 88 52 103 60 q 117 68 125 81 q 132 95 134 116 q 136 137 136 170 l 136 170 l 136 756 q 136 808 131 827 q 127 846 114 858 q 101 870 63 881 l 63 881 l 63 926 l 400 926 l 588 369 l 791 926 l 1109 926 z "},"N":{"ha":943,"x_min":63,"x_max":887,"o":"m 631 926 l 887 926 l 887 881 q 860 872 849 866 q 838 860 830 850 q 822 840 818 819 q 814 798 814 755 l 814 755 l 814 0 l 642 0 l 336 528 q 275 635 245 696 l 245 696 l 239 696 q 246 550 246 388 l 246 388 l 246 170 q 246 119 251 98 q 256 78 270 66 q 283 54 319 45 l 319 45 l 319 0 l 63 0 l 63 45 q 88 52 103 60 q 117 68 124 82 q 132 96 134 117 q 136 138 136 170 l 136 170 l 136 756 q 136 807 131 826 q 127 846 113 859 q 99 871 63 881 l 63 881 l 63 926 l 338 926 l 578 509 q 600 469 636 402 q 672 335 700 275 l 700 275 l 711 275 q 703 437 703 629 l 703 629 l 703 755 q 703 800 700 819 q 696 839 689 849 q 682 859 670 866 q 659 873 631 881 l 631 881 l 631 926 z "},"O":{"ha":966,"x_min":72,"x_max":894,"o":"m 471 -11 l 471 -11 q 272 -11 172 106 q 72 222 72 455 l 72 455 q 72 608 120 716 q 169 824 263 880 q 357 937 488 937 l 488 937 q 690 937 792 820 q 894 704 894 475 l 894 475 q 894 347 864 255 q 833 163 778 104 q 722 45 645 17 q 567 -11 471 -11 z m 288 473 l 288 473 q 288 269 337 169 q 386 68 487 68 l 487 68 q 539 68 576 97 q 612 125 635 175 q 658 226 668 295 q 677 364 677 447 l 677 447 q 677 582 656 673 q 635 764 592 811 q 549 857 481 857 l 481 857 q 383 857 335 763 q 288 669 288 473 z "},"P":{"ha":852,"x_min":65,"x_max":802,"o":"m 348 387 l 348 170 q 348 125 351 106 q 355 87 362 76 q 370 65 385 58 q 399 50 430 45 l 430 45 l 430 0 l 65 0 l 65 45 q 90 52 105 59 q 119 67 126 81 q 134 95 136 116 q 138 138 138 170 l 138 170 l 138 755 q 138 787 136 808 q 134 830 127 844 q 120 857 105 866 q 91 874 65 881 l 65 881 l 65 926 l 459 926 q 631 926 716 864 q 802 803 802 675 l 802 675 q 802 585 762 519 q 722 452 646 418 q 570 384 456 384 l 456 384 q 390 384 348 387 l 348 387 z m 348 845 l 348 463 l 406 463 q 474 463 514 483 q 554 502 573 544 q 593 586 593 657 l 593 657 q 593 728 573 769 q 554 811 517 829 q 479 846 421 846 l 421 846 q 374 846 348 845 l 348 845 z "},"Q":{"ha":966,"x_min":72,"x_max":945,"o":"m 626 10 l 626 10 l 668 -47 q 684 -70 699 -86 q 713 -103 729 -115 q 745 -127 760 -133 q 775 -138 793 -138 l 793 -138 q 814 -138 829 -134 q 844 -130 860 -121 q 876 -111 898 -93 l 898 -93 l 945 -152 q 900 -195 865 -218 q 829 -241 797 -250 q 764 -260 721 -260 l 721 -260 q 673 -260 636 -249 q 598 -238 563 -210 q 527 -182 495 -133 l 495 -133 l 414 -8 q 304 3 229 55 q 154 106 113 205 q 72 304 72 455 l 72 455 q 72 608 120 716 q 169 824 263 880 q 357 937 488 937 l 488 937 q 690 937 792 820 q 894 704 894 475 l 894 475 q 894 288 827 171 q 760 53 626 10 z m 288 473 l 288 473 q 288 269 337 169 q 386 68 487 68 l 487 68 q 539 68 576 97 q 612 125 635 175 q 658 226 668 295 q 677 364 677 447 l 677 447 q 677 582 656 673 q 635 764 592 811 q 549 857 481 857 l 481 857 q 383 857 335 763 q 288 669 288 473 z "},"R":{"ha":919,"x_min":65,"x_max":921,"o":"m 421 45 l 421 0 l 65 0 l 65 45 q 90 52 105 59 q 119 67 126 81 q 134 95 136 116 q 138 138 138 170 l 138 170 l 138 755 q 138 787 136 808 q 134 830 127 844 q 120 857 105 866 q 91 874 65 881 l 65 881 l 65 926 l 460 926 q 541 926 596 915 q 652 903 694 880 l 694 880 q 730 861 754 832 q 779 804 792 765 q 805 727 805 676 l 805 676 q 805 610 782 562 q 758 515 719 483 q 679 452 612 424 l 612 424 l 612 417 q 663 395 695 359 q 728 323 755 267 l 755 267 l 798 175 q 826 113 854 82 q 882 52 921 45 l 921 45 l 921 0 l 660 0 q 621 54 571 161 l 571 161 l 518 277 q 494 329 477 351 q 460 372 443 380 q 425 389 387 389 l 387 389 l 348 389 l 348 170 q 348 119 353 99 q 357 79 371 66 q 385 54 421 45 l 421 45 z m 348 845 l 348 845 l 348 468 l 415 468 q 469 468 505 483 q 540 497 561 523 q 581 549 589 585 q 597 620 597 662 l 597 662 q 597 754 553 800 q 510 846 425 846 l 425 846 q 366 846 348 845 z "},"S":{"ha":713,"x_min":57,"x_max":664,"o":"m 57 229 l 150 229 q 167 148 207 108 q 246 68 323 68 l 323 68 q 363 68 395 82 q 427 96 446 126 q 465 156 465 201 l 465 201 q 465 243 450 274 q 434 305 399 333 q 365 361 303 392 l 303 392 q 250 418 208 447 q 165 475 135 510 q 104 544 88 585 q 71 625 71 676 l 71 676 q 71 760 113 818 q 154 876 232 906 q 311 937 414 937 l 414 937 q 474 937 529 930 q 584 924 654 907 l 654 907 l 654 711 l 562 711 q 549 764 529 796 q 509 827 479 842 q 449 857 404 857 l 404 857 q 365 857 334 844 q 304 830 286 803 q 269 777 269 739 l 269 739 q 269 699 284 670 q 299 642 335 614 q 371 587 439 551 l 439 551 q 523 508 571 466 q 618 425 641 375 q 664 326 664 261 l 664 261 q 664 178 625 116 q 587 55 513 22 q 439 -11 342 -11 l 342 -11 q 273 -11 198 -3 q 123 5 57 20 l 57 20 l 57 229 z "},"T":{"ha":888,"x_min":45,"x_max":843,"o":"m 631 0 l 257 0 l 257 45 q 286 50 302 57 q 319 65 327 79 q 335 94 337 116 q 339 138 339 170 l 339 170 l 339 846 l 284 846 q 243 846 222 837 q 200 827 184 807 q 168 787 157 752 q 145 718 138 688 l 138 688 l 45 688 l 45 926 l 843 926 l 843 688 l 750 688 q 737 734 730 755 q 722 777 713 792 q 704 808 694 818 q 684 828 672 834 q 661 840 643 843 q 626 846 598 846 l 598 846 l 549 846 l 549 170 q 549 134 551 116 q 553 97 559 85 q 564 74 572 67 q 580 60 594 54 q 608 48 631 45 l 631 45 l 631 0 z "},"U":{"ha":939,"x_min":52,"x_max":889,"o":"m 663 323 l 663 755 q 663 806 658 826 q 654 846 641 859 q 628 871 591 881 l 591 881 l 591 926 l 889 926 l 889 881 q 865 874 850 866 q 836 859 829 845 q 821 831 819 809 q 817 788 817 755 l 817 755 l 817 332 q 817 248 804 191 q 790 134 762 96 q 733 57 691 33 q 648 9 595 -1 q 543 -11 477 -11 l 477 -11 q 380 -11 314 9 q 248 29 206 70 q 164 110 144 168 q 124 225 124 316 l 124 316 l 124 755 q 124 787 122 808 q 121 830 114 844 q 106 857 92 866 q 77 874 52 881 l 52 881 l 52 926 l 408 926 l 408 881 q 380 873 367 865 q 353 857 347 844 q 340 832 337 812 q 334 793 334 755 l 334 755 l 334 307 q 334 254 341 210 q 348 165 366 134 q 384 102 416 85 q 448 68 498 68 l 498 68 q 567 68 601 96 q 635 124 649 174 q 663 224 663 323 l 663 323 z "},"V":{"ha":881,"x_min":14,"x_max":886,"o":"m 475 218 l 643 703 q 653 732 659 757 q 665 782 665 810 l 665 810 q 665 843 647 861 q 630 878 594 881 l 594 881 l 594 926 l 886 926 l 886 881 q 861 877 843 864 q 825 852 810 828 q 795 805 776 752 l 776 752 l 492 -5 l 335 -5 l 111 755 q 96 806 86 827 q 76 848 60 862 q 43 875 14 881 l 14 881 l 14 926 l 389 926 l 389 881 q 354 877 337 861 q 320 846 320 817 l 320 817 q 320 795 324 773 q 328 752 341 705 l 341 705 l 475 218 z "},"W":{"ha":1335,"x_min":18,"x_max":1337,"o":"m 958 234 l 1101 693 q 1110 724 1117 756 q 1124 787 1124 810 l 1124 810 q 1124 845 1106 862 q 1089 878 1055 881 l 1055 881 l 1055 926 l 1337 926 l 1337 881 q 1312 876 1295 862 q 1278 848 1265 823 q 1251 798 1231 739 l 1231 739 l 977 -5 l 815 -5 l 662 632 l 480 -5 l 311 -5 l 106 755 q 92 810 80 832 q 68 854 54 865 q 40 876 18 881 l 18 881 l 18 926 l 383 926 l 383 881 q 348 877 331 861 q 314 846 314 817 l 314 817 q 314 781 334 705 l 334 705 l 451 234 l 646 926 l 799 926 l 958 234 z "},"X":{"ha":859,"x_min":14,"x_max":845,"o":"m 33 926 l 410 926 l 410 881 q 378 878 365 866 q 351 855 351 832 l 351 832 q 351 821 356 806 q 361 791 372 771 q 382 751 408 707 l 408 707 l 471 602 l 553 723 q 581 763 590 784 q 599 806 599 830 l 599 830 q 599 852 584 865 q 569 878 543 881 l 543 881 l 543 926 l 823 926 l 823 880 q 803 875 785 863 q 768 851 745 824 q 722 796 671 724 l 671 724 l 524 515 l 745 150 q 757 132 769 114 q 781 96 792 82 q 803 68 811 61 q 820 54 828 51 q 836 47 845 45 l 845 45 l 845 0 l 468 0 l 468 45 q 498 48 512 59 q 526 70 526 94 l 526 94 q 526 102 524 111 q 522 121 516 134 q 510 148 504 158 q 498 169 481 199 l 481 199 l 387 354 l 276 191 q 263 171 254 155 q 245 138 242 125 q 239 111 239 93 l 239 93 q 239 75 253 61 q 268 47 295 45 l 295 45 l 295 0 l 14 0 l 14 45 q 37 52 55 65 q 74 79 96 106 q 118 132 157 188 l 157 188 l 334 441 l 163 726 q 135 772 115 802 q 95 833 81 849 q 68 865 57 871 q 47 878 33 881 l 33 881 l 33 926 z "},"Y":{"ha":840,"x_min":12,"x_max":847,"o":"m 711 722 l 517 356 l 517 170 q 517 134 519 116 q 521 97 526 85 q 532 74 539 67 q 547 60 561 54 q 575 48 599 45 l 599 45 l 599 0 l 224 0 l 224 45 q 252 50 269 57 q 286 64 294 79 q 302 93 304 115 q 307 137 307 170 l 307 170 l 307 356 l 123 744 q 99 793 85 817 l 85 817 q 70 845 59 857 q 47 869 38 874 q 28 879 12 881 l 12 881 l 12 926 l 373 926 l 373 881 q 321 874 321 829 l 321 829 q 321 812 329 787 q 338 763 357 722 l 357 722 l 471 467 l 595 716 q 614 753 621 778 q 628 803 628 827 l 628 827 q 628 852 614 866 q 600 880 575 881 l 575 881 l 575 926 l 847 926 l 847 881 q 829 877 817 870 q 805 863 791 847 q 777 832 757 802 q 737 771 711 722 l 711 722 z "},"Z":{"ha":787,"x_min":54,"x_max":738,"o":"m 738 881 l 304 81 l 498 81 q 535 81 560 96 q 585 111 604 144 q 622 177 642 258 l 642 258 l 734 258 l 734 0 l 54 0 l 54 45 l 488 845 l 304 845 q 260 845 234 829 q 208 812 190 777 q 172 741 158 681 l 158 681 l 65 681 l 65 926 l 738 926 l 738 881 z "},"À":{"ha":905,"x_min":-5,"x_max":891,"o":"m 566 220 l 547 287 l 258 287 l 235 222 q 226 195 220 170 q 214 144 214 116 l 214 116 q 214 50 284 45 l 284 45 l 284 0 l -5 0 l -5 45 q 20 47 39 62 q 58 77 73 103 q 89 129 106 177 l 106 177 l 389 930 l 570 930 l 794 171 q 809 120 819 99 q 829 77 846 64 q 862 51 891 45 l 891 45 l 891 0 l 517 0 l 517 45 q 552 49 569 64 q 586 80 586 109 l 586 109 q 586 130 581 155 q 576 181 566 220 l 566 220 z m 419 748 l 283 366 l 528 366 l 419 748 z m 277 1219 l 441 1219 l 597 1043 l 553 996 l 277 1175 l 277 1219 z "},"Á":{"ha":905,"x_min":-5,"x_max":891,"o":"m 566 220 l 547 287 l 258 287 l 235 222 q 226 195 220 170 q 214 144 214 116 l 214 116 q 214 50 284 45 l 284 45 l 284 0 l -5 0 l -5 45 q 20 47 39 62 q 58 77 73 103 q 89 129 106 177 l 106 177 l 389 930 l 570 930 l 794 171 q 809 120 819 99 q 829 77 846 64 q 862 51 891 45 l 891 45 l 891 0 l 517 0 l 517 45 q 552 49 569 64 q 586 80 586 109 l 586 109 q 586 130 581 155 q 576 181 566 220 l 566 220 z m 419 748 l 283 366 l 528 366 l 419 748 z m 528 1219 l 682 1219 l 682 1175 l 406 996 l 362 1043 l 528 1219 z "},"Â":{"ha":905,"x_min":-5,"x_max":891,"o":"m 566 220 l 547 287 l 258 287 l 235 222 q 226 195 220 170 q 214 144 214 116 l 214 116 q 214 50 284 45 l 284 45 l 284 0 l -5 0 l -5 45 q 20 47 39 62 q 58 77 73 103 q 89 129 106 177 l 106 177 l 389 930 l 570 930 l 794 171 q 809 120 819 99 q 829 77 846 64 q 862 51 891 45 l 891 45 l 891 0 l 517 0 l 517 45 q 552 49 569 64 q 586 80 586 109 l 586 109 q 586 130 581 155 q 576 181 566 220 l 566 220 z m 419 748 l 283 366 l 528 366 l 419 748 z m 422 1211 l 540 1211 l 693 1040 l 645 995 l 484 1108 l 476 1108 l 313 995 l 267 1040 l 422 1211 z "},"Ã":{"ha":905,"x_min":-5,"x_max":891,"o":"m 566 220 l 547 287 l 258 287 l 235 222 q 226 195 220 170 q 214 144 214 116 l 214 116 q 214 50 284 45 l 284 45 l 284 0 l -5 0 l -5 45 q 20 47 39 62 q 58 77 73 103 q 89 129 106 177 l 106 177 l 389 930 l 570 930 l 794 171 q 809 120 819 99 q 829 77 846 64 q 862 51 891 45 l 891 45 l 891 0 l 517 0 l 517 45 q 552 49 569 64 q 586 80 586 109 l 586 109 q 586 130 581 155 q 576 181 566 220 l 566 220 z m 419 748 l 283 366 l 528 366 l 419 748 z m 654 1185 l 654 1185 l 718 1157 q 680 1077 644 1039 q 608 1000 570 1000 l 570 1000 q 545 1000 524 1007 q 503 1015 465 1041 l 465 1041 q 443 1056 431 1062 q 420 1069 409 1072 q 397 1076 386 1076 l 386 1076 q 370 1076 358 1070 q 347 1064 333 1047 q 319 1031 303 1000 l 303 1000 l 240 1028 q 272 1090 293 1120 q 315 1151 338 1168 q 362 1185 391 1185 l 391 1185 q 408 1185 422 1181 q 437 1178 450 1171 q 464 1164 489 1147 l 489 1147 q 514 1130 526 1123 q 538 1116 549 1113 q 560 1109 575 1109 l 575 1109 q 599 1109 617 1127 q 635 1145 654 1185 z "},"Ä":{"ha":905,"x_min":-5,"x_max":891,"o":"m 566 220 l 547 287 l 258 287 l 235 222 q 226 195 220 170 q 214 144 214 116 l 214 116 q 214 50 284 45 l 284 45 l 284 0 l -5 0 l -5 45 q 20 47 39 62 q 58 77 73 103 q 89 129 106 177 l 106 177 l 389 930 l 570 930 l 794 171 q 809 120 819 99 q 829 77 846 64 q 862 51 891 45 l 891 45 l 891 0 l 517 0 l 517 45 q 552 49 569 64 q 586 80 586 109 l 586 109 q 586 130 581 155 q 576 181 566 220 l 566 220 z m 419 748 l 283 366 l 528 366 l 419 748 z m 278 1167 l 420 1167 l 420 1018 l 278 1018 l 278 1167 z m 540 1167 l 682 1167 l 682 1018 l 540 1018 l 540 1167 z "},"Ā":{"ha":905,"x_min":-5,"x_max":891,"o":"m 566 220 l 547 287 l 258 287 l 235 222 q 226 195 220 170 q 214 144 214 116 l 214 116 q 214 50 284 45 l 284 45 l 284 0 l -5 0 l -5 45 q 20 47 39 62 q 58 77 73 103 q 89 129 106 177 l 106 177 l 389 930 l 570 930 l 794 171 q 809 120 819 99 q 829 77 846 64 q 862 51 891 45 l 891 45 l 891 0 l 517 0 l 517 45 q 552 49 569 64 q 586 80 586 109 l 586 109 q 586 130 581 155 q 576 181 566 220 l 566 220 z m 419 748 l 283 366 l 528 366 l 419 748 z m 681 1142 l 681 1038 l 278 1038 l 278 1142 l 681 1142 z "},"Ă":{"ha":905,"x_min":-5,"x_max":891,"o":"m 566 220 l 547 287 l 258 287 l 235 222 q 226 195 220 170 q 214 144 214 116 l 214 116 q 214 50 284 45 l 284 45 l 284 0 l -5 0 l -5 45 q 20 47 39 62 q 58 77 73 103 q 89 129 106 177 l 106 177 l 389 930 l 570 930 l 794 171 q 809 120 819 99 q 829 77 846 64 q 862 51 891 45 l 891 45 l 891 0 l 517 0 l 517 45 q 552 49 569 64 q 586 80 586 109 l 586 109 q 586 130 581 155 q 576 181 566 220 l 566 220 z m 419 748 l 283 366 l 528 366 l 419 748 z m 635 1215 l 701 1194 q 677 1100 623 1052 q 568 1004 474 1004 l 474 1004 q 389 1004 333 1053 q 278 1101 258 1194 l 258 1194 l 323 1215 q 347 1162 382 1137 q 417 1112 477 1112 l 477 1112 q 541 1112 577 1138 q 614 1164 635 1215 l 635 1215 z "},"Å":{"ha":905,"x_min":-5,"x_max":891,"o":"m 566 220 l 547 287 l 258 287 l 235 222 q 226 195 220 170 q 214 144 214 116 l 214 116 q 214 50 284 45 l 284 45 l 284 0 l -5 0 l -5 45 q 20 47 39 62 q 58 77 73 103 q 89 129 106 177 l 106 177 l 389 930 l 570 930 l 794 171 q 809 120 819 99 q 829 77 846 64 q 862 51 891 45 l 891 45 l 891 0 l 517 0 l 517 45 q 552 49 569 64 q 586 80 586 109 l 586 109 q 586 130 581 155 q 576 181 566 220 l 566 220 z m 419 748 l 283 366 l 528 366 l 419 748 z m 475 960 l 475 960 q 399 960 359 996 q 319 1031 319 1100 l 319 1100 q 319 1147 340 1180 q 361 1213 399 1229 q 437 1245 484 1245 l 484 1245 q 561 1245 600 1210 q 640 1174 640 1106 l 640 1106 q 640 1035 596 997 q 553 960 475 960 z m 400 1105 l 400 1105 q 400 1061 420 1036 q 441 1012 481 1012 l 481 1012 q 518 1012 538 1035 q 558 1057 558 1099 l 558 1099 q 558 1144 537 1168 q 516 1193 479 1193 l 479 1193 q 440 1193 420 1170 q 400 1147 400 1105 z "},"Ǻ":{"ha":905,"x_min":-5,"x_max":891,"o":"m 517 1320 l 671 1320 l 671 1275 l 391 1131 l 351 1182 l 517 1320 z m 586 878 l 586 878 l 794 171 q 809 120 819 99 q 829 77 846 64 q 862 51 891 45 l 891 45 l 891 0 l 517 0 l 517 45 q 552 49 569 64 q 586 80 586 109 l 586 109 q 586 130 581 155 q 576 181 566 220 l 566 220 l 547 287 l 258 287 l 235 222 q 226 195 220 170 q 214 144 214 116 l 214 116 q 214 50 284 45 l 284 45 l 284 0 l -5 0 l -5 45 q 20 47 39 62 q 58 77 73 103 q 89 129 106 177 l 106 177 l 368 873 q 317 909 317 987 l 317 987 q 317 1034 338 1067 q 359 1100 397 1116 q 435 1132 482 1132 l 482 1132 q 559 1132 598 1096 q 637 1061 637 993 l 637 993 q 637 915 586 878 z m 398 991 l 398 991 q 398 947 418 923 q 439 899 479 899 l 479 899 q 516 899 536 921 q 556 944 556 985 l 556 985 q 556 1031 535 1055 q 514 1080 477 1080 l 477 1080 q 438 1080 418 1057 q 398 1034 398 991 z m 419 748 l 283 366 l 528 366 l 419 748 z "},"Ą":{"ha":905,"x_min":-5,"x_max":891,"o":"m 566 220 l 547 287 l 258 287 l 235 222 q 226 195 220 170 q 214 144 214 116 l 214 116 q 214 50 284 45 l 284 45 l 284 0 l -5 0 l -5 45 q 20 47 39 62 q 58 77 73 103 q 89 129 106 177 l 106 177 l 389 930 l 570 930 l 794 171 q 809 120 819 99 q 829 77 846 64 q 862 51 891 45 l 891 45 l 891 0 l 791 0 q 751 -37 731 -76 q 711 -115 711 -151 l 711 -151 q 711 -184 727 -201 q 743 -218 771 -218 l 771 -218 q 791 -218 807 -212 q 822 -205 834 -197 l 834 -197 l 860 -255 q 836 -272 804 -284 q 773 -296 738 -296 l 738 -296 q 711 -296 685 -289 q 660 -283 640 -269 q 621 -255 609 -231 q 597 -208 597 -174 l 597 -174 q 597 -127 626 -82 q 656 -37 712 0 l 712 0 l 517 0 l 517 45 q 552 49 569 64 q 586 80 586 109 l 586 109 q 586 130 581 155 q 576 181 566 220 l 566 220 z m 419 748 l 283 366 l 528 366 l 419 748 z "},"Æ":{"ha":1223,"x_min":-9,"x_max":1165,"o":"m 511 926 l 1158 926 l 1158 710 l 1065 710 q 1043 774 1027 797 q 1012 820 990 833 q 968 846 916 846 l 916 846 l 747 846 l 767 521 l 858 521 q 888 521 905 529 q 922 538 933 557 q 944 577 954 618 l 954 618 l 1031 618 l 1031 343 l 954 343 q 945 382 933 403 q 922 424 906 433 q 890 441 858 441 l 858 441 l 772 441 l 797 79 l 916 79 q 939 79 956 82 q 972 85 985 93 q 998 100 1009 113 q 1021 126 1030 141 q 1040 156 1050 180 q 1060 205 1072 248 l 1072 248 l 1165 248 l 1152 0 l 509 0 l 509 45 q 541 51 555 62 q 570 73 576 93 q 583 113 583 149 l 583 149 q 583 155 583 163 q 583 172 582 180 l 582 180 l 575 287 l 300 287 l 268 224 q 248 183 238 159 q 229 135 229 114 l 229 114 q 229 81 246 64 q 263 47 296 45 l 296 45 l 296 0 l -9 0 l -9 45 q 28 53 59 87 q 90 121 119 177 l 119 177 l 511 926 z m 543 773 l 340 366 l 570 366 l 557 561 q 553 640 551 773 l 551 773 l 543 773 z "},"Ǽ":{"ha":1223,"x_min":-9,"x_max":1165,"o":"m 511 926 l 1158 926 l 1158 710 l 1065 710 q 1043 774 1027 797 q 1012 820 990 833 q 968 846 916 846 l 916 846 l 747 846 l 767 521 l 858 521 q 888 521 905 529 q 922 538 933 557 q 944 577 954 618 l 954 618 l 1031 618 l 1031 343 l 954 343 q 945 382 933 403 q 922 424 906 433 q 890 441 858 441 l 858 441 l 772 441 l 797 79 l 916 79 q 939 79 956 82 q 972 85 985 93 q 998 100 1009 113 q 1021 126 1030 141 q 1040 156 1050 180 q 1060 205 1072 248 l 1072 248 l 1165 248 l 1152 0 l 509 0 l 509 45 q 541 51 555 62 q 570 73 576 93 q 583 113 583 149 l 583 149 q 583 155 583 163 q 583 172 582 180 l 582 180 l 575 287 l 300 287 l 268 224 q 248 183 238 159 q 229 135 229 114 l 229 114 q 229 81 246 64 q 263 47 296 45 l 296 45 l 296 0 l -9 0 l -9 45 q 28 53 59 87 q 90 121 119 177 l 119 177 l 511 926 z m 543 773 l 340 366 l 570 366 l 557 561 q 553 640 551 773 l 551 773 l 543 773 z m 833 1219 l 987 1219 l 987 1175 l 712 996 l 668 1043 l 833 1219 z "},"Ć":{"ha":796,"x_min":70,"x_max":739,"o":"m 739 905 l 739 905 l 739 708 l 646 708 q 630 785 595 821 q 559 857 503 857 l 503 857 q 395 857 340 754 q 286 652 286 450 l 286 450 q 286 262 336 165 q 386 68 483 68 l 483 68 q 532 68 564 85 q 595 102 613 135 q 632 168 646 229 l 646 229 l 739 229 l 739 23 q 664 5 602 -3 q 541 -11 474 -11 l 474 -11 q 333 -11 244 40 q 155 91 112 194 q 70 296 70 454 l 70 454 q 70 601 120 710 q 170 819 267 878 q 363 937 498 937 l 498 937 q 567 937 623 929 q 678 922 739 905 z m 497 1219 l 651 1219 l 651 1175 l 376 996 l 332 1043 l 497 1219 z "},"Ĉ":{"ha":796,"x_min":70,"x_max":739,"o":"m 739 905 l 739 905 l 739 708 l 646 708 q 630 785 595 821 q 559 857 503 857 l 503 857 q 395 857 340 754 q 286 652 286 450 l 286 450 q 286 262 336 165 q 386 68 483 68 l 483 68 q 532 68 564 85 q 595 102 613 135 q 632 168 646 229 l 646 229 l 739 229 l 739 23 q 664 5 602 -3 q 541 -11 474 -11 l 474 -11 q 333 -11 244 40 q 155 91 112 194 q 70 296 70 454 l 70 454 q 70 601 120 710 q 170 819 267 878 q 363 937 498 937 l 498 937 q 567 937 623 929 q 678 922 739 905 z m 392 1211 l 510 1211 l 663 1040 l 615 995 l 454 1108 l 446 1108 l 283 995 l 237 1040 l 392 1211 z "},"Č":{"ha":796,"x_min":70,"x_max":739,"o":"m 739 905 l 739 905 l 739 708 l 646 708 q 630 785 595 821 q 559 857 503 857 l 503 857 q 395 857 340 754 q 286 652 286 450 l 286 450 q 286 262 336 165 q 386 68 483 68 l 483 68 q 532 68 564 85 q 595 102 613 135 q 632 168 646 229 l 646 229 l 739 229 l 739 23 q 664 5 602 -3 q 541 -11 474 -11 l 474 -11 q 333 -11 244 40 q 155 91 112 194 q 70 296 70 454 l 70 454 q 70 601 120 710 q 170 819 267 878 q 363 937 498 937 l 498 937 q 567 937 623 929 q 678 922 739 905 z m 508 1000 l 390 1000 l 237 1170 l 285 1215 l 446 1102 l 454 1102 l 616 1215 l 663 1170 l 508 1000 z "},"Ċ":{"ha":796,"x_min":70,"x_max":739,"o":"m 739 905 l 739 905 l 739 708 l 646 708 q 630 785 595 821 q 559 857 503 857 l 503 857 q 395 857 340 754 q 286 652 286 450 l 286 450 q 286 262 336 165 q 386 68 483 68 l 483 68 q 532 68 564 85 q 595 102 613 135 q 632 168 646 229 l 646 229 l 739 229 l 739 23 q 664 5 602 -3 q 541 -11 474 -11 l 474 -11 q 333 -11 244 40 q 155 91 112 194 q 70 296 70 454 l 70 454 q 70 601 120 710 q 170 819 267 878 q 363 937 498 937 l 498 937 q 567 937 623 929 q 678 922 739 905 z m 357 1176 l 543 1176 l 543 1010 l 357 1010 l 357 1176 z "},"Ç":{"ha":796,"x_min":70,"x_max":739,"o":"m 739 905 l 739 905 l 739 708 l 646 708 q 630 785 595 821 q 559 857 503 857 l 503 857 q 395 857 340 754 q 286 652 286 450 l 286 450 q 286 262 336 165 q 386 68 483 68 l 483 68 q 532 68 564 85 q 595 102 613 135 q 632 168 646 229 l 646 229 l 739 229 l 739 23 q 626 -4 539 -9 l 539 -9 l 486 -46 q 497 -62 503 -84 q 509 -107 509 -134 l 509 -134 q 509 -203 447 -244 q 385 -286 272 -292 l 272 -292 l 261 -227 q 317 -219 342 -200 q 368 -181 368 -141 l 368 -141 q 368 -116 364 -98 l 364 -98 l 364 -69 l 452 -10 q 256 -6 163 108 q 70 222 70 454 l 70 454 q 70 601 120 710 q 170 819 267 878 q 363 937 498 937 l 498 937 q 567 937 623 929 q 678 922 739 905 z "},"Ď":{"ha":979,"x_min":65,"x_max":909,"o":"m 65 926 l 418 926 q 531 926 607 908 q 683 890 742 852 q 801 814 837 762 q 873 709 891 640 q 909 570 909 483 l 909 483 q 909 377 884 293 q 859 209 810 149 l 810 149 q 766 96 702 61 q 637 26 554 12 l 554 12 q 482 0 373 0 l 373 0 l 65 0 l 65 45 q 90 52 105 59 q 119 67 126 81 q 134 95 136 116 q 138 138 138 170 l 138 170 l 138 755 q 138 787 136 808 q 134 830 127 844 q 120 857 105 866 q 91 874 65 881 l 65 881 l 65 926 z m 348 845 l 348 82 q 360 80 410 80 l 410 80 q 484 80 535 102 l 535 102 q 573 118 600 146 l 600 146 q 644 193 666 268 l 666 268 q 690 349 690 467 l 690 467 q 690 595 656 681 q 621 766 558 806 q 496 846 408 846 l 408 846 q 366 846 348 845 l 348 845 z m 547 1000 l 429 1000 l 276 1170 l 324 1215 l 486 1102 l 493 1102 l 656 1215 l 703 1170 l 547 1000 z "},"Đ":{"ha":985,"x_min":28,"x_max":915,"o":"m 71 926 l 424 926 q 537 926 613 908 q 689 890 748 852 q 807 814 843 762 q 880 709 897 640 q 915 570 915 483 l 915 483 q 915 377 890 293 q 865 209 816 149 l 816 149 q 772 96 708 61 q 644 26 560 12 l 560 12 q 488 0 379 0 l 379 0 l 71 0 l 71 45 q 96 52 111 59 q 125 67 133 81 q 140 95 142 116 q 144 138 144 170 l 144 170 l 144 442 l 28 442 l 28 528 l 144 528 l 144 755 q 144 787 142 808 q 140 830 133 844 q 126 857 112 866 q 97 874 71 881 l 71 881 l 71 926 z m 532 528 l 532 442 l 354 442 l 354 82 q 366 80 416 80 l 416 80 q 467 80 505 90 l 505 90 q 541 99 571 118 l 571 118 q 598 136 621 163 l 621 163 q 645 195 661 235 l 661 235 q 679 278 688 335 q 696 392 696 467 l 696 467 q 696 595 662 681 q 627 766 565 806 q 502 846 414 846 l 414 846 q 372 846 354 845 l 354 845 l 354 528 l 532 528 z "},"È":{"ha":802,"x_min":65,"x_max":745,"o":"m 65 926 l 738 926 l 738 710 l 645 710 q 623 774 607 797 q 591 820 570 833 q 548 846 496 846 l 496 846 l 348 846 l 348 521 l 437 521 q 467 521 484 529 q 501 538 512 557 q 524 577 534 618 l 534 618 l 610 618 l 610 343 l 534 343 q 524 382 513 403 q 501 424 485 433 q 469 441 437 441 l 437 441 l 348 441 l 348 79 l 495 79 q 519 79 535 82 q 551 85 564 93 q 577 100 589 113 q 601 126 610 141 q 619 156 629 180 q 640 205 652 248 l 652 248 l 745 248 l 732 0 l 65 0 l 65 45 q 90 52 105 59 q 119 67 126 81 q 134 95 136 116 q 138 138 138 170 l 138 170 l 138 755 q 138 787 136 808 q 134 830 127 844 q 120 857 105 866 q 91 874 65 881 l 65 881 l 65 926 z m 206 1219 l 370 1219 l 526 1043 l 482 996 l 206 1175 l 206 1219 z "},"É":{"ha":802,"x_min":65,"x_max":745,"o":"m 65 926 l 738 926 l 738 710 l 645 710 q 623 774 607 797 q 591 820 570 833 q 548 846 496 846 l 496 846 l 348 846 l 348 521 l 437 521 q 467 521 484 529 q 501 538 512 557 q 524 577 534 618 l 534 618 l 610 618 l 610 343 l 534 343 q 524 382 513 403 q 501 424 485 433 q 469 441 437 441 l 437 441 l 348 441 l 348 79 l 495 79 q 519 79 535 82 q 551 85 564 93 q 577 100 589 113 q 601 126 610 141 q 619 156 629 180 q 640 205 652 248 l 652 248 l 745 248 l 732 0 l 65 0 l 65 45 q 90 52 105 59 q 119 67 126 81 q 134 95 136 116 q 138 138 138 170 l 138 170 l 138 755 q 138 787 136 808 q 134 830 127 844 q 120 857 105 866 q 91 874 65 881 l 65 881 l 65 926 z m 454 1219 l 608 1219 l 608 1175 l 332 996 l 288 1043 l 454 1219 z "},"Ê":{"ha":802,"x_min":65,"x_max":745,"o":"m 65 926 l 738 926 l 738 710 l 645 710 q 623 774 607 797 q 591 820 570 833 q 548 846 496 846 l 496 846 l 348 846 l 348 521 l 437 521 q 467 521 484 529 q 501 538 512 557 q 524 577 534 618 l 534 618 l 610 618 l 610 343 l 534 343 q 524 382 513 403 q 501 424 485 433 q 469 441 437 441 l 437 441 l 348 441 l 348 79 l 495 79 q 519 79 535 82 q 551 85 564 93 q 577 100 589 113 q 601 126 610 141 q 619 156 629 180 q 640 205 652 248 l 652 248 l 745 248 l 732 0 l 65 0 l 65 45 q 90 52 105 59 q 119 67 126 81 q 134 95 136 116 q 138 138 138 170 l 138 170 l 138 755 q 138 787 136 808 q 134 830 127 844 q 120 857 105 866 q 91 874 65 881 l 65 881 l 65 926 z m 349 1211 l 467 1211 l 620 1040 l 572 995 l 410 1108 l 403 1108 l 240 995 l 193 1040 l 349 1211 z "},"Ě":{"ha":802,"x_min":65,"x_max":745,"o":"m 65 926 l 738 926 l 738 710 l 645 710 q 623 774 607 797 q 591 820 570 833 q 548 846 496 846 l 496 846 l 348 846 l 348 521 l 437 521 q 467 521 484 529 q 501 538 512 557 q 524 577 534 618 l 534 618 l 610 618 l 610 343 l 534 343 q 524 382 513 403 q 501 424 485 433 q 469 441 437 441 l 437 441 l 348 441 l 348 79 l 495 79 q 519 79 535 82 q 551 85 564 93 q 577 100 589 113 q 601 126 610 141 q 619 156 629 180 q 640 205 652 248 l 652 248 l 745 248 l 732 0 l 65 0 l 65 45 q 90 52 105 59 q 119 67 126 81 q 134 95 136 116 q 138 138 138 170 l 138 170 l 138 755 q 138 787 136 808 q 134 830 127 844 q 120 857 105 866 q 91 874 65 881 l 65 881 l 65 926 z m 465 1000 l 347 1000 l 193 1170 l 241 1215 l 403 1102 l 410 1102 l 573 1215 l 620 1170 l 465 1000 z "},"Ë":{"ha":802,"x_min":65,"x_max":745,"o":"m 65 926 l 738 926 l 738 710 l 645 710 q 623 774 607 797 q 591 820 570 833 q 548 846 496 846 l 496 846 l 348 846 l 348 521 l 437 521 q 467 521 484 529 q 501 538 512 557 q 524 577 534 618 l 534 618 l 610 618 l 610 343 l 534 343 q 524 382 513 403 q 501 424 485 433 q 469 441 437 441 l 437 441 l 348 441 l 348 79 l 495 79 q 519 79 535 82 q 551 85 564 93 q 577 100 589 113 q 601 126 610 141 q 619 156 629 180 q 640 205 652 248 l 652 248 l 745 248 l 732 0 l 65 0 l 65 45 q 90 52 105 59 q 119 67 126 81 q 134 95 136 116 q 138 138 138 170 l 138 170 l 138 755 q 138 787 136 808 q 134 830 127 844 q 120 857 105 866 q 91 874 65 881 l 65 881 l 65 926 z m 205 1167 l 347 1167 l 347 1018 l 205 1018 l 205 1167 z m 467 1167 l 608 1167 l 608 1018 l 467 1018 l 467 1167 z "},"Ē":{"ha":802,"x_min":65,"x_max":745,"o":"m 65 926 l 738 926 l 738 710 l 645 710 q 623 774 607 797 q 591 820 570 833 q 548 846 496 846 l 496 846 l 348 846 l 348 521 l 437 521 q 467 521 484 529 q 501 538 512 557 q 524 577 534 618 l 534 618 l 610 618 l 610 343 l 534 343 q 524 382 513 403 q 501 424 485 433 q 469 441 437 441 l 437 441 l 348 441 l 348 79 l 495 79 q 519 79 535 82 q 551 85 564 93 q 577 100 589 113 q 601 126 610 141 q 619 156 629 180 q 640 205 652 248 l 652 248 l 745 248 l 732 0 l 65 0 l 65 45 q 90 52 105 59 q 119 67 126 81 q 134 95 136 116 q 138 138 138 170 l 138 170 l 138 755 q 138 787 136 808 q 134 830 127 844 q 120 857 105 866 q 91 874 65 881 l 65 881 l 65 926 z m 608 1142 l 608 1038 l 205 1038 l 205 1142 l 608 1142 z "},"Ĕ":{"ha":802,"x_min":65,"x_max":745,"o":"m 65 926 l 738 926 l 738 710 l 645 710 q 623 774 607 797 q 591 820 570 833 q 548 846 496 846 l 496 846 l 348 846 l 348 521 l 437 521 q 467 521 484 529 q 501 538 512 557 q 524 577 534 618 l 534 618 l 610 618 l 610 343 l 534 343 q 524 382 513 403 q 501 424 485 433 q 469 441 437 441 l 437 441 l 348 441 l 348 79 l 495 79 q 519 79 535 82 q 551 85 564 93 q 577 100 589 113 q 601 126 610 141 q 619 156 629 180 q 640 205 652 248 l 652 248 l 745 248 l 732 0 l 65 0 l 65 45 q 90 52 105 59 q 119 67 126 81 q 134 95 136 116 q 138 138 138 170 l 138 170 l 138 755 q 138 787 136 808 q 134 830 127 844 q 120 857 105 866 q 91 874 65 881 l 65 881 l 65 926 z m 562 1215 l 628 1194 q 604 1100 549 1052 q 494 1004 401 1004 l 401 1004 q 315 1004 260 1053 q 205 1101 184 1194 l 184 1194 l 250 1215 q 273 1162 309 1137 q 344 1112 404 1112 l 404 1112 q 467 1112 504 1138 q 541 1164 562 1215 l 562 1215 z "},"Ė":{"ha":802,"x_min":65,"x_max":745,"o":"m 65 926 l 738 926 l 738 710 l 645 710 q 623 774 607 797 q 591 820 570 833 q 548 846 496 846 l 496 846 l 348 846 l 348 521 l 437 521 q 467 521 484 529 q 501 538 512 557 q 524 577 534 618 l 534 618 l 610 618 l 610 343 l 534 343 q 524 382 513 403 q 501 424 485 433 q 469 441 437 441 l 437 441 l 348 441 l 348 79 l 495 79 q 519 79 535 82 q 551 85 564 93 q 577 100 589 113 q 601 126 610 141 q 619 156 629 180 q 640 205 652 248 l 652 248 l 745 248 l 732 0 l 65 0 l 65 45 q 90 52 105 59 q 119 67 126 81 q 134 95 136 116 q 138 138 138 170 l 138 170 l 138 755 q 138 787 136 808 q 134 830 127 844 q 120 857 105 866 q 91 874 65 881 l 65 881 l 65 926 z m 313 1176 l 499 1176 l 499 1010 l 313 1010 l 313 1176 z "},"Ę":{"ha":802,"x_min":65,"x_max":745,"o":"m 65 926 l 738 926 l 738 710 l 645 710 q 623 774 607 797 q 591 820 570 833 q 548 846 496 846 l 496 846 l 348 846 l 348 521 l 437 521 q 467 521 484 529 q 501 538 512 557 q 524 577 534 618 l 534 618 l 610 618 l 610 343 l 534 343 q 524 382 513 403 q 501 424 485 433 q 469 441 437 441 l 437 441 l 348 441 l 348 79 l 495 79 q 519 79 535 82 q 551 85 564 93 q 577 100 589 113 q 601 126 610 141 q 619 156 629 180 q 640 205 652 248 l 652 248 l 745 248 l 732 0 l 676 0 q 637 -37 617 -76 q 597 -115 597 -151 l 597 -151 q 597 -184 613 -201 q 629 -218 656 -218 l 656 -218 q 677 -218 692 -212 q 707 -205 720 -197 l 720 -197 l 745 -255 q 721 -272 690 -284 q 659 -296 623 -296 l 623 -296 q 596 -296 571 -289 q 545 -283 526 -269 q 506 -255 494 -231 q 482 -208 482 -174 l 482 -174 q 482 -127 512 -82 q 541 -37 597 0 l 597 0 l 65 0 l 65 45 q 90 52 105 59 q 119 67 126 81 q 134 95 136 116 q 138 138 138 170 l 138 170 l 138 755 q 138 787 136 808 q 134 830 127 844 q 120 857 105 866 q 91 874 65 881 l 65 881 l 65 926 z "},"Ĝ":{"ha":898,"x_min":70,"x_max":859,"o":"m 777 901 l 777 901 l 777 708 l 684 708 q 668 765 648 796 q 628 827 596 842 q 565 857 515 857 l 515 857 q 448 857 397 816 q 345 775 315 685 q 286 595 286 458 l 286 458 q 286 339 306 252 q 326 165 367 117 q 408 68 468 68 l 468 68 q 528 68 556 104 q 585 140 585 218 l 585 218 l 585 243 q 585 295 581 317 q 578 339 571 350 q 564 361 552 368 q 541 374 511 383 l 511 383 l 511 428 l 859 428 l 859 383 q 825 373 812 360 q 800 347 796 326 q 791 304 791 266 l 791 266 l 791 10 l 694 -10 l 648 39 q 567 -11 463 -11 l 463 -11 q 264 -11 167 105 q 70 220 70 455 l 70 455 q 70 578 104 672 q 139 766 200 824 q 262 883 339 910 q 416 937 504 937 l 504 937 q 652 937 777 901 z m 405 1211 l 523 1211 l 676 1040 l 628 995 l 467 1108 l 459 1108 l 296 995 l 250 1040 l 405 1211 z "},"Ğ":{"ha":898,"x_min":70,"x_max":859,"o":"m 777 901 l 777 901 l 777 708 l 684 708 q 668 765 648 796 q 628 827 596 842 q 565 857 515 857 l 515 857 q 448 857 397 816 q 345 775 315 685 q 286 595 286 458 l 286 458 q 286 339 306 252 q 326 165 367 117 q 408 68 468 68 l 468 68 q 528 68 556 104 q 585 140 585 218 l 585 218 l 585 243 q 585 295 581 317 q 578 339 571 350 q 564 361 552 368 q 541 374 511 383 l 511 383 l 511 428 l 859 428 l 859 383 q 825 373 812 360 q 800 347 796 326 q 791 304 791 266 l 791 266 l 791 10 l 694 -10 l 648 39 q 567 -11 463 -11 l 463 -11 q 264 -11 167 105 q 70 220 70 455 l 70 455 q 70 578 104 672 q 139 766 200 824 q 262 883 339 910 q 416 937 504 937 l 504 937 q 652 937 777 901 z m 618 1215 l 684 1194 q 661 1100 606 1052 q 551 1004 457 1004 l 457 1004 q 372 1004 316 1053 q 261 1101 241 1194 l 241 1194 l 307 1215 q 330 1162 365 1137 q 400 1112 460 1112 l 460 1112 q 524 1112 561 1138 q 597 1164 618 1215 l 618 1215 z "},"Ġ":{"ha":898,"x_min":70,"x_max":859,"o":"m 777 901 l 777 901 l 777 708 l 684 708 q 668 765 648 796 q 628 827 596 842 q 565 857 515 857 l 515 857 q 448 857 397 816 q 345 775 315 685 q 286 595 286 458 l 286 458 q 286 339 306 252 q 326 165 367 117 q 408 68 468 68 l 468 68 q 528 68 556 104 q 585 140 585 218 l 585 218 l 585 243 q 585 295 581 317 q 578 339 571 350 q 564 361 552 368 q 541 374 511 383 l 511 383 l 511 428 l 859 428 l 859 383 q 825 373 812 360 q 800 347 796 326 q 791 304 791 266 l 791 266 l 791 10 l 694 -10 l 648 39 q 567 -11 463 -11 l 463 -11 q 264 -11 167 105 q 70 220 70 455 l 70 455 q 70 578 104 672 q 139 766 200 824 q 262 883 339 910 q 416 937 504 937 l 504 937 q 652 937 777 901 z m 370 1176 l 555 1176 l 555 1010 l 370 1010 l 370 1176 z "},"Ģ":{"ha":898,"x_min":70,"x_max":859,"o":"m 777 901 l 777 901 l 777 708 l 684 708 q 668 765 648 796 q 628 827 596 842 q 565 857 515 857 l 515 857 q 448 857 397 816 q 345 775 315 685 q 286 595 286 458 l 286 458 q 286 339 306 252 q 326 165 367 117 q 408 68 468 68 l 468 68 q 528 68 556 104 q 585 140 585 218 l 585 218 l 585 243 q 585 295 581 317 q 578 339 571 350 q 564 361 552 368 q 541 374 511 383 l 511 383 l 511 428 l 859 428 l 859 383 q 825 373 812 360 q 800 347 796 326 q 791 304 791 266 l 791 266 l 791 10 l 694 -10 l 648 39 q 567 -11 463 -11 l 463 -11 q 264 -11 167 105 q 70 220 70 455 l 70 455 q 70 578 104 672 q 139 766 200 824 q 262 883 339 910 q 416 937 504 937 l 504 937 q 652 937 777 901 z m 403 -69 l 538 -69 q 549 -98 549 -134 l 549 -134 q 549 -203 487 -244 q 425 -286 313 -292 l 313 -292 l 302 -227 q 345 -220 366 -210 q 388 -200 398 -182 q 408 -163 408 -132 l 408 -132 q 408 -101 403 -69 l 403 -69 z "},"Ĥ":{"ha":1002,"x_min":65,"x_max":937,"o":"m 865 754 l 865 170 q 865 118 869 99 q 873 79 887 66 q 901 54 937 45 l 937 45 l 937 0 l 583 0 l 583 45 q 622 55 633 65 q 645 75 650 94 q 654 113 654 170 l 654 170 l 654 442 l 348 442 l 348 170 q 348 146 349 126 q 351 106 355 93 q 359 80 367 71 q 374 62 388 56 q 401 50 421 45 l 421 45 l 421 0 l 65 0 l 65 45 q 90 52 105 59 q 119 67 126 81 q 134 95 136 116 q 138 138 138 170 l 138 170 l 138 755 q 138 787 136 808 q 134 830 127 844 q 120 857 105 866 q 91 874 65 881 l 65 881 l 65 926 l 421 926 l 421 881 q 385 871 372 859 q 359 846 353 826 q 348 806 348 754 l 348 754 l 348 528 l 654 528 l 654 754 q 654 806 650 826 q 646 846 632 858 q 619 871 583 881 l 583 881 l 583 926 l 937 926 l 937 881 q 907 873 893 864 q 880 854 874 840 q 868 826 866 808 q 865 791 865 754 l 865 754 z m 443 1211 l 561 1211 l 714 1040 l 666 995 l 505 1108 l 497 1108 l 334 995 l 288 1040 l 443 1211 z "},"Ħ":{"ha":1009,"x_min":65,"x_max":943,"o":"m 871 754 l 871 170 q 871 118 876 99 q 880 79 894 66 q 907 54 943 45 l 943 45 l 943 0 l 589 0 l 589 45 q 629 55 640 65 q 652 75 656 94 q 661 113 661 170 l 661 170 l 661 327 l 348 327 l 348 170 q 348 146 349 126 q 351 106 355 93 q 359 80 367 71 q 374 62 388 56 q 401 50 421 45 l 421 45 l 421 0 l 65 0 l 65 45 q 90 52 105 59 q 119 67 126 81 q 134 95 136 116 q 138 138 138 170 l 138 170 l 138 755 q 138 787 136 808 q 134 830 127 844 q 120 857 105 866 q 91 874 65 881 l 65 881 l 65 926 l 421 926 l 421 881 q 385 871 372 859 q 359 846 353 826 q 348 806 348 754 l 348 754 l 348 644 l 661 644 l 661 754 q 661 806 657 826 q 652 846 639 858 q 626 871 589 881 l 589 881 l 589 926 l 943 926 l 943 881 q 913 873 900 864 q 886 854 881 840 q 875 826 873 808 q 871 791 871 754 l 871 754 z m 348 558 l 348 412 l 661 412 l 661 558 l 348 558 z "},"Ì":{"ha":486,"x_min":41,"x_max":421,"o":"m 348 755 l 348 170 q 348 146 349 126 q 351 106 355 93 q 359 80 367 71 q 374 62 388 56 q 401 50 421 45 l 421 45 l 421 0 l 65 0 l 65 45 q 90 52 105 59 q 119 67 126 81 q 134 95 136 116 q 138 138 138 170 l 138 170 l 138 755 q 138 788 136 809 q 134 830 127 844 q 120 858 105 866 q 91 874 65 881 l 65 881 l 65 926 l 421 926 l 421 881 q 393 873 380 865 q 367 857 360 844 q 353 832 351 812 q 348 793 348 755 l 348 755 z m 41 1219 l 205 1219 l 361 1043 l 317 996 l 41 1175 l 41 1219 z "},"Í":{"ha":486,"x_min":65,"x_max":444,"o":"m 348 755 l 348 170 q 348 146 349 126 q 351 106 355 93 q 359 80 367 71 q 374 62 388 56 q 401 50 421 45 l 421 45 l 421 0 l 65 0 l 65 45 q 90 52 105 59 q 119 67 126 81 q 134 95 136 116 q 138 138 138 170 l 138 170 l 138 755 q 138 788 136 809 q 134 830 127 844 q 120 858 105 866 q 91 874 65 881 l 65 881 l 65 926 l 421 926 l 421 881 q 393 873 380 865 q 367 857 360 844 q 353 832 351 812 q 348 793 348 755 l 348 755 z m 290 1219 l 444 1219 l 444 1175 l 169 996 l 125 1043 l 290 1219 z "},"Î":{"ha":486,"x_min":29,"x_max":456,"o":"m 348 755 l 348 170 q 348 146 349 126 q 351 106 355 93 q 359 80 367 71 q 374 62 388 56 q 401 50 421 45 l 421 45 l 421 0 l 65 0 l 65 45 q 90 52 105 59 q 119 67 126 81 q 134 95 136 116 q 138 138 138 170 l 138 170 l 138 755 q 138 788 136 809 q 134 830 127 844 q 120 858 105 866 q 91 874 65 881 l 65 881 l 65 926 l 421 926 l 421 881 q 393 873 380 865 q 367 857 360 844 q 353 832 351 812 q 348 793 348 755 l 348 755 z m 184 1211 l 302 1211 l 456 1040 l 408 995 l 246 1108 l 239 1108 l 76 995 l 29 1040 l 184 1211 z "},"Ĩ":{"ha":486,"x_min":4,"x_max":482,"o":"m 348 755 l 348 170 q 348 146 349 126 q 351 106 355 93 q 359 80 367 71 q 374 62 388 56 q 401 50 421 45 l 421 45 l 421 0 l 65 0 l 65 45 q 90 52 105 59 q 119 67 126 81 q 134 95 136 116 q 138 138 138 170 l 138 170 l 138 755 q 138 788 136 809 q 134 830 127 844 q 120 858 105 866 q 91 874 65 881 l 65 881 l 65 926 l 421 926 l 421 881 q 393 873 380 865 q 367 857 360 844 q 353 832 351 812 q 348 793 348 755 l 348 755 z m 418 1185 l 418 1185 l 482 1157 q 444 1077 408 1039 q 372 1000 334 1000 l 334 1000 q 309 1000 288 1007 q 267 1015 229 1041 l 229 1041 q 207 1056 195 1062 q 184 1069 173 1072 q 161 1076 150 1076 l 150 1076 q 134 1076 122 1070 q 111 1064 97 1047 q 83 1031 67 1000 l 67 1000 l 4 1028 q 36 1090 57 1120 q 79 1151 102 1168 q 126 1185 155 1185 l 155 1185 q 172 1185 186 1181 q 201 1178 214 1171 q 228 1164 253 1147 l 253 1147 q 278 1130 290 1123 q 302 1116 313 1113 q 324 1109 339 1109 l 339 1109 q 363 1109 381 1127 q 399 1145 418 1185 z "},"Ï":{"ha":486,"x_min":41,"x_max":445,"o":"m 348 755 l 348 170 q 348 146 349 126 q 351 106 355 93 q 359 80 367 71 q 374 62 388 56 q 401 50 421 45 l 421 45 l 421 0 l 65 0 l 65 45 q 90 52 105 59 q 119 67 126 81 q 134 95 136 116 q 138 138 138 170 l 138 170 l 138 755 q 138 788 136 809 q 134 830 127 844 q 120 858 105 866 q 91 874 65 881 l 65 881 l 65 926 l 421 926 l 421 881 q 393 873 380 865 q 367 857 360 844 q 353 832 351 812 q 348 793 348 755 l 348 755 z m 41 1167 l 183 1167 l 183 1018 l 41 1018 l 41 1167 z m 303 1167 l 445 1167 l 445 1018 l 303 1018 l 303 1167 z "},"Ī":{"ha":486,"x_min":41,"x_max":444,"o":"m 348 755 l 348 170 q 348 146 349 126 q 351 106 355 93 q 359 80 367 71 q 374 62 388 56 q 401 50 421 45 l 421 45 l 421 0 l 65 0 l 65 45 q 90 52 105 59 q 119 67 126 81 q 134 95 136 116 q 138 138 138 170 l 138 170 l 138 755 q 138 788 136 809 q 134 830 127 844 q 120 858 105 866 q 91 874 65 881 l 65 881 l 65 926 l 421 926 l 421 881 q 393 873 380 865 q 367 857 360 844 q 353 832 351 812 q 348 793 348 755 l 348 755 z m 444 1142 l 444 1038 l 41 1038 l 41 1142 l 444 1142 z "},"Ĭ":{"ha":486,"x_min":21,"x_max":465,"o":"m 348 755 l 348 170 q 348 146 349 126 q 351 106 355 93 q 359 80 367 71 q 374 62 388 56 q 401 50 421 45 l 421 45 l 421 0 l 65 0 l 65 45 q 90 52 105 59 q 119 67 126 81 q 134 95 136 116 q 138 138 138 170 l 138 170 l 138 755 q 138 788 136 809 q 134 830 127 844 q 120 858 105 866 q 91 874 65 881 l 65 881 l 65 926 l 421 926 l 421 881 q 393 873 380 865 q 367 857 360 844 q 353 832 351 812 q 348 793 348 755 l 348 755 z m 399 1215 l 465 1194 q 441 1100 386 1052 q 331 1004 237 1004 l 237 1004 q 152 1004 97 1053 q 41 1101 21 1194 l 21 1194 l 87 1215 q 110 1162 145 1137 q 180 1112 240 1112 l 240 1112 q 304 1112 341 1138 q 378 1164 399 1215 l 399 1215 z "},"İ":{"ha":486,"x_min":65,"x_max":421,"o":"m 348 755 l 348 170 q 348 146 349 126 q 351 106 355 93 q 359 80 367 71 q 374 62 388 56 q 401 50 421 45 l 421 45 l 421 0 l 65 0 l 65 45 q 90 52 105 59 q 119 67 126 81 q 134 95 136 116 q 138 138 138 170 l 138 170 l 138 755 q 138 788 136 809 q 134 830 127 844 q 120 858 105 866 q 91 874 65 881 l 65 881 l 65 926 l 421 926 l 421 881 q 393 873 380 865 q 367 857 360 844 q 353 832 351 812 q 348 793 348 755 l 348 755 z m 150 1176 l 336 1176 l 336 1010 l 150 1010 l 150 1176 z "},"Į":{"ha":486,"x_min":65,"x_max":421,"o":"m 348 755 l 348 170 q 348 146 349 126 q 351 106 355 93 q 359 80 367 71 q 374 62 388 56 q 401 50 421 45 l 421 45 l 421 0 l 351 0 q 312 -37 292 -76 q 272 -115 272 -151 l 272 -151 q 272 -184 288 -201 q 304 -218 332 -218 l 332 -218 q 352 -218 367 -212 q 382 -205 395 -197 l 395 -197 l 420 -255 q 396 -272 365 -284 q 334 -296 298 -296 l 298 -296 q 271 -296 246 -289 q 220 -283 201 -269 q 181 -255 169 -231 q 157 -208 157 -174 l 157 -174 q 157 -127 187 -82 q 216 -37 273 0 l 273 0 l 65 0 l 65 45 q 90 52 105 59 q 119 67 126 81 q 134 95 136 116 q 138 138 138 170 l 138 170 l 138 755 q 138 788 136 809 q 134 830 127 844 q 120 858 105 866 q 91 874 65 881 l 65 881 l 65 926 l 421 926 l 421 881 q 393 873 380 865 q 367 857 360 844 q 353 832 351 812 q 348 793 348 755 l 348 755 z "},"Ĳ":{"ha":959,"x_min":65,"x_max":901,"o":"m 348 755 l 348 170 q 348 146 349 126 q 351 106 355 93 q 359 80 367 71 q 374 62 388 56 q 401 50 421 45 l 421 45 l 421 0 l 65 0 l 65 45 q 90 52 105 59 q 119 67 126 81 q 134 95 136 116 q 138 138 138 170 l 138 170 l 138 755 q 138 788 136 809 q 134 830 127 844 q 120 858 105 866 q 91 874 65 881 l 65 881 l 65 926 l 421 926 l 421 881 q 393 873 380 865 q 367 857 360 844 q 353 832 351 812 q 348 793 348 755 l 348 755 z m 827 755 l 827 75 q 827 2 816 -43 q 805 -89 779 -124 l 779 -124 q 747 -167 695 -199 l 695 -199 q 633 -238 543 -266 l 543 -266 l 509 -182 q 551 -164 571 -148 q 591 -132 600 -113 q 609 -94 613 -66 q 617 -38 617 16 l 617 16 l 617 755 q 617 787 615 808 q 614 830 607 844 q 600 857 585 866 q 570 874 545 881 l 545 881 l 545 926 l 901 926 l 901 881 q 872 873 859 865 q 846 856 839 844 q 833 831 830 812 q 827 793 827 755 l 827 755 z "},"Ĵ":{"ha":473,"x_min":24,"x_max":450,"o":"m 342 755 l 342 75 q 342 2 331 -43 q 319 -89 293 -124 l 293 -124 q 262 -167 210 -199 l 210 -199 q 148 -238 58 -266 l 58 -266 l 24 -182 q 65 -164 85 -148 q 105 -132 114 -113 q 123 -94 127 -66 q 132 -38 132 16 l 132 16 l 132 755 q 132 787 130 808 q 128 830 121 844 q 114 857 99 866 q 85 874 59 881 l 59 881 l 59 926 l 415 926 l 415 881 q 387 873 373 865 q 360 856 354 844 q 347 831 345 812 q 342 793 342 755 l 342 755 z m 179 1211 l 297 1211 l 450 1040 l 402 995 l 241 1108 l 233 1108 l 71 995 l 24 1040 l 179 1211 z "},"Ķ":{"ha":947,"x_min":65,"x_max":957,"o":"m 583 544 l 819 180 q 846 140 864 116 q 882 92 895 78 q 909 64 922 57 q 935 50 957 44 l 957 44 l 957 0 l 589 0 l 589 45 q 612 48 621 56 q 629 64 629 77 l 629 77 q 629 87 626 98 q 623 109 611 129 q 600 149 564 203 l 564 203 l 460 363 q 441 393 428 409 q 414 425 400 432 q 386 439 361 439 l 361 439 l 348 439 l 348 170 q 348 146 349 126 q 351 106 355 93 q 359 80 367 71 q 374 62 388 56 q 401 50 421 45 l 421 45 l 421 0 l 65 0 l 65 45 q 90 52 105 59 q 119 67 126 81 q 134 95 136 116 q 138 138 138 170 l 138 170 l 138 755 q 138 787 136 808 q 134 830 127 844 q 120 857 105 866 q 91 874 65 881 l 65 881 l 65 926 l 421 926 l 421 881 q 393 873 379 865 q 366 856 360 844 q 353 831 351 812 q 348 793 348 755 l 348 755 l 348 513 l 362 513 q 393 513 412 520 q 430 527 449 545 q 469 562 524 627 q 579 692 604 727 q 629 762 638 784 q 647 807 647 829 l 647 829 q 647 853 631 867 q 615 880 586 881 l 586 881 l 586 926 l 932 926 l 932 880 q 907 875 888 865 q 870 856 846 834 q 823 813 786 772 l 786 772 l 583 544 z m 425 -69 l 560 -69 q 572 -98 572 -134 l 572 -134 q 572 -203 510 -244 q 448 -286 335 -292 l 335 -292 l 324 -227 q 367 -220 389 -210 q 410 -200 420 -182 q 431 -163 431 -132 l 431 -132 q 431 -101 425 -69 l 425 -69 z "},"Ĺ":{"ha":765,"x_min":65,"x_max":726,"o":"m 65 926 l 421 926 l 421 881 q 397 874 382 866 q 368 859 360 845 q 353 831 350 810 q 348 789 348 756 l 348 756 l 348 81 l 479 81 q 519 81 543 93 q 566 105 584 131 q 601 156 613 197 q 626 238 633 274 l 633 274 l 726 274 l 711 0 l 65 0 l 65 45 q 90 52 105 60 q 119 68 126 82 q 134 96 136 117 q 138 138 138 171 l 138 171 l 138 755 q 138 787 136 808 q 134 830 127 844 q 120 857 105 866 q 91 874 65 881 l 65 881 l 65 926 z m 431 1219 l 585 1219 l 585 1175 l 309 996 l 265 1043 l 431 1219 z "},"Ľ":{"ha":765,"x_min":65,"x_max":726,"o":"m 65 926 l 421 926 l 421 881 q 397 874 382 866 q 368 859 360 845 q 353 831 350 810 q 348 789 348 756 l 348 756 l 348 81 l 479 81 q 519 81 543 93 q 566 105 584 131 q 601 156 613 197 q 626 238 633 274 l 633 274 l 726 274 l 711 0 l 65 0 l 65 45 q 90 52 105 60 q 119 68 126 82 q 134 96 136 117 q 138 138 138 171 l 138 171 l 138 755 q 138 787 136 808 q 134 830 127 844 q 120 857 105 866 q 91 874 65 881 l 65 881 l 65 926 z m 517 970 l 649 970 q 665 926 665 883 l 665 883 q 665 827 632 779 q 600 730 518 669 l 518 669 l 475 711 q 505 744 516 778 q 528 812 528 869 l 528 869 q 528 890 527 909 q 525 928 517 970 l 517 970 z "},"Ļ":{"ha":765,"x_min":65,"x_max":726,"o":"m 65 926 l 421 926 l 421 881 q 397 874 382 866 q 368 859 360 845 q 353 831 350 810 q 348 789 348 756 l 348 756 l 348 81 l 479 81 q 519 81 543 93 q 566 105 584 131 q 601 156 613 197 q 626 238 633 274 l 633 274 l 726 274 l 711 0 l 65 0 l 65 45 q 90 52 105 60 q 119 68 126 82 q 134 96 136 117 q 138 138 138 171 l 138 171 l 138 755 q 138 787 136 808 q 134 830 127 844 q 120 857 105 866 q 91 874 65 881 l 65 881 l 65 926 z m 336 -69 l 471 -69 q 482 -98 482 -134 l 482 -134 q 482 -203 420 -244 q 358 -286 245 -292 l 245 -292 l 235 -227 q 277 -220 299 -210 q 321 -200 331 -182 q 341 -163 341 -132 l 341 -132 q 341 -101 336 -69 l 336 -69 z "},"Ł":{"ha":772,"x_min":14,"x_max":733,"o":"m 355 491 l 355 81 l 486 81 q 526 81 549 93 q 573 105 590 131 q 608 156 620 197 q 633 238 640 274 l 640 274 l 733 274 l 718 0 l 72 0 l 72 45 q 97 52 112 60 q 126 68 133 82 q 140 96 142 117 q 144 138 144 171 l 144 171 l 144 374 l 55 313 l 14 383 l 144 464 l 144 755 q 144 787 143 808 q 141 830 134 844 q 127 857 112 866 q 98 874 72 881 l 72 881 l 72 926 l 428 926 l 428 881 q 404 874 389 866 q 375 859 367 845 q 359 831 357 810 q 355 789 355 756 l 355 756 l 355 581 l 565 720 l 606 650 l 355 491 z "},"Ŀ":{"ha":932,"x_min":65,"x_max":916,"o":"m 65 926 l 421 926 l 421 881 q 397 874 382 866 q 368 859 360 845 q 353 831 350 810 q 348 789 348 756 l 348 756 l 348 81 l 479 81 q 519 81 543 93 q 566 105 584 131 q 601 156 613 197 q 626 238 633 274 l 633 274 l 726 274 l 711 0 l 65 0 l 65 45 q 90 52 105 60 q 119 68 126 82 q 134 96 136 117 q 138 138 138 171 l 138 171 l 138 755 q 138 787 136 808 q 134 830 127 844 q 120 857 105 866 q 91 874 65 881 l 65 881 l 65 926 z m 743 554 l 916 554 l 916 388 l 743 388 l 743 554 z "},"Ń":{"ha":943,"x_min":63,"x_max":887,"o":"m 631 926 l 887 926 l 887 881 q 860 872 849 866 q 838 860 830 850 q 822 840 818 819 q 814 798 814 755 l 814 755 l 814 0 l 642 0 l 336 528 q 275 635 245 696 l 245 696 l 239 696 q 246 550 246 388 l 246 388 l 246 170 q 246 119 251 98 q 256 78 270 66 q 283 54 319 45 l 319 45 l 319 0 l 63 0 l 63 45 q 88 52 103 60 q 117 68 124 82 q 132 96 134 117 q 136 138 136 170 l 136 170 l 136 756 q 136 807 131 826 q 127 846 113 859 q 99 871 63 881 l 63 881 l 63 926 l 338 926 l 578 509 q 600 469 636 402 q 672 335 700 275 l 700 275 l 711 275 q 703 437 703 629 l 703 629 l 703 755 q 703 800 700 819 q 696 839 689 849 q 682 859 670 866 q 659 873 631 881 l 631 881 l 631 926 z m 540 1219 l 694 1219 l 694 1175 l 418 996 l 374 1043 l 540 1219 z "},"Ň":{"ha":943,"x_min":63,"x_max":887,"o":"m 631 926 l 887 926 l 887 881 q 860 872 849 866 q 838 860 830 850 q 822 840 818 819 q 814 798 814 755 l 814 755 l 814 0 l 642 0 l 336 528 q 275 635 245 696 l 245 696 l 239 696 q 246 550 246 388 l 246 388 l 246 170 q 246 119 251 98 q 256 78 270 66 q 283 54 319 45 l 319 45 l 319 0 l 63 0 l 63 45 q 88 52 103 60 q 117 68 124 82 q 132 96 134 117 q 136 138 136 170 l 136 170 l 136 756 q 136 807 131 826 q 127 846 113 859 q 99 871 63 881 l 63 881 l 63 926 l 338 926 l 578 509 q 600 469 636 402 q 672 335 700 275 l 700 275 l 711 275 q 703 437 703 629 l 703 629 l 703 755 q 703 800 700 819 q 696 839 689 849 q 682 859 670 866 q 659 873 631 881 l 631 881 l 631 926 z m 550 1000 l 432 1000 l 279 1170 l 327 1215 l 488 1102 l 496 1102 l 659 1215 l 705 1170 l 550 1000 z "},"Ñ":{"ha":943,"x_min":63,"x_max":887,"o":"m 631 926 l 887 926 l 887 881 q 860 872 849 866 q 838 860 830 850 q 822 840 818 819 q 814 798 814 755 l 814 755 l 814 0 l 642 0 l 336 528 q 275 635 245 696 l 245 696 l 239 696 q 246 550 246 388 l 246 388 l 246 170 q 246 119 251 98 q 256 78 270 66 q 283 54 319 45 l 319 45 l 319 0 l 63 0 l 63 45 q 88 52 103 60 q 117 68 124 82 q 132 96 134 117 q 136 138 136 170 l 136 170 l 136 756 q 136 807 131 826 q 127 846 113 859 q 99 871 63 881 l 63 881 l 63 926 l 338 926 l 578 509 q 600 469 636 402 q 672 335 700 275 l 700 275 l 711 275 q 703 437 703 629 l 703 629 l 703 755 q 703 800 700 819 q 696 839 689 849 q 682 859 670 866 q 659 873 631 881 l 631 881 l 631 926 z m 667 1185 l 667 1185 l 731 1157 q 692 1077 656 1039 q 621 1000 583 1000 l 583 1000 q 557 1000 537 1007 q 516 1015 477 1041 l 477 1041 q 456 1056 444 1062 q 433 1069 421 1072 q 410 1076 399 1076 l 399 1076 q 383 1076 371 1070 q 359 1064 346 1047 q 332 1031 316 1000 l 316 1000 l 253 1028 q 285 1090 306 1120 q 328 1151 351 1168 q 375 1185 404 1185 l 404 1185 q 420 1185 435 1181 q 450 1178 463 1171 q 477 1164 502 1147 l 502 1147 q 527 1130 539 1123 q 551 1116 562 1113 q 573 1109 588 1109 l 588 1109 q 612 1109 630 1127 q 648 1145 667 1185 z "},"Ņ":{"ha":943,"x_min":63,"x_max":887,"o":"m 631 926 l 887 926 l 887 881 q 860 872 849 866 q 838 860 830 850 q 822 840 818 819 q 814 798 814 755 l 814 755 l 814 0 l 642 0 l 336 528 q 275 635 245 696 l 245 696 l 239 696 q 246 550 246 388 l 246 388 l 246 170 q 246 119 251 98 q 256 78 270 66 q 283 54 319 45 l 319 45 l 319 0 l 63 0 l 63 45 q 88 52 103 60 q 117 68 124 82 q 132 96 134 117 q 136 138 136 170 l 136 170 l 136 756 q 136 807 131 826 q 127 846 113 859 q 99 871 63 881 l 63 881 l 63 926 l 338 926 l 578 509 q 600 469 636 402 q 672 335 700 275 l 700 275 l 711 275 q 703 437 703 629 l 703 629 l 703 755 q 703 800 700 819 q 696 839 689 849 q 682 859 670 866 q 659 873 631 881 l 631 881 l 631 926 z m 406 -69 l 541 -69 q 553 -98 553 -134 l 553 -134 q 553 -203 491 -244 q 429 -286 316 -292 l 316 -292 l 305 -227 q 348 -220 370 -210 q 391 -200 401 -182 q 412 -163 412 -132 l 412 -132 q 412 -101 406 -69 l 406 -69 z "},"Ò":{"ha":966,"x_min":72,"x_max":894,"o":"m 471 -11 l 471 -11 q 272 -11 172 106 q 72 222 72 455 l 72 455 q 72 608 120 716 q 169 824 263 880 q 357 937 488 937 l 488 937 q 690 937 792 820 q 894 704 894 475 l 894 475 q 894 347 864 255 q 833 163 778 104 q 722 45 645 17 q 567 -11 471 -11 z m 288 473 l 288 473 q 288 269 337 169 q 386 68 487 68 l 487 68 q 539 68 576 97 q 612 125 635 175 q 658 226 668 295 q 677 364 677 447 l 677 447 q 677 582 656 673 q 635 764 592 811 q 549 857 481 857 l 481 857 q 383 857 335 763 q 288 669 288 473 z m 281 1219 l 445 1219 l 601 1043 l 557 996 l 281 1175 l 281 1219 z "},"Ó":{"ha":966,"x_min":72,"x_max":894,"o":"m 471 -11 l 471 -11 q 272 -11 172 106 q 72 222 72 455 l 72 455 q 72 608 120 716 q 169 824 263 880 q 357 937 488 937 l 488 937 q 690 937 792 820 q 894 704 894 475 l 894 475 q 894 347 864 255 q 833 163 778 104 q 722 45 645 17 q 567 -11 471 -11 z m 288 473 l 288 473 q 288 269 337 169 q 386 68 487 68 l 487 68 q 539 68 576 97 q 612 125 635 175 q 658 226 668 295 q 677 364 677 447 l 677 447 q 677 582 656 673 q 635 764 592 811 q 549 857 481 857 l 481 857 q 383 857 335 763 q 288 669 288 473 z m 530 1219 l 684 1219 l 684 1175 l 409 996 l 365 1043 l 530 1219 z "},"Ô":{"ha":966,"x_min":72,"x_max":894,"o":"m 471 -11 l 471 -11 q 272 -11 172 106 q 72 222 72 455 l 72 455 q 72 608 120 716 q 169 824 263 880 q 357 937 488 937 l 488 937 q 690 937 792 820 q 894 704 894 475 l 894 475 q 894 347 864 255 q 833 163 778 104 q 722 45 645 17 q 567 -11 471 -11 z m 288 473 l 288 473 q 288 269 337 169 q 386 68 487 68 l 487 68 q 539 68 576 97 q 612 125 635 175 q 658 226 668 295 q 677 364 677 447 l 677 447 q 677 582 656 673 q 635 764 592 811 q 549 857 481 857 l 481 857 q 383 857 335 763 q 288 669 288 473 z m 425 1211 l 543 1211 l 696 1040 l 648 995 l 486 1108 l 479 1108 l 316 995 l 269 1040 l 425 1211 z "},"Õ":{"ha":966,"x_min":72,"x_max":894,"o":"m 471 -11 l 471 -11 q 272 -11 172 106 q 72 222 72 455 l 72 455 q 72 608 120 716 q 169 824 263 880 q 357 937 488 937 l 488 937 q 690 937 792 820 q 894 704 894 475 l 894 475 q 894 347 864 255 q 833 163 778 104 q 722 45 645 17 q 567 -11 471 -11 z m 288 473 l 288 473 q 288 269 337 169 q 386 68 487 68 l 487 68 q 539 68 576 97 q 612 125 635 175 q 658 226 668 295 q 677 364 677 447 l 677 447 q 677 582 656 673 q 635 764 592 811 q 549 857 481 857 l 481 857 q 383 857 335 763 q 288 669 288 473 z m 659 1185 l 659 1185 l 722 1157 q 684 1077 648 1039 q 612 1000 574 1000 l 574 1000 q 549 1000 528 1007 q 507 1015 469 1041 l 469 1041 q 447 1056 435 1062 q 424 1069 413 1072 q 401 1076 390 1076 l 390 1076 q 374 1076 362 1070 q 351 1064 337 1047 q 323 1031 307 1000 l 307 1000 l 244 1028 q 276 1090 297 1120 q 319 1151 342 1168 q 366 1185 395 1185 l 395 1185 q 412 1185 426 1181 q 441 1178 454 1171 q 468 1164 493 1147 l 493 1147 q 518 1130 530 1123 q 542 1116 553 1113 q 564 1109 579 1109 l 579 1109 q 603 1109 621 1127 q 639 1145 659 1185 z "},"Ö":{"ha":966,"x_min":72,"x_max":894,"o":"m 471 -11 l 471 -11 q 272 -11 172 106 q 72 222 72 455 l 72 455 q 72 608 120 716 q 169 824 263 880 q 357 937 488 937 l 488 937 q 690 937 792 820 q 894 704 894 475 l 894 475 q 894 347 864 255 q 833 163 778 104 q 722 45 645 17 q 567 -11 471 -11 z m 288 473 l 288 473 q 288 269 337 169 q 386 68 487 68 l 487 68 q 539 68 576 97 q 612 125 635 175 q 658 226 668 295 q 677 364 677 447 l 677 447 q 677 582 656 673 q 635 764 592 811 q 549 857 481 857 l 481 857 q 383 857 335 763 q 288 669 288 473 z m 281 1167 l 423 1167 l 423 1018 l 281 1018 l 281 1167 z m 543 1167 l 685 1167 l 685 1018 l 543 1018 l 543 1167 z "},"Ō":{"ha":966,"x_min":72,"x_max":894,"o":"m 471 -11 l 471 -11 q 272 -11 172 106 q 72 222 72 455 l 72 455 q 72 608 120 716 q 169 824 263 880 q 357 937 488 937 l 488 937 q 690 937 792 820 q 894 704 894 475 l 894 475 q 894 347 864 255 q 833 163 778 104 q 722 45 645 17 q 567 -11 471 -11 z m 288 473 l 288 473 q 288 269 337 169 q 386 68 487 68 l 487 68 q 539 68 576 97 q 612 125 635 175 q 658 226 668 295 q 677 364 677 447 l 677 447 q 677 582 656 673 q 635 764 592 811 q 549 857 481 857 l 481 857 q 383 857 335 763 q 288 669 288 473 z m 684 1142 l 684 1038 l 281 1038 l 281 1142 l 684 1142 z "},"Ŏ":{"ha":966,"x_min":72,"x_max":894,"o":"m 471 -11 l 471 -11 q 272 -11 172 106 q 72 222 72 455 l 72 455 q 72 608 120 716 q 169 824 263 880 q 357 937 488 937 l 488 937 q 690 937 792 820 q 894 704 894 475 l 894 475 q 894 347 864 255 q 833 163 778 104 q 722 45 645 17 q 567 -11 471 -11 z m 288 473 l 288 473 q 288 269 337 169 q 386 68 487 68 l 487 68 q 539 68 576 97 q 612 125 635 175 q 658 226 668 295 q 677 364 677 447 l 677 447 q 677 582 656 673 q 635 764 592 811 q 549 857 481 857 l 481 857 q 383 857 335 763 q 288 669 288 473 z m 639 1215 l 705 1194 q 681 1100 626 1052 q 571 1004 477 1004 l 477 1004 q 392 1004 337 1053 q 281 1101 261 1194 l 261 1194 l 327 1215 q 350 1162 385 1137 q 420 1112 480 1112 l 480 1112 q 544 1112 581 1138 q 618 1164 639 1215 l 639 1215 z "},"Ő":{"ha":966,"x_min":72,"x_max":894,"o":"m 471 -11 l 471 -11 q 272 -11 172 106 q 72 222 72 455 l 72 455 q 72 608 120 716 q 169 824 263 880 q 357 937 488 937 l 488 937 q 690 937 792 820 q 894 704 894 475 l 894 475 q 894 347 864 255 q 833 163 778 104 q 722 45 645 17 q 567 -11 471 -11 z m 288 473 l 288 473 q 288 269 337 169 q 386 68 487 68 l 487 68 q 539 68 576 97 q 612 125 635 175 q 658 226 668 295 q 677 364 677 447 l 677 447 q 677 582 656 673 q 635 764 592 811 q 549 857 481 857 l 481 857 q 383 857 335 763 q 288 669 288 473 z m 425 1219 l 547 1219 l 547 1175 l 309 996 l 264 1043 l 425 1219 z m 665 1219 l 785 1219 l 785 1175 l 526 996 l 482 1043 l 665 1219 z "},"Ø":{"ha":966,"x_min":72,"x_max":894,"o":"m 195 -92 l 94 -92 l 197 79 q 72 195 72 455 l 72 455 q 72 608 120 716 q 169 824 263 880 q 357 937 488 937 l 488 937 q 610 937 695 894 l 695 894 l 770 1017 l 873 1017 l 768 845 q 894 729 894 475 l 894 475 q 894 347 864 255 q 833 163 778 104 q 722 45 645 17 q 567 -11 471 -11 l 471 -11 q 353 -11 270 30 l 270 30 l 195 -92 z m 304 250 l 304 250 l 621 773 q 572 857 481 857 l 481 857 q 381 857 333 763 q 284 668 284 473 l 284 473 q 284 341 304 250 z m 660 672 l 660 672 l 344 151 q 393 68 487 68 l 487 68 q 540 68 577 97 q 614 125 637 175 q 661 226 671 295 q 681 364 681 447 l 681 447 q 681 580 660 672 z "},"Ǿ":{"ha":966,"x_min":72,"x_max":894,"o":"m 195 -92 l 94 -92 l 197 79 q 72 195 72 455 l 72 455 q 72 608 120 716 q 169 824 263 880 q 357 937 488 937 l 488 937 q 610 937 695 894 l 695 894 l 770 1017 l 873 1017 l 768 845 q 894 729 894 475 l 894 475 q 894 347 864 255 q 833 163 778 104 q 722 45 645 17 q 567 -11 471 -11 l 471 -11 q 353 -11 270 30 l 270 30 l 195 -92 z m 304 250 l 304 250 l 621 773 q 572 857 481 857 l 481 857 q 381 857 333 763 q 284 668 284 473 l 284 473 q 284 341 304 250 z m 660 672 l 660 672 l 344 151 q 393 68 487 68 l 487 68 q 540 68 577 97 q 614 125 637 175 q 661 226 671 295 q 681 364 681 447 l 681 447 q 681 580 660 672 z m 530 1219 l 684 1219 l 684 1175 l 409 996 l 365 1043 l 530 1219 z "},"Œ":{"ha":1322,"x_min":72,"x_max":1265,"o":"m 720 926 l 1258 926 l 1258 710 l 1165 710 q 1143 774 1127 797 q 1112 820 1090 833 q 1068 846 1016 846 l 1016 846 l 871 846 l 871 521 l 958 521 q 987 521 1004 529 q 1021 538 1033 557 q 1044 577 1054 618 l 1054 618 l 1131 618 l 1131 343 l 1054 343 q 1044 382 1033 403 q 1021 424 1005 433 q 989 441 958 441 l 958 441 l 871 441 l 871 79 l 1015 79 q 1039 79 1055 82 q 1072 85 1084 93 q 1097 100 1109 113 q 1121 126 1130 141 q 1139 156 1149 180 q 1160 205 1172 248 l 1172 248 l 1265 248 l 1252 0 l 720 0 l 720 91 l 713 91 q 662 39 602 14 q 541 -11 467 -11 l 467 -11 q 332 -11 245 42 q 157 96 115 199 q 72 302 72 455 l 72 455 q 72 608 119 715 q 167 823 260 880 q 353 937 483 937 l 483 937 q 557 937 612 915 q 668 894 713 848 l 713 848 l 720 848 l 720 926 z m 288 473 l 288 473 q 288 267 335 168 q 383 68 482 68 l 482 68 q 533 68 569 96 q 604 124 626 174 q 648 224 658 294 q 668 363 668 447 l 668 447 q 668 652 621 754 q 574 857 477 857 l 477 857 q 380 857 334 763 q 288 669 288 473 z "},"Ŕ":{"ha":919,"x_min":65,"x_max":921,"o":"m 421 45 l 421 0 l 65 0 l 65 45 q 90 52 105 59 q 119 67 126 81 q 134 95 136 116 q 138 138 138 170 l 138 170 l 138 755 q 138 787 136 808 q 134 830 127 844 q 120 857 105 866 q 91 874 65 881 l 65 881 l 65 926 l 460 926 q 541 926 596 915 q 652 903 694 880 l 694 880 q 730 861 754 832 q 779 804 792 765 q 805 727 805 676 l 805 676 q 805 610 782 562 q 758 515 719 483 q 679 452 612 424 l 612 424 l 612 417 q 663 395 695 359 q 728 323 755 267 l 755 267 l 798 175 q 826 113 854 82 q 882 52 921 45 l 921 45 l 921 0 l 660 0 q 621 54 571 161 l 571 161 l 518 277 q 494 329 477 351 q 460 372 443 380 q 425 389 387 389 l 387 389 l 348 389 l 348 170 q 348 119 353 99 q 357 79 371 66 q 385 54 421 45 l 421 45 z m 348 845 l 348 845 l 348 468 l 415 468 q 469 468 505 483 q 540 497 561 523 q 581 549 589 585 q 597 620 597 662 l 597 662 q 597 754 553 800 q 510 846 425 846 l 425 846 q 366 846 348 845 z m 511 1219 l 665 1219 l 665 1175 l 389 996 l 345 1043 l 511 1219 z "},"Ř":{"ha":919,"x_min":65,"x_max":921,"o":"m 421 45 l 421 0 l 65 0 l 65 45 q 90 52 105 59 q 119 67 126 81 q 134 95 136 116 q 138 138 138 170 l 138 170 l 138 755 q 138 787 136 808 q 134 830 127 844 q 120 857 105 866 q 91 874 65 881 l 65 881 l 65 926 l 460 926 q 541 926 596 915 q 652 903 694 880 l 694 880 q 730 861 754 832 q 779 804 792 765 q 805 727 805 676 l 805 676 q 805 610 782 562 q 758 515 719 483 q 679 452 612 424 l 612 424 l 612 417 q 663 395 695 359 q 728 323 755 267 l 755 267 l 798 175 q 826 113 854 82 q 882 52 921 45 l 921 45 l 921 0 l 660 0 q 621 54 571 161 l 571 161 l 518 277 q 494 329 477 351 q 460 372 443 380 q 425 389 387 389 l 387 389 l 348 389 l 348 170 q 348 119 353 99 q 357 79 371 66 q 385 54 421 45 l 421 45 z m 348 845 l 348 845 l 348 468 l 415 468 q 469 468 505 483 q 540 497 561 523 q 581 549 589 585 q 597 620 597 662 l 597 662 q 597 754 553 800 q 510 846 425 846 l 425 846 q 366 846 348 845 z m 521 1000 l 403 1000 l 250 1170 l 298 1215 l 459 1102 l 467 1102 l 629 1215 l 676 1170 l 521 1000 z "},"Ŗ":{"ha":919,"x_min":65,"x_max":921,"o":"m 421 45 l 421 0 l 65 0 l 65 45 q 90 52 105 59 q 119 67 126 81 q 134 95 136 116 q 138 138 138 170 l 138 170 l 138 755 q 138 787 136 808 q 134 830 127 844 q 120 857 105 866 q 91 874 65 881 l 65 881 l 65 926 l 460 926 q 541 926 596 915 q 652 903 694 880 l 694 880 q 730 861 754 832 q 779 804 792 765 q 805 727 805 676 l 805 676 q 805 610 782 562 q 758 515 719 483 q 679 452 612 424 l 612 424 l 612 417 q 663 395 695 359 q 728 323 755 267 l 755 267 l 798 175 q 826 113 854 82 q 882 52 921 45 l 921 45 l 921 0 l 660 0 q 621 54 571 161 l 571 161 l 518 277 q 494 329 477 351 q 460 372 443 380 q 425 389 387 389 l 387 389 l 348 389 l 348 170 q 348 119 353 99 q 357 79 371 66 q 385 54 421 45 l 421 45 z m 348 845 l 348 845 l 348 468 l 415 468 q 469 468 505 483 q 540 497 561 523 q 581 549 589 585 q 597 620 597 662 l 597 662 q 597 754 553 800 q 510 846 425 846 l 425 846 q 366 846 348 845 z m 416 -69 l 551 -69 q 563 -98 563 -134 l 563 -134 q 563 -203 501 -244 q 439 -286 326 -292 l 326 -292 l 315 -227 q 358 -220 380 -210 q 401 -200 412 -182 q 422 -163 422 -132 l 422 -132 q 422 -101 416 -69 l 416 -69 z "},"Ś":{"ha":713,"x_min":57,"x_max":664,"o":"m 57 229 l 150 229 q 167 148 207 108 q 246 68 323 68 l 323 68 q 363 68 395 82 q 427 96 446 126 q 465 156 465 201 l 465 201 q 465 243 450 274 q 434 305 399 333 q 365 361 303 392 l 303 392 q 250 418 208 447 q 165 475 135 510 q 104 544 88 585 q 71 625 71 676 l 71 676 q 71 760 113 818 q 154 876 232 906 q 311 937 414 937 l 414 937 q 474 937 529 930 q 584 924 654 907 l 654 907 l 654 711 l 562 711 q 549 764 529 796 q 509 827 479 842 q 449 857 404 857 l 404 857 q 365 857 334 844 q 304 830 286 803 q 269 777 269 739 l 269 739 q 269 699 284 670 q 299 642 335 614 q 371 587 439 551 l 439 551 q 523 508 571 466 q 618 425 641 375 q 664 326 664 261 l 664 261 q 664 178 625 116 q 587 55 513 22 q 439 -11 342 -11 l 342 -11 q 273 -11 198 -3 q 123 5 57 20 l 57 20 l 57 229 z m 411 1219 l 565 1219 l 565 1175 l 290 996 l 245 1043 l 411 1219 z "},"Ŝ":{"ha":713,"x_min":57,"x_max":664,"o":"m 57 229 l 150 229 q 167 148 207 108 q 246 68 323 68 l 323 68 q 363 68 395 82 q 427 96 446 126 q 465 156 465 201 l 465 201 q 465 243 450 274 q 434 305 399 333 q 365 361 303 392 l 303 392 q 250 418 208 447 q 165 475 135 510 q 104 544 88 585 q 71 625 71 676 l 71 676 q 71 760 113 818 q 154 876 232 906 q 311 937 414 937 l 414 937 q 474 937 529 930 q 584 924 654 907 l 654 907 l 654 711 l 562 711 q 549 764 529 796 q 509 827 479 842 q 449 857 404 857 l 404 857 q 365 857 334 844 q 304 830 286 803 q 269 777 269 739 l 269 739 q 269 699 284 670 q 299 642 335 614 q 371 587 439 551 l 439 551 q 523 508 571 466 q 618 425 641 375 q 664 326 664 261 l 664 261 q 664 178 625 116 q 587 55 513 22 q 439 -11 342 -11 l 342 -11 q 273 -11 198 -3 q 123 5 57 20 l 57 20 l 57 229 z m 305 1211 l 423 1211 l 576 1040 l 528 995 l 367 1108 l 359 1108 l 197 995 l 150 1040 l 305 1211 z "},"Š":{"ha":713,"x_min":57,"x_max":664,"o":"m 57 229 l 150 229 q 167 148 207 108 q 246 68 323 68 l 323 68 q 363 68 395 82 q 427 96 446 126 q 465 156 465 201 l 465 201 q 465 243 450 274 q 434 305 399 333 q 365 361 303 392 l 303 392 q 250 418 208 447 q 165 475 135 510 q 104 544 88 585 q 71 625 71 676 l 71 676 q 71 760 113 818 q 154 876 232 906 q 311 937 414 937 l 414 937 q 474 937 529 930 q 584 924 654 907 l 654 907 l 654 711 l 562 711 q 549 764 529 796 q 509 827 479 842 q 449 857 404 857 l 404 857 q 365 857 334 844 q 304 830 286 803 q 269 777 269 739 l 269 739 q 269 699 284 670 q 299 642 335 614 q 371 587 439 551 l 439 551 q 523 508 571 466 q 618 425 641 375 q 664 326 664 261 l 664 261 q 664 178 625 116 q 587 55 513 22 q 439 -11 342 -11 l 342 -11 q 273 -11 198 -3 q 123 5 57 20 l 57 20 l 57 229 z m 421 1000 l 303 1000 l 150 1170 l 198 1215 l 359 1102 l 367 1102 l 530 1215 l 576 1170 l 421 1000 z "},"Ş":{"ha":713,"x_min":57,"x_max":664,"o":"m 57 229 l 150 229 q 167 148 207 108 q 246 68 323 68 l 323 68 q 363 68 395 82 q 427 96 446 126 q 465 156 465 201 l 465 201 q 465 243 450 274 q 434 305 399 333 q 365 361 303 392 l 303 392 q 250 418 208 447 q 165 475 135 510 q 104 544 88 585 q 71 625 71 676 l 71 676 q 71 760 113 818 q 154 876 232 906 q 311 937 414 937 l 414 937 q 474 937 529 930 q 584 924 654 907 l 654 907 l 654 711 l 562 711 q 549 764 529 796 q 509 827 479 842 q 449 857 404 857 l 404 857 q 365 857 334 844 q 304 830 286 803 q 269 777 269 739 l 269 739 q 269 699 284 670 q 299 642 335 614 q 371 587 439 551 l 439 551 q 523 508 571 466 q 618 425 641 375 q 664 326 664 261 l 664 261 q 664 168 616 103 q 568 39 478 9 l 478 9 l 399 -46 q 410 -62 416 -84 q 422 -107 422 -134 l 422 -134 q 422 -203 360 -244 q 298 -286 185 -292 l 185 -292 l 174 -227 q 230 -219 255 -200 q 281 -181 281 -141 l 281 -141 q 281 -116 277 -98 l 277 -98 l 277 -69 l 368 -9 q 355 -11 342 -11 l 342 -11 q 273 -11 198 -3 q 123 5 57 20 l 57 20 l 57 229 z "},"Ș":{"ha":713,"x_min":57,"x_max":664,"o":"m 57 229 l 150 229 q 167 148 207 108 q 246 68 323 68 l 323 68 q 363 68 395 82 q 427 96 446 126 q 465 156 465 201 l 465 201 q 465 243 450 274 q 434 305 399 333 q 365 361 303 392 l 303 392 q 250 418 208 447 q 165 475 135 510 q 104 544 88 585 q 71 625 71 676 l 71 676 q 71 760 113 818 q 154 876 232 906 q 311 937 414 937 l 414 937 q 474 937 529 930 q 584 924 654 907 l 654 907 l 654 711 l 562 711 q 549 764 529 796 q 509 827 479 842 q 449 857 404 857 l 404 857 q 365 857 334 844 q 304 830 286 803 q 269 777 269 739 l 269 739 q 269 699 284 670 q 299 642 335 614 q 371 587 439 551 l 439 551 q 523 508 571 466 q 618 425 641 375 q 664 326 664 261 l 664 261 q 664 178 625 116 q 587 55 513 22 q 439 -11 342 -11 l 342 -11 q 273 -11 198 -3 q 123 5 57 20 l 57 20 l 57 229 z m 307 -69 l 441 -69 q 453 -98 453 -134 l 453 -134 q 453 -203 391 -244 q 329 -286 216 -292 l 216 -292 l 205 -227 q 248 -220 270 -210 q 292 -200 302 -182 q 312 -163 312 -132 l 312 -132 q 312 -101 307 -69 l 307 -69 z "},"Ť":{"ha":888,"x_min":45,"x_max":843,"o":"m 631 0 l 257 0 l 257 45 q 286 50 302 57 q 319 65 327 79 q 335 94 337 116 q 339 138 339 170 l 339 170 l 339 846 l 284 846 q 243 846 222 837 q 200 827 184 807 q 168 787 157 752 q 145 718 138 688 l 138 688 l 45 688 l 45 926 l 843 926 l 843 688 l 750 688 q 737 734 730 755 q 722 777 713 792 q 704 808 694 818 q 684 828 672 834 q 661 840 643 843 q 626 846 598 846 l 598 846 l 549 846 l 549 170 q 549 134 551 116 q 553 97 559 85 q 564 74 572 67 q 580 60 594 54 q 608 48 631 45 l 631 45 l 631 0 z m 502 1000 l 384 1000 l 231 1170 l 279 1215 l 440 1102 l 448 1102 l 610 1215 l 657 1170 l 502 1000 z "},"Ț":{"ha":888,"x_min":45,"x_max":843,"o":"m 631 0 l 257 0 l 257 45 q 286 50 302 57 q 319 65 327 79 q 335 94 337 116 q 339 138 339 170 l 339 170 l 339 846 l 284 846 q 243 846 222 837 q 200 827 184 807 q 168 787 157 752 q 145 718 138 688 l 138 688 l 45 688 l 45 926 l 843 926 l 843 688 l 750 688 q 737 734 730 755 q 722 777 713 792 q 704 808 694 818 q 684 828 672 834 q 661 840 643 843 q 626 846 598 846 l 598 846 l 549 846 l 549 170 q 549 134 551 116 q 553 97 559 85 q 564 74 572 67 q 580 60 594 54 q 608 48 631 45 l 631 45 l 631 0 z m 382 -69 l 517 -69 q 528 -98 528 -134 l 528 -134 q 528 -203 466 -244 q 404 -286 292 -292 l 292 -292 l 281 -227 q 323 -220 345 -210 q 367 -200 377 -182 q 387 -163 387 -132 l 387 -132 q 387 -101 382 -69 l 382 -69 z "},"Ŧ":{"ha":888,"x_min":45,"x_max":843,"o":"m 713 496 l 713 411 l 549 411 l 549 170 q 549 134 551 116 q 553 97 559 85 q 564 74 572 67 q 580 60 594 54 q 608 48 631 45 l 631 45 l 631 0 l 257 0 l 257 45 q 286 50 302 57 q 319 65 327 79 q 335 94 337 116 q 339 138 339 170 l 339 170 l 339 411 l 175 411 l 175 496 l 339 496 l 339 846 l 284 846 q 243 846 222 837 q 200 827 184 807 q 168 787 157 752 q 145 718 138 688 l 138 688 l 45 688 l 45 926 l 843 926 l 843 688 l 750 688 q 737 734 730 755 q 722 777 713 792 q 704 808 694 818 q 684 828 672 834 q 661 840 643 843 q 626 846 598 846 l 598 846 l 549 846 l 549 496 l 713 496 z "},"Ù":{"ha":939,"x_min":52,"x_max":889,"o":"m 663 323 l 663 755 q 663 806 658 826 q 654 846 641 859 q 628 871 591 881 l 591 881 l 591 926 l 889 926 l 889 881 q 865 874 850 866 q 836 859 829 845 q 821 831 819 809 q 817 788 817 755 l 817 755 l 817 332 q 817 248 804 191 q 790 134 762 96 q 733 57 691 33 q 648 9 595 -1 q 543 -11 477 -11 l 477 -11 q 380 -11 314 9 q 248 29 206 70 q 164 110 144 168 q 124 225 124 316 l 124 316 l 124 755 q 124 787 122 808 q 121 830 114 844 q 106 857 92 866 q 77 874 52 881 l 52 881 l 52 926 l 408 926 l 408 881 q 380 873 367 865 q 353 857 347 844 q 340 832 337 812 q 334 793 334 755 l 334 755 l 334 307 q 334 254 341 210 q 348 165 366 134 q 384 102 416 85 q 448 68 498 68 l 498 68 q 567 68 601 96 q 635 124 649 174 q 663 224 663 323 l 663 323 z m 264 1219 l 428 1219 l 584 1043 l 540 996 l 264 1175 l 264 1219 z "},"Ú":{"ha":939,"x_min":52,"x_max":889,"o":"m 663 323 l 663 755 q 663 806 658 826 q 654 846 641 859 q 628 871 591 881 l 591 881 l 591 926 l 889 926 l 889 881 q 865 874 850 866 q 836 859 829 845 q 821 831 819 809 q 817 788 817 755 l 817 755 l 817 332 q 817 248 804 191 q 790 134 762 96 q 733 57 691 33 q 648 9 595 -1 q 543 -11 477 -11 l 477 -11 q 380 -11 314 9 q 248 29 206 70 q 164 110 144 168 q 124 225 124 316 l 124 316 l 124 755 q 124 787 122 808 q 121 830 114 844 q 106 857 92 866 q 77 874 52 881 l 52 881 l 52 926 l 408 926 l 408 881 q 380 873 367 865 q 353 857 347 844 q 340 832 337 812 q 334 793 334 755 l 334 755 l 334 307 q 334 254 341 210 q 348 165 366 134 q 384 102 416 85 q 448 68 498 68 l 498 68 q 567 68 601 96 q 635 124 649 174 q 663 224 663 323 l 663 323 z m 565 1219 l 719 1219 l 719 1175 l 444 996 l 399 1043 l 565 1219 z "},"Û":{"ha":939,"x_min":52,"x_max":889,"o":"m 663 323 l 663 755 q 663 806 658 826 q 654 846 641 859 q 628 871 591 881 l 591 881 l 591 926 l 889 926 l 889 881 q 865 874 850 866 q 836 859 829 845 q 821 831 819 809 q 817 788 817 755 l 817 755 l 817 332 q 817 248 804 191 q 790 134 762 96 q 733 57 691 33 q 648 9 595 -1 q 543 -11 477 -11 l 477 -11 q 380 -11 314 9 q 248 29 206 70 q 164 110 144 168 q 124 225 124 316 l 124 316 l 124 755 q 124 787 122 808 q 121 830 114 844 q 106 857 92 866 q 77 874 52 881 l 52 881 l 52 926 l 408 926 l 408 881 q 380 873 367 865 q 353 857 347 844 q 340 832 337 812 q 334 793 334 755 l 334 755 l 334 307 q 334 254 341 210 q 348 165 366 134 q 384 102 416 85 q 448 68 498 68 l 498 68 q 567 68 601 96 q 635 124 649 174 q 663 224 663 323 l 663 323 z m 432 1211 l 550 1211 l 703 1040 l 655 995 l 494 1108 l 486 1108 l 323 995 l 277 1040 l 432 1211 z "},"Ũ":{"ha":939,"x_min":52,"x_max":889,"o":"m 663 323 l 663 755 q 663 806 658 826 q 654 846 641 859 q 628 871 591 881 l 591 881 l 591 926 l 889 926 l 889 881 q 865 874 850 866 q 836 859 829 845 q 821 831 819 809 q 817 788 817 755 l 817 755 l 817 332 q 817 248 804 191 q 790 134 762 96 q 733 57 691 33 q 648 9 595 -1 q 543 -11 477 -11 l 477 -11 q 380 -11 314 9 q 248 29 206 70 q 164 110 144 168 q 124 225 124 316 l 124 316 l 124 755 q 124 787 122 808 q 121 830 114 844 q 106 857 92 866 q 77 874 52 881 l 52 881 l 52 926 l 408 926 l 408 881 q 380 873 367 865 q 353 857 347 844 q 340 832 337 812 q 334 793 334 755 l 334 755 l 334 307 q 334 254 341 210 q 348 165 366 134 q 384 102 416 85 q 448 68 498 68 l 498 68 q 567 68 601 96 q 635 124 649 174 q 663 224 663 323 l 663 323 z m 665 1185 l 665 1185 l 729 1157 q 690 1077 654 1039 q 618 1000 581 1000 l 581 1000 q 555 1000 535 1007 q 514 1015 475 1041 l 475 1041 q 454 1056 442 1062 q 431 1069 419 1072 q 408 1076 397 1076 l 397 1076 q 381 1076 369 1070 q 357 1064 343 1047 q 330 1031 314 1000 l 314 1000 l 251 1028 q 283 1090 304 1120 q 326 1151 349 1168 q 373 1185 402 1185 l 402 1185 q 418 1185 433 1181 q 448 1178 461 1171 q 475 1164 500 1147 l 500 1147 q 525 1130 537 1123 q 549 1116 560 1113 q 571 1109 586 1109 l 586 1109 q 610 1109 628 1127 q 646 1145 665 1185 z "},"Ü":{"ha":939,"x_min":52,"x_max":889,"o":"m 663 323 l 663 755 q 663 806 658 826 q 654 846 641 859 q 628 871 591 881 l 591 881 l 591 926 l 889 926 l 889 881 q 865 874 850 866 q 836 859 829 845 q 821 831 819 809 q 817 788 817 755 l 817 755 l 817 332 q 817 248 804 191 q 790 134 762 96 q 733 57 691 33 q 648 9 595 -1 q 543 -11 477 -11 l 477 -11 q 380 -11 314 9 q 248 29 206 70 q 164 110 144 168 q 124 225 124 316 l 124 316 l 124 755 q 124 787 122 808 q 121 830 114 844 q 106 857 92 866 q 77 874 52 881 l 52 881 l 52 926 l 408 926 l 408 881 q 380 873 367 865 q 353 857 347 844 q 340 832 337 812 q 334 793 334 755 l 334 755 l 334 307 q 334 254 341 210 q 348 165 366 134 q 384 102 416 85 q 448 68 498 68 l 498 68 q 567 68 601 96 q 635 124 649 174 q 663 224 663 323 l 663 323 z m 288 1167 l 430 1167 l 430 1018 l 288 1018 l 288 1167 z m 550 1167 l 692 1167 l 692 1018 l 550 1018 l 550 1167 z "},"Ū":{"ha":939,"x_min":52,"x_max":889,"o":"m 663 323 l 663 755 q 663 806 658 826 q 654 846 641 859 q 628 871 591 881 l 591 881 l 591 926 l 889 926 l 889 881 q 865 874 850 866 q 836 859 829 845 q 821 831 819 809 q 817 788 817 755 l 817 755 l 817 332 q 817 248 804 191 q 790 134 762 96 q 733 57 691 33 q 648 9 595 -1 q 543 -11 477 -11 l 477 -11 q 380 -11 314 9 q 248 29 206 70 q 164 110 144 168 q 124 225 124 316 l 124 316 l 124 755 q 124 787 122 808 q 121 830 114 844 q 106 857 92 866 q 77 874 52 881 l 52 881 l 52 926 l 408 926 l 408 881 q 380 873 367 865 q 353 857 347 844 q 340 832 337 812 q 334 793 334 755 l 334 755 l 334 307 q 334 254 341 210 q 348 165 366 134 q 384 102 416 85 q 448 68 498 68 l 498 68 q 567 68 601 96 q 635 124 649 174 q 663 224 663 323 l 663 323 z m 691 1142 l 691 1038 l 288 1038 l 288 1142 l 691 1142 z "},"Ŭ":{"ha":939,"x_min":52,"x_max":889,"o":"m 663 323 l 663 755 q 663 806 658 826 q 654 846 641 859 q 628 871 591 881 l 591 881 l 591 926 l 889 926 l 889 881 q 865 874 850 866 q 836 859 829 845 q 821 831 819 809 q 817 788 817 755 l 817 755 l 817 332 q 817 248 804 191 q 790 134 762 96 q 733 57 691 33 q 648 9 595 -1 q 543 -11 477 -11 l 477 -11 q 380 -11 314 9 q 248 29 206 70 q 164 110 144 168 q 124 225 124 316 l 124 316 l 124 755 q 124 787 122 808 q 121 830 114 844 q 106 857 92 866 q 77 874 52 881 l 52 881 l 52 926 l 408 926 l 408 881 q 380 873 367 865 q 353 857 347 844 q 340 832 337 812 q 334 793 334 755 l 334 755 l 334 307 q 334 254 341 210 q 348 165 366 134 q 384 102 416 85 q 448 68 498 68 l 498 68 q 567 68 601 96 q 635 124 649 174 q 663 224 663 323 l 663 323 z m 646 1215 l 711 1194 q 688 1100 633 1052 q 578 1004 484 1004 l 484 1004 q 399 1004 343 1053 q 288 1101 268 1194 l 268 1194 l 334 1215 q 357 1162 392 1137 q 427 1112 487 1112 l 487 1112 q 551 1112 588 1138 q 625 1164 646 1215 l 646 1215 z "},"Ů":{"ha":939,"x_min":52,"x_max":889,"o":"m 663 323 l 663 755 q 663 806 658 826 q 654 846 641 859 q 628 871 591 881 l 591 881 l 591 926 l 889 926 l 889 881 q 865 874 850 866 q 836 859 829 845 q 821 831 819 809 q 817 788 817 755 l 817 755 l 817 332 q 817 248 804 191 q 790 134 762 96 q 733 57 691 33 q 648 9 595 -1 q 543 -11 477 -11 l 477 -11 q 380 -11 314 9 q 248 29 206 70 q 164 110 144 168 q 124 225 124 316 l 124 316 l 124 755 q 124 787 122 808 q 121 830 114 844 q 106 857 92 866 q 77 874 52 881 l 52 881 l 52 926 l 408 926 l 408 881 q 380 873 367 865 q 353 857 347 844 q 340 832 337 812 q 334 793 334 755 l 334 755 l 334 307 q 334 254 341 210 q 348 165 366 134 q 384 102 416 85 q 448 68 498 68 l 498 68 q 567 68 601 96 q 635 124 649 174 q 663 224 663 323 l 663 323 z m 486 960 l 486 960 q 410 960 370 996 q 330 1031 330 1100 l 330 1100 q 330 1147 351 1180 q 372 1213 410 1229 q 448 1245 495 1245 l 495 1245 q 572 1245 611 1210 q 650 1174 650 1106 l 650 1106 q 650 1035 607 997 q 564 960 486 960 z m 411 1105 l 411 1105 q 411 1061 431 1036 q 452 1012 492 1012 l 492 1012 q 529 1012 549 1035 q 569 1057 569 1099 l 569 1099 q 569 1144 548 1168 q 527 1193 490 1193 l 490 1193 q 451 1193 431 1170 q 411 1147 411 1105 z "},"Ű":{"ha":939,"x_min":52,"x_max":889,"o":"m 663 323 l 663 755 q 663 806 658 826 q 654 846 641 859 q 628 871 591 881 l 591 881 l 591 926 l 889 926 l 889 881 q 865 874 850 866 q 836 859 829 845 q 821 831 819 809 q 817 788 817 755 l 817 755 l 817 332 q 817 248 804 191 q 790 134 762 96 q 733 57 691 33 q 648 9 595 -1 q 543 -11 477 -11 l 477 -11 q 380 -11 314 9 q 248 29 206 70 q 164 110 144 168 q 124 225 124 316 l 124 316 l 124 755 q 124 787 122 808 q 121 830 114 844 q 106 857 92 866 q 77 874 52 881 l 52 881 l 52 926 l 408 926 l 408 881 q 380 873 367 865 q 353 857 347 844 q 340 832 337 812 q 334 793 334 755 l 334 755 l 334 307 q 334 254 341 210 q 348 165 366 134 q 384 102 416 85 q 448 68 498 68 l 498 68 q 567 68 601 96 q 635 124 649 174 q 663 224 663 323 l 663 323 z m 445 1219 l 568 1219 l 568 1175 l 329 996 l 285 1043 l 445 1219 z m 686 1219 l 806 1219 l 806 1175 l 547 996 l 503 1043 l 686 1219 z "},"Ų":{"ha":939,"x_min":52,"x_max":889,"o":"m 124 316 l 124 755 q 124 787 122 808 q 121 830 114 844 q 106 857 92 866 q 77 874 52 881 l 52 881 l 52 926 l 408 926 l 408 881 q 380 873 367 865 q 353 857 347 844 q 340 832 337 812 q 334 793 334 755 l 334 755 l 334 307 q 334 254 341 210 q 348 165 366 134 q 384 102 416 85 q 448 68 498 68 l 498 68 q 567 68 601 96 q 635 124 649 174 q 663 224 663 323 l 663 323 l 663 755 q 663 806 658 826 q 654 846 641 859 q 628 871 591 881 l 591 881 l 591 926 l 889 926 l 889 881 q 865 874 850 866 q 836 859 829 845 q 821 831 819 809 q 817 788 817 755 l 817 755 l 817 332 q 817 224 795 161 q 772 98 722 54 l 722 54 q 671 10 644 -21 q 616 -52 601 -84 q 585 -116 585 -151 l 585 -151 q 585 -184 601 -201 q 617 -218 645 -218 l 645 -218 q 665 -218 681 -212 q 696 -205 708 -197 l 708 -197 l 734 -255 q 709 -272 678 -284 q 647 -296 612 -296 l 612 -296 q 585 -296 559 -289 q 534 -283 514 -269 q 494 -255 483 -231 q 471 -208 471 -174 l 471 -174 q 471 -130 498 -86 q 526 -42 582 -2 l 582 -2 q 525 -11 477 -11 l 477 -11 q 380 -11 314 9 q 248 29 206 70 q 164 110 144 168 q 124 225 124 316 l 124 316 z "},"Ẁ":{"ha":1335,"x_min":18,"x_max":1337,"o":"m 958 234 l 1101 693 q 1110 724 1117 756 q 1124 787 1124 810 l 1124 810 q 1124 845 1106 862 q 1089 878 1055 881 l 1055 881 l 1055 926 l 1337 926 l 1337 881 q 1312 876 1295 862 q 1278 848 1265 823 q 1251 798 1231 739 l 1231 739 l 977 -5 l 815 -5 l 662 632 l 480 -5 l 311 -5 l 106 755 q 92 810 80 832 q 68 854 54 865 q 40 876 18 881 l 18 881 l 18 926 l 383 926 l 383 881 q 348 877 331 861 q 314 846 314 817 l 314 817 q 314 781 334 705 l 334 705 l 451 234 l 646 926 l 799 926 l 958 234 z m 508 1219 l 672 1219 l 828 1043 l 784 996 l 508 1175 l 508 1219 z "},"Ẃ":{"ha":1335,"x_min":18,"x_max":1337,"o":"m 958 234 l 1101 693 q 1110 724 1117 756 q 1124 787 1124 810 l 1124 810 q 1124 845 1106 862 q 1089 878 1055 881 l 1055 881 l 1055 926 l 1337 926 l 1337 881 q 1312 876 1295 862 q 1278 848 1265 823 q 1251 798 1231 739 l 1231 739 l 977 -5 l 815 -5 l 662 632 l 480 -5 l 311 -5 l 106 755 q 92 810 80 832 q 68 854 54 865 q 40 876 18 881 l 18 881 l 18 926 l 383 926 l 383 881 q 348 877 331 861 q 314 846 314 817 l 314 817 q 314 781 334 705 l 334 705 l 451 234 l 646 926 l 799 926 l 958 234 z m 758 1219 l 912 1219 l 912 1175 l 637 996 l 593 1043 l 758 1219 z "},"Ŵ":{"ha":1335,"x_min":18,"x_max":1337,"o":"m 958 234 l 1101 693 q 1110 724 1117 756 q 1124 787 1124 810 l 1124 810 q 1124 845 1106 862 q 1089 878 1055 881 l 1055 881 l 1055 926 l 1337 926 l 1337 881 q 1312 876 1295 862 q 1278 848 1265 823 q 1251 798 1231 739 l 1231 739 l 977 -5 l 815 -5 l 662 632 l 480 -5 l 311 -5 l 106 755 q 92 810 80 832 q 68 854 54 865 q 40 876 18 881 l 18 881 l 18 926 l 383 926 l 383 881 q 348 877 331 861 q 314 846 314 817 l 314 817 q 314 781 334 705 l 334 705 l 451 234 l 646 926 l 799 926 l 958 234 z m 652 1211 l 770 1211 l 924 1040 l 876 995 l 714 1108 l 707 1108 l 544 995 l 497 1040 l 652 1211 z "},"Ẅ":{"ha":1335,"x_min":18,"x_max":1337,"o":"m 958 234 l 1101 693 q 1110 724 1117 756 q 1124 787 1124 810 l 1124 810 q 1124 845 1106 862 q 1089 878 1055 881 l 1055 881 l 1055 926 l 1337 926 l 1337 881 q 1312 876 1295 862 q 1278 848 1265 823 q 1251 798 1231 739 l 1231 739 l 977 -5 l 815 -5 l 662 632 l 480 -5 l 311 -5 l 106 755 q 92 810 80 832 q 68 854 54 865 q 40 876 18 881 l 18 881 l 18 926 l 383 926 l 383 881 q 348 877 331 861 q 314 846 314 817 l 314 817 q 314 781 334 705 l 334 705 l 451 234 l 646 926 l 799 926 l 958 234 z m 509 1167 l 650 1167 l 650 1018 l 509 1018 l 509 1167 z m 770 1167 l 912 1167 l 912 1018 l 770 1018 l 770 1167 z "},"Ỳ":{"ha":840,"x_min":12,"x_max":847,"o":"m 711 722 l 517 356 l 517 170 q 517 134 519 116 q 521 97 526 85 q 532 74 539 67 q 547 60 561 54 q 575 48 599 45 l 599 45 l 599 0 l 224 0 l 224 45 q 252 50 269 57 q 286 64 294 79 q 302 93 304 115 q 307 137 307 170 l 307 170 l 307 356 l 123 744 q 99 793 85 817 l 85 817 q 70 845 59 857 q 47 869 38 874 q 28 879 12 881 l 12 881 l 12 926 l 373 926 l 373 881 q 321 874 321 829 l 321 829 q 321 812 329 787 q 338 763 357 722 l 357 722 l 471 467 l 595 716 q 614 753 621 778 q 628 803 628 827 l 628 827 q 628 852 614 866 q 600 880 575 881 l 575 881 l 575 926 l 847 926 l 847 881 q 829 877 817 870 q 805 863 791 847 q 777 832 757 802 q 737 771 711 722 l 711 722 z m 220 1219 l 384 1219 l 540 1043 l 496 996 l 220 1175 l 220 1219 z "},"Ý":{"ha":840,"x_min":12,"x_max":847,"o":"m 711 722 l 517 356 l 517 170 q 517 134 519 116 q 521 97 526 85 q 532 74 539 67 q 547 60 561 54 q 575 48 599 45 l 599 45 l 599 0 l 224 0 l 224 45 q 252 50 269 57 q 286 64 294 79 q 302 93 304 115 q 307 137 307 170 l 307 170 l 307 356 l 123 744 q 99 793 85 817 l 85 817 q 70 845 59 857 q 47 869 38 874 q 28 879 12 881 l 12 881 l 12 926 l 373 926 l 373 881 q 321 874 321 829 l 321 829 q 321 812 329 787 q 338 763 357 722 l 357 722 l 471 467 l 595 716 q 614 753 621 778 q 628 803 628 827 l 628 827 q 628 852 614 866 q 600 880 575 881 l 575 881 l 575 926 l 847 926 l 847 881 q 829 877 817 870 q 805 863 791 847 q 777 832 757 802 q 737 771 711 722 l 711 722 z m 524 1219 l 677 1219 l 677 1175 l 402 996 l 358 1043 l 524 1219 z "},"Ŷ":{"ha":840,"x_min":12,"x_max":847,"o":"m 711 722 l 517 356 l 517 170 q 517 134 519 116 q 521 97 526 85 q 532 74 539 67 q 547 60 561 54 q 575 48 599 45 l 599 45 l 599 0 l 224 0 l 224 45 q 252 50 269 57 q 286 64 294 79 q 302 93 304 115 q 307 137 307 170 l 307 170 l 307 356 l 123 744 q 99 793 85 817 l 85 817 q 70 845 59 857 q 47 869 38 874 q 28 879 12 881 l 12 881 l 12 926 l 373 926 l 373 881 q 321 874 321 829 l 321 829 q 321 812 329 787 q 338 763 357 722 l 357 722 l 471 467 l 595 716 q 614 753 621 778 q 628 803 628 827 l 628 827 q 628 852 614 866 q 600 880 575 881 l 575 881 l 575 926 l 847 926 l 847 881 q 829 877 817 870 q 805 863 791 847 q 777 832 757 802 q 737 771 711 722 l 711 722 z m 387 1211 l 505 1211 l 659 1040 l 610 995 l 449 1108 l 441 1108 l 279 995 l 232 1040 l 387 1211 z "},"Ÿ":{"ha":840,"x_min":12,"x_max":847,"o":"m 711 722 l 517 356 l 517 170 q 517 134 519 116 q 521 97 526 85 q 532 74 539 67 q 547 60 561 54 q 575 48 599 45 l 599 45 l 599 0 l 224 0 l 224 45 q 252 50 269 57 q 286 64 294 79 q 302 93 304 115 q 307 137 307 170 l 307 170 l 307 356 l 123 744 q 99 793 85 817 l 85 817 q 70 845 59 857 q 47 869 38 874 q 28 879 12 881 l 12 881 l 12 926 l 373 926 l 373 881 q 321 874 321 829 l 321 829 q 321 812 329 787 q 338 763 357 722 l 357 722 l 471 467 l 595 716 q 614 753 621 778 q 628 803 628 827 l 628 827 q 628 852 614 866 q 600 880 575 881 l 575 881 l 575 926 l 847 926 l 847 881 q 829 877 817 870 q 805 863 791 847 q 777 832 757 802 q 737 771 711 722 l 711 722 z m 243 1167 l 385 1167 l 385 1018 l 243 1018 l 243 1167 z m 505 1167 l 647 1167 l 647 1018 l 505 1018 l 505 1167 z "},"Ź":{"ha":787,"x_min":54,"x_max":738,"o":"m 738 881 l 304 81 l 498 81 q 535 81 560 96 q 585 111 604 144 q 622 177 642 258 l 642 258 l 734 258 l 734 0 l 54 0 l 54 45 l 488 845 l 304 845 q 260 845 234 829 q 208 812 190 777 q 172 741 158 681 l 158 681 l 65 681 l 65 926 l 738 926 l 738 881 z m 441 1219 l 595 1219 l 595 1175 l 320 996 l 276 1043 l 441 1219 z "},"Ž":{"ha":787,"x_min":54,"x_max":738,"o":"m 738 881 l 304 81 l 498 81 q 535 81 560 96 q 585 111 604 144 q 622 177 642 258 l 642 258 l 734 258 l 734 0 l 54 0 l 54 45 l 488 845 l 304 845 q 260 845 234 829 q 208 812 190 777 q 172 741 158 681 l 158 681 l 65 681 l 65 926 l 738 926 l 738 881 z m 452 1000 l 334 1000 l 180 1170 l 229 1215 l 390 1102 l 397 1102 l 560 1215 l 607 1170 l 452 1000 z "},"Ż":{"ha":787,"x_min":54,"x_max":738,"o":"m 738 881 l 304 81 l 498 81 q 535 81 560 96 q 585 111 604 144 q 622 177 642 258 l 642 258 l 734 258 l 734 0 l 54 0 l 54 45 l 488 845 l 304 845 q 260 845 234 829 q 208 812 190 777 q 172 741 158 681 l 158 681 l 65 681 l 65 926 l 738 926 l 738 881 z m 300 1176 l 486 1176 l 486 1010 l 300 1010 l 300 1176 z "},"Ŋ":{"ha":943,"x_min":63,"x_max":887,"o":"m 814 755 l 814 34 q 814 -74 792 -141 q 770 -208 720 -242 q 670 -275 587 -275 l 587 -275 q 534 -275 475 -260 l 475 -260 l 475 -107 l 557 -107 q 562 -137 575 -150 q 589 -163 614 -163 l 614 -163 q 657 -163 680 -124 q 703 -85 703 -14 l 703 -14 l 703 0 l 642 0 l 336 528 q 274 636 245 696 l 245 696 l 239 696 q 246 551 246 389 l 246 389 l 246 170 q 246 119 251 98 q 256 78 270 66 q 283 54 319 45 l 319 45 l 316 0 l 63 0 l 63 45 q 88 52 103 60 q 117 68 124 82 q 132 96 134 117 q 136 138 136 170 l 136 170 l 136 756 q 136 807 131 826 q 127 846 113 859 q 99 871 63 881 l 63 881 l 63 926 l 338 926 l 578 509 q 600 469 636 402 q 672 335 700 275 l 700 275 l 711 275 q 703 437 703 629 l 703 629 l 703 755 q 703 800 700 819 q 696 839 689 849 q 682 859 670 866 q 659 873 631 881 l 631 881 l 631 926 l 887 926 l 887 881 q 860 872 849 866 q 838 860 830 850 q 822 840 818 819 q 814 798 814 755 l 814 755 z "},"Ð":{"ha":985,"x_min":28,"x_max":915,"o":"m 71 926 l 424 926 q 537 926 613 908 q 689 890 748 852 q 807 814 843 762 q 880 709 897 640 q 915 570 915 483 l 915 483 q 915 377 890 293 q 865 209 816 149 l 816 149 q 772 96 708 61 q 644 26 560 12 l 560 12 q 488 0 379 0 l 379 0 l 71 0 l 71 45 q 96 52 111 59 q 125 67 133 81 q 140 95 142 116 q 144 138 144 170 l 144 170 l 144 442 l 28 442 l 28 528 l 144 528 l 144 755 q 144 787 142 808 q 140 830 133 844 q 126 857 112 866 q 97 874 71 881 l 71 881 l 71 926 z m 532 528 l 532 442 l 354 442 l 354 82 q 366 80 416 80 l 416 80 q 467 80 505 90 l 505 90 q 541 99 571 118 l 571 118 q 598 136 621 163 l 621 163 q 645 195 661 235 l 661 235 q 679 278 688 335 q 696 392 696 467 l 696 467 q 696 595 662 681 q 627 766 565 806 q 502 846 414 846 l 414 846 q 372 846 354 845 l 354 845 l 354 528 l 532 528 z "},"Þ":{"ha":857,"x_min":65,"x_max":802,"o":"m 421 926 l 421 881 q 397 874 382 866 q 368 858 360 844 q 352 831 350 810 q 348 789 348 757 l 348 757 l 459 757 q 631 757 716 695 q 802 634 802 507 l 802 507 q 802 416 762 350 q 722 283 646 249 q 570 215 456 215 l 456 215 l 397 215 q 372 215 348 216 l 348 216 l 348 170 q 348 138 350 121 q 351 105 354 96 q 356 87 360 80 q 365 72 372 66 q 380 60 393 54 q 407 49 430 45 l 430 45 l 430 0 l 65 0 l 65 45 q 90 52 105 59 q 119 67 126 81 q 134 95 136 116 q 138 138 138 170 l 138 170 l 138 755 q 138 788 136 809 q 134 830 127 844 q 120 858 105 866 q 91 874 65 881 l 65 881 l 65 926 l 421 926 z m 348 676 l 348 676 l 348 294 l 406 294 q 474 294 514 314 q 554 333 573 375 q 593 417 593 488 l 593 488 q 593 559 573 601 q 554 642 517 660 q 479 677 421 677 l 421 677 q 374 677 348 676 z "},"a":{"ha":743,"x_min":41,"x_max":705,"o":"m 453 0 l 459 89 l 449 92 q 393 38 341 14 q 288 -11 229 -11 l 229 -11 q 171 -11 128 11 q 85 32 63 70 q 41 108 41 157 l 41 157 q 41 257 139 314 q 237 372 436 387 l 436 387 l 436 451 q 436 514 422 548 q 408 583 385 596 q 363 610 332 610 l 332 610 q 300 610 278 600 q 255 589 237 558 q 218 528 210 475 l 210 475 l 81 475 l 81 598 q 144 626 185 641 q 227 656 267 666 q 307 675 339 680 q 371 684 403 684 l 403 684 q 485 684 534 662 q 583 640 608 591 q 632 543 632 456 l 632 456 l 632 192 q 632 147 634 123 q 636 98 641 86 q 645 75 652 67 q 659 60 668 56 q 678 52 705 45 l 705 45 l 705 0 l 453 0 z m 437 208 l 437 320 q 332 317 281 281 q 231 244 231 174 l 231 174 q 231 132 254 110 q 277 87 317 87 l 317 87 q 349 87 376 104 q 404 121 420 149 q 437 176 437 208 l 437 208 z "},"b":{"ha":821,"x_min":31,"x_max":756,"o":"m 108 1 l 108 737 q 108 786 107 812 q 106 838 103 857 q 100 876 92 886 q 85 897 72 904 q 60 911 31 917 l 31 917 l 31 962 l 220 971 l 304 971 l 304 583 l 304 582 q 345 619 376 640 q 406 660 441 672 q 475 684 515 684 l 515 684 q 635 684 696 598 q 756 513 756 344 l 756 344 q 756 227 721 148 q 685 68 614 29 q 544 -11 441 -11 l 441 -11 q 334 -11 245 28 l 245 28 l 195 -11 l 108 1 z m 304 454 l 304 222 q 304 139 333 99 q 361 60 422 60 l 422 60 q 484 60 517 125 q 550 191 550 312 l 550 312 q 550 446 521 511 q 492 577 430 577 l 430 577 q 400 577 371 562 q 342 546 323 517 q 304 488 304 454 l 304 454 z "},"c":{"ha":651,"x_min":62,"x_max":627,"o":"m 575 174 l 575 174 l 627 111 q 561 45 499 17 q 437 -11 363 -11 l 363 -11 q 216 -11 139 76 q 62 162 62 327 l 62 327 q 62 438 104 519 q 146 600 226 642 q 305 684 408 684 l 408 684 q 463 684 517 676 q 572 668 616 654 l 616 654 l 616 491 l 482 491 q 472 555 452 584 q 431 613 393 613 l 393 613 q 368 613 346 601 q 323 588 306 557 q 288 526 278 474 q 268 422 268 343 l 268 343 q 268 264 283 209 q 298 155 331 125 q 364 96 418 96 l 418 96 q 458 96 493 113 q 528 130 575 174 z "},"d":{"ha":829,"x_min":65,"x_max":788,"o":"m 713 971 l 713 198 q 713 146 715 123 q 717 99 723 85 q 729 71 743 61 q 756 52 788 45 l 788 45 l 788 0 l 604 -6 l 522 -6 l 528 92 l 517 92 q 469 43 415 16 q 361 -11 311 -11 l 311 -11 q 188 -11 126 74 q 65 159 65 329 l 65 329 q 65 444 102 523 q 140 602 213 643 q 287 684 391 684 l 391 684 q 420 684 449 680 q 478 676 517 665 l 517 665 l 517 727 q 517 800 515 830 q 513 860 507 876 q 500 892 488 901 q 475 909 441 916 l 441 916 l 441 962 l 629 971 l 713 971 z m 517 224 l 517 450 q 517 533 490 573 q 462 613 404 613 l 404 613 q 362 613 332 583 q 302 553 287 496 q 271 439 271 361 l 271 361 q 271 227 300 161 q 330 96 391 96 l 391 96 q 420 96 449 110 q 478 125 498 155 q 517 185 517 224 l 517 224 z "},"e":{"ha":737,"x_min":62,"x_max":690,"o":"m 617 183 l 672 123 q 603 50 535 20 q 467 -11 379 -11 l 379 -11 q 221 -11 141 76 q 62 162 62 332 l 62 332 q 62 442 103 522 q 144 602 219 643 q 294 684 394 684 l 394 684 q 456 684 502 669 q 549 655 582 630 q 615 604 637 568 l 637 568 q 663 526 675 471 l 675 471 q 689 414 690 334 l 690 334 l 260 334 q 260 212 303 154 q 347 96 435 96 l 435 96 q 486 96 528 115 q 569 134 617 183 l 617 183 z m 263 408 l 489 408 q 486 511 462 562 q 437 613 383 613 l 383 613 q 331 613 300 560 q 269 507 263 408 l 263 408 z "},"f":{"ha":453,"x_min":42,"x_max":547,"o":"m 57 0 l 57 45 q 89 54 101 66 q 114 77 119 98 q 125 119 125 170 l 125 170 l 125 588 l 42 588 l 42 635 q 74 640 86 645 q 99 651 107 661 q 115 671 120 686 q 125 702 127 726 l 127 726 q 138 848 217 911 q 297 974 443 974 l 443 974 q 501 974 547 964 l 547 964 l 547 826 l 454 826 q 443 863 429 881 q 415 899 393 899 l 393 899 q 363 899 348 879 q 332 860 327 824 q 321 789 321 724 l 321 724 l 321 673 l 452 673 l 452 588 l 321 588 l 321 170 q 321 119 326 98 q 332 77 346 65 q 359 53 395 45 l 395 45 l 395 0 l 57 0 z "},"g":{"ha":722,"x_min":24,"x_max":714,"o":"m 714 673 l 714 582 l 598 595 l 595 587 q 614 568 627 535 q 640 503 640 456 l 640 456 q 640 338 568 277 q 496 216 357 216 l 357 216 q 290 216 248 229 l 248 229 q 214 198 214 163 l 214 163 q 214 142 222 132 q 231 121 251 115 q 271 109 309 109 l 309 109 l 477 109 q 590 109 646 65 q 703 21 703 -72 l 703 -72 q 703 -144 662 -197 q 621 -249 544 -276 q 467 -304 362 -304 l 362 -304 q 286 -304 223 -297 q 161 -290 117 -272 q 73 -254 48 -223 q 24 -192 24 -144 l 24 -144 q 24 -105 49 -73 q 73 -40 117 -17 l 117 -17 q 89 3 76 30 q 63 56 63 95 l 63 95 q 63 127 76 155 q 90 182 112 205 q 134 228 169 255 l 169 255 q 116 285 89 333 q 62 382 62 447 l 62 447 q 62 510 84 555 q 107 600 147 629 q 186 657 240 670 q 294 684 357 684 l 357 684 q 391 684 418 680 q 444 677 469 673 l 469 673 l 714 673 z m 256 455 l 256 455 q 256 370 280 328 q 304 286 356 286 l 356 286 q 403 286 428 325 q 452 363 452 443 l 452 443 q 452 526 428 570 q 404 614 355 614 l 355 614 q 304 614 280 575 q 256 536 256 455 z m 232 -43 l 232 -43 q 208 -62 195 -85 q 182 -107 182 -136 l 182 -136 q 182 -185 225 -209 q 267 -232 359 -232 l 359 -232 q 444 -232 489 -203 q 533 -175 533 -123 l 533 -123 q 533 -100 525 -84 q 517 -68 493 -57 q 469 -46 426 -46 l 426 -46 l 309 -46 q 260 -46 232 -43 z "},"h":{"ha":829,"x_min":39,"x_max":786,"o":"m 312 584 l 315 583 q 376 638 425 661 q 473 684 524 684 l 524 684 q 599 684 640 656 q 680 629 699 577 q 718 526 718 444 l 718 444 l 718 196 q 718 166 719 140 q 720 114 724 98 q 728 83 735 73 q 742 63 755 56 q 768 50 786 45 l 786 45 l 786 0 l 457 0 l 457 45 q 489 52 501 66 q 513 81 517 106 q 522 131 522 195 l 522 195 l 522 372 q 522 440 517 478 q 513 515 502 536 q 492 557 475 567 q 458 577 431 577 l 431 577 q 406 577 377 561 q 349 545 331 518 q 312 490 312 459 l 312 459 l 312 196 q 312 158 313 137 q 314 117 316 105 q 318 94 322 85 q 326 77 332 69 q 338 62 349 56 q 361 50 380 45 l 380 45 l 380 0 l 47 0 l 47 45 q 68 50 79 56 q 91 62 97 71 q 104 79 109 93 q 113 106 115 129 q 116 153 116 196 l 116 196 l 116 725 q 116 783 115 811 q 114 838 111 857 q 107 876 100 887 q 94 898 81 905 q 68 911 39 917 l 39 917 l 39 962 l 227 971 l 312 971 l 312 584 z "},"i":{"ha":437,"x_min":50,"x_max":389,"o":"m 130 943 l 315 943 l 315 777 l 130 777 l 130 943 z m 58 0 l 58 45 q 91 54 103 68 q 116 82 120 106 q 125 131 125 195 l 125 195 l 125 511 q 125 544 122 564 q 119 585 110 597 q 102 609 87 615 q 73 622 50 627 l 50 627 l 50 673 l 236 678 l 321 678 l 321 196 q 321 158 322 137 q 323 117 325 105 q 327 94 331 85 q 334 77 340 69 q 347 62 358 56 q 370 50 389 45 l 389 45 l 389 0 l 58 0 z "},"j":{"ha":420,"x_min":9,"x_max":312,"o":"m 121 943 l 307 943 l 307 777 l 121 777 l 121 943 z m 312 678 l 312 54 q 312 -26 298 -82 q 284 -137 251 -179 q 218 -221 159 -253 q 100 -284 42 -300 l 42 -300 l 9 -221 q 55 -203 76 -184 q 97 -165 106 -135 q 116 -106 116 -54 l 116 -54 l 116 511 q 116 544 113 564 q 110 585 101 597 q 93 609 78 615 q 64 622 41 627 l 41 627 l 41 673 l 227 678 l 312 678 z "},"k":{"ha":822,"x_min":39,"x_max":836,"o":"m 636 519 l 538 428 l 713 169 q 751 111 770 90 q 788 68 802 59 q 815 50 836 45 l 836 45 l 836 0 l 504 0 l 504 45 q 534 51 534 77 l 534 77 q 534 94 523 118 q 511 142 476 193 l 476 193 l 424 272 q 406 298 395 310 q 385 322 374 328 q 363 334 345 334 l 345 334 l 312 334 l 312 196 q 312 132 316 107 q 320 83 333 68 q 345 54 380 45 l 380 45 l 380 0 l 47 0 l 47 45 q 68 50 79 56 q 91 62 97 71 q 104 79 109 93 q 113 106 115 129 q 116 153 116 196 l 116 196 l 116 725 q 116 783 115 811 q 114 838 111 857 q 107 876 100 887 q 94 898 81 905 q 68 911 39 917 l 39 917 l 39 962 l 228 971 l 312 971 l 312 399 l 334 399 q 358 399 372 404 q 385 409 400 419 q 414 430 445 457 q 475 485 491 506 q 507 528 512 544 q 517 559 517 574 l 517 574 q 517 621 458 629 l 458 629 l 458 673 l 798 673 l 798 629 q 771 625 739 605 q 706 585 636 519 l 636 519 z "},"l":{"ha":428,"x_min":39,"x_max":380,"o":"m 312 971 l 312 196 q 312 132 316 107 q 320 83 333 68 q 345 54 380 45 l 380 45 l 380 0 l 47 0 l 47 45 q 68 50 79 56 q 91 62 97 71 q 104 79 109 93 q 113 106 115 129 q 116 153 116 196 l 116 196 l 116 725 q 116 783 115 811 q 114 838 111 857 q 108 876 101 887 q 94 898 81 905 q 68 911 39 917 l 39 917 l 39 962 l 227 971 l 312 971 z "},"m":{"ha":1236,"x_min":50,"x_max":1194,"o":"m 321 678 l 311 581 l 319 578 q 380 636 430 660 q 479 684 531 684 l 531 684 q 581 684 614 671 q 648 658 671 633 q 694 608 708 568 l 708 568 q 777 632 827 658 q 878 684 932 684 l 932 684 q 987 684 1022 669 q 1058 655 1081 625 q 1104 595 1115 551 q 1125 506 1125 444 l 1125 444 l 1125 196 q 1125 166 1126 140 q 1127 114 1131 98 q 1135 83 1142 73 q 1149 63 1162 56 q 1175 50 1194 45 l 1194 45 l 1194 0 l 867 0 l 867 45 q 897 52 909 66 q 920 81 925 106 q 929 131 929 195 l 929 195 l 929 377 q 929 438 925 476 q 921 515 909 536 q 898 558 882 568 q 866 577 840 577 l 840 577 q 823 577 808 572 q 793 566 778 555 q 762 544 751 532 q 741 521 734 507 q 728 492 725 475 q 723 457 723 417 l 723 417 l 723 196 q 723 150 725 125 q 726 101 732 86 q 737 71 749 61 q 761 52 786 45 l 786 45 l 786 0 l 463 0 l 463 45 q 494 52 506 66 q 518 81 522 105 q 526 130 526 195 l 526 195 l 526 377 q 526 422 525 453 q 523 484 519 503 q 515 522 508 536 q 500 550 491 559 q 482 568 470 572 q 457 577 438 577 l 438 577 q 413 577 386 562 q 358 546 339 518 q 321 490 321 458 l 321 458 l 321 196 q 321 132 325 107 q 328 81 340 67 q 353 52 383 45 l 383 45 l 383 0 l 58 0 l 58 45 q 91 54 103 68 q 116 82 120 106 q 125 131 125 195 l 125 195 l 125 474 q 125 524 123 548 q 121 572 115 587 q 109 602 95 611 q 82 620 50 627 l 50 627 l 50 673 l 235 678 l 321 678 z "},"n":{"ha":838,"x_min":50,"x_max":795,"o":"m 795 45 l 795 0 l 467 0 l 467 45 q 498 52 510 67 q 522 81 527 106 q 531 131 531 195 l 531 195 l 531 376 q 531 425 529 455 q 527 486 523 506 q 518 526 510 539 q 503 552 493 561 q 484 569 471 573 q 459 577 440 577 l 440 577 q 414 577 387 561 q 359 545 340 517 q 321 489 321 457 l 321 457 l 321 196 q 321 132 325 106 q 329 81 341 67 q 354 52 386 45 l 386 45 l 386 0 l 58 0 l 58 45 q 91 54 103 68 q 116 82 120 106 q 125 131 125 195 l 125 195 l 125 474 q 125 524 123 548 q 121 572 115 587 q 109 602 95 611 q 82 620 50 627 l 50 627 l 50 673 l 235 678 l 321 678 l 311 581 l 319 578 q 361 616 393 637 q 425 659 459 671 q 494 684 533 684 l 533 684 q 589 684 625 668 q 662 652 685 621 q 707 591 717 547 q 727 503 727 444 l 727 444 l 727 196 q 727 166 728 140 q 729 114 733 98 q 737 83 744 73 q 751 63 764 56 q 777 50 795 45 l 795 45 z "},"o":{"ha":791,"x_min":62,"x_max":729,"o":"m 387 -11 l 387 -11 q 288 -11 215 24 q 143 59 102 136 q 62 213 62 332 l 62 332 q 62 422 87 489 q 112 555 157 599 q 201 642 263 663 q 326 684 398 684 l 398 684 q 562 684 646 597 q 729 511 729 344 l 729 344 q 729 226 688 146 q 646 66 570 28 q 493 -11 387 -11 z m 268 347 l 268 347 q 268 203 300 131 q 332 60 397 60 l 397 60 q 433 60 457 78 q 481 96 496 131 q 511 165 517 214 q 523 262 523 323 l 523 323 q 523 469 491 541 q 458 613 395 613 l 395 613 q 349 613 321 584 q 294 555 281 496 q 268 438 268 347 z "},"p":{"ha":829,"x_min":41,"x_max":764,"o":"m 312 7 l 312 -121 q 312 -172 317 -193 q 323 -214 337 -227 q 351 -239 386 -247 l 386 -247 l 386 -292 l 48 -292 l 48 -247 q 80 -237 93 -226 q 105 -214 111 -194 q 116 -173 116 -121 l 116 -121 l 116 472 q 116 520 115 541 q 114 561 110 575 q 106 589 100 598 q 93 608 80 614 q 66 621 41 627 l 41 627 l 41 673 l 229 678 l 312 678 l 302 580 l 310 578 q 368 634 419 659 q 469 684 523 684 l 523 684 q 644 684 704 598 q 764 513 764 344 l 764 344 q 764 227 729 148 q 693 68 623 29 q 552 -11 449 -11 l 449 -11 q 379 -11 312 7 l 312 7 z m 312 452 l 312 222 q 312 139 341 99 q 370 60 430 60 l 430 60 q 492 60 525 125 q 558 191 558 312 l 558 312 q 558 447 529 512 q 499 577 437 577 l 437 577 q 406 577 377 562 q 349 546 330 517 q 312 488 312 452 l 312 452 z "},"q":{"ha":821,"x_min":65,"x_max":781,"o":"m 517 -121 l 517 91 q 480 56 450 35 q 419 14 383 2 q 347 -11 307 -11 l 307 -11 q 186 -11 126 74 q 65 159 65 329 l 65 329 q 65 444 102 523 q 140 602 213 643 q 286 684 387 684 l 387 684 q 420 684 451 680 q 482 675 509 668 q 536 661 576 645 l 576 645 l 627 684 l 713 671 l 713 -121 q 713 -173 719 -194 q 724 -214 737 -226 q 749 -237 781 -247 l 781 -247 l 781 -292 l 444 -292 l 444 -247 q 478 -239 492 -227 q 506 -216 512 -195 q 517 -174 517 -121 l 517 -121 z m 517 226 l 517 450 q 517 533 490 573 q 462 613 404 613 l 404 613 q 362 613 332 583 q 302 553 287 496 q 271 439 271 361 l 271 361 q 271 227 300 162 q 330 96 391 96 l 391 96 q 422 96 452 111 q 481 126 499 156 q 517 186 517 226 l 517 226 z "},"r":{"ha":641,"x_min":50,"x_max":622,"o":"m 321 678 l 311 576 l 320 574 q 370 632 422 658 q 474 684 535 684 l 535 684 q 576 684 622 675 l 622 675 l 622 488 l 499 488 q 488 527 469 548 q 450 569 419 569 l 419 569 q 404 569 386 560 q 368 551 353 534 q 338 517 331 500 q 325 483 323 465 q 321 448 321 412 l 321 412 l 321 196 q 321 132 326 106 q 330 80 345 65 q 359 51 393 45 l 393 45 l 393 0 l 58 0 l 58 45 q 91 54 103 68 q 116 82 120 106 q 125 131 125 195 l 125 195 l 125 474 q 125 524 123 548 q 121 572 115 587 q 109 602 95 611 q 82 620 50 627 l 50 627 l 50 673 l 235 678 l 321 678 z "},"s":{"ha":637,"x_min":55,"x_max":582,"o":"m 55 183 l 146 183 q 162 121 197 91 q 233 60 292 60 l 292 60 q 342 60 369 83 q 395 106 395 150 l 395 150 q 395 178 383 197 q 371 217 343 235 q 316 253 250 282 l 250 282 q 212 298 179 318 q 146 338 122 362 q 98 387 83 418 q 69 448 69 486 l 69 486 q 69 547 104 591 q 140 636 205 660 q 271 684 355 684 l 355 684 q 404 684 452 680 q 499 675 574 662 l 574 662 l 574 504 l 485 504 q 469 547 451 571 q 432 595 410 604 q 387 613 356 613 l 356 613 q 311 613 285 593 q 258 572 258 536 l 258 536 q 258 510 268 492 q 277 473 302 456 q 326 439 396 410 l 396 410 q 460 383 500 354 q 540 326 561 288 q 582 250 582 200 l 582 200 q 582 145 562 105 q 541 66 505 40 q 468 14 417 2 q 366 -11 304 -11 l 304 -11 q 192 -11 55 21 l 55 21 l 55 183 z "},"t":{"ha":507,"x_min":25,"x_max":522,"o":"m 479 138 l 522 81 q 463 31 414 10 q 365 -11 311 -11 l 311 -11 q 210 -11 160 44 q 110 98 110 209 l 110 209 l 110 588 l 25 588 l 25 635 q 66 642 86 655 q 106 669 117 691 q 127 714 134 751 q 140 787 144 842 l 144 842 l 306 842 l 306 673 l 499 673 l 499 588 l 306 588 l 306 282 q 306 205 313 169 q 320 132 337 115 q 354 98 379 98 l 379 98 q 398 98 413 101 q 428 104 445 113 q 461 122 479 138 l 479 138 z "},"u":{"ha":829,"x_min":43,"x_max":788,"o":"m 43 628 l 43 673 l 307 673 l 307 296 q 307 231 311 195 q 315 158 327 137 q 338 115 355 105 q 372 96 397 96 l 397 96 q 422 96 450 111 q 478 127 497 155 q 517 183 517 215 l 517 215 l 517 477 q 517 526 515 550 q 513 574 507 588 q 501 602 489 611 q 477 620 449 628 l 449 628 l 449 673 l 713 673 l 713 198 q 713 146 715 123 q 717 99 723 85 q 729 71 743 61 q 756 52 788 45 l 788 45 l 788 0 l 604 -6 l 522 -6 l 528 92 l 519 94 q 456 35 407 12 q 357 -11 307 -11 l 307 -11 q 235 -11 192 16 q 149 43 130 95 q 111 146 111 229 l 111 229 l 111 477 q 111 515 110 535 q 109 555 107 567 q 105 578 101 587 q 98 596 91 604 q 85 611 74 617 q 62 623 43 628 l 43 628 z "},"v":{"ha":737,"x_min":13,"x_max":741,"o":"m 13 673 l 351 673 l 351 628 q 319 622 304 610 q 290 597 290 573 l 290 573 q 290 541 307 488 l 307 488 l 405 192 l 513 452 q 526 484 533 509 q 540 534 540 557 l 540 557 q 540 586 524 605 q 507 623 477 628 l 477 628 l 477 673 l 741 673 l 741 627 q 722 621 710 612 q 698 604 687 589 q 677 575 662 547 q 647 519 621 462 l 621 462 l 410 -7 l 281 -7 l 102 509 q 84 563 73 583 q 61 603 47 613 q 33 624 13 628 l 13 628 l 13 673 z "},"w":{"ha":1109,"x_min":18,"x_max":1108,"o":"m 814 -7 l 679 -7 l 551 431 l 403 -7 l 266 -7 l 101 509 q 86 557 76 578 q 66 600 53 611 q 40 623 18 628 l 18 628 l 18 673 l 350 673 l 350 628 q 318 623 302 609 q 286 595 286 570 l 286 570 q 286 553 292 532 q 297 511 304 488 l 304 488 l 389 207 l 545 673 l 671 673 l 802 207 l 891 452 q 905 488 910 513 q 915 538 915 557 l 915 557 q 915 586 899 605 q 882 623 852 628 l 852 628 l 852 673 l 1108 673 l 1108 627 q 1088 621 1077 613 q 1065 605 1056 591 q 1046 576 1033 549 q 1021 522 997 462 l 997 462 l 814 -7 z "},"x":{"ha":730,"x_min":11,"x_max":716,"o":"m 578 519 l 448 372 l 606 146 q 629 115 646 94 q 663 73 680 62 q 696 50 716 45 l 716 45 l 716 0 l 386 0 l 386 45 q 428 50 428 80 l 428 80 q 428 88 426 95 q 424 102 420 110 q 416 117 404 134 l 404 134 l 327 244 l 256 157 q 233 129 227 116 q 221 103 221 87 l 221 87 q 221 71 233 59 q 245 47 272 45 l 272 45 l 272 0 l 11 0 l 11 45 q 40 51 70 75 q 99 98 141 146 l 141 146 l 283 307 l 123 532 q 109 554 98 568 q 87 582 75 594 q 64 607 55 614 q 45 621 38 624 q 30 627 22 628 l 22 628 l 22 673 l 351 673 l 351 628 q 308 619 308 590 l 308 590 q 308 578 314 566 q 320 553 334 534 l 334 534 l 404 435 l 473 521 q 489 541 495 555 q 502 569 502 584 l 502 584 q 502 603 488 615 q 474 627 450 628 l 450 628 l 450 673 l 709 673 l 709 628 q 678 621 652 599 q 627 578 578 519 l 578 519 z "},"y":{"ha":737,"x_min":13,"x_max":741,"o":"m 621 462 l 400 -31 q 356 -129 317 -185 q 278 -241 233 -269 q 188 -296 121 -296 l 121 -296 q 70 -296 26 -283 l 26 -283 l 26 -128 l 102 -128 q 111 -160 124 -172 q 137 -184 161 -184 l 161 -184 q 186 -184 207 -170 q 228 -155 254 -116 q 280 -77 318 0 l 318 0 l 279 0 l 102 509 q 83 563 72 583 q 61 603 47 613 q 33 624 13 628 l 13 628 l 13 673 l 351 673 l 351 628 q 319 622 304 610 q 290 597 290 573 l 290 573 q 290 541 307 488 l 307 488 l 405 192 l 513 452 q 526 484 533 509 q 540 534 540 557 l 540 557 q 540 586 524 605 q 507 623 477 628 l 477 628 l 477 673 l 741 673 l 741 627 q 722 621 710 612 q 698 604 687 589 q 677 575 662 547 q 647 519 621 462 l 621 462 z "},"z":{"ha":665,"x_min":45,"x_max":621,"o":"m 621 628 l 273 72 l 416 72 q 447 72 468 85 q 490 98 507 130 q 524 161 538 218 l 538 218 l 621 218 l 621 0 l 45 0 l 45 45 l 392 601 l 257 601 q 224 601 205 590 q 185 579 169 553 q 153 528 132 467 l 132 467 l 50 467 l 50 673 l 621 673 l 621 628 z "},"à":{"ha":743,"x_min":41,"x_max":705,"o":"m 453 0 l 459 89 l 449 92 q 393 38 341 14 q 288 -11 229 -11 l 229 -11 q 171 -11 128 11 q 85 32 63 70 q 41 108 41 157 l 41 157 q 41 257 139 314 q 237 372 436 387 l 436 387 l 436 451 q 436 514 422 548 q 408 583 385 596 q 363 610 332 610 l 332 610 q 300 610 278 600 q 255 589 237 558 q 218 528 210 475 l 210 475 l 81 475 l 81 598 q 144 626 185 641 q 227 656 267 666 q 307 675 339 680 q 371 684 403 684 l 403 684 q 485 684 534 662 q 583 640 608 591 q 632 543 632 456 l 632 456 l 632 192 q 632 147 634 123 q 636 98 641 86 q 645 75 652 67 q 659 60 668 56 q 678 52 705 45 l 705 45 l 705 0 l 453 0 z m 437 208 l 437 320 q 332 317 281 281 q 231 244 231 174 l 231 174 q 231 132 254 110 q 277 87 317 87 l 317 87 q 349 87 376 104 q 404 121 420 149 q 437 176 437 208 l 437 208 z m 182 1000 l 323 1000 l 471 782 l 417 737 l 182 956 l 182 1000 z "},"á":{"ha":743,"x_min":41,"x_max":705,"o":"m 453 0 l 459 89 l 449 92 q 393 38 341 14 q 288 -11 229 -11 l 229 -11 q 171 -11 128 11 q 85 32 63 70 q 41 108 41 157 l 41 157 q 41 257 139 314 q 237 372 436 387 l 436 387 l 436 451 q 436 514 422 548 q 408 583 385 596 q 363 610 332 610 l 332 610 q 300 610 278 600 q 255 589 237 558 q 218 528 210 475 l 210 475 l 81 475 l 81 598 q 144 626 185 641 q 227 656 267 666 q 307 675 339 680 q 371 684 403 684 l 403 684 q 485 684 534 662 q 583 640 608 591 q 632 543 632 456 l 632 456 l 632 192 q 632 147 634 123 q 636 98 641 86 q 645 75 652 67 q 659 60 668 56 q 678 52 705 45 l 705 45 l 705 0 l 453 0 z m 437 208 l 437 320 q 332 317 281 281 q 231 244 231 174 l 231 174 q 231 132 254 110 q 277 87 317 87 l 317 87 q 349 87 376 104 q 404 121 420 149 q 437 176 437 208 l 437 208 z m 413 1000 l 555 1000 l 555 956 l 319 737 l 265 782 l 413 1000 z "},"â":{"ha":743,"x_min":41,"x_max":705,"o":"m 453 0 l 459 89 l 449 92 q 393 38 341 14 q 288 -11 229 -11 l 229 -11 q 171 -11 128 11 q 85 32 63 70 q 41 108 41 157 l 41 157 q 41 257 139 314 q 237 372 436 387 l 436 387 l 436 451 q 436 514 422 548 q 408 583 385 596 q 363 610 332 610 l 332 610 q 300 610 278 600 q 255 589 237 558 q 218 528 210 475 l 210 475 l 81 475 l 81 598 q 144 626 185 641 q 227 656 267 666 q 307 675 339 680 q 371 684 403 684 l 403 684 q 485 684 534 662 q 583 640 608 591 q 632 543 632 456 l 632 456 l 632 192 q 632 147 634 123 q 636 98 641 86 q 645 75 652 67 q 659 60 668 56 q 678 52 705 45 l 705 45 l 705 0 l 453 0 z m 437 208 l 437 320 q 332 317 281 281 q 231 244 231 174 l 231 174 q 231 132 254 110 q 277 87 317 87 l 317 87 q 349 87 376 104 q 404 121 420 149 q 437 176 437 208 l 437 208 z m 315 996 l 433 996 l 572 783 l 520 738 l 373 886 l 366 886 l 216 738 l 164 783 l 315 996 z "},"ã":{"ha":743,"x_min":41,"x_max":705,"o":"m 453 0 l 459 89 l 449 92 q 393 38 341 14 q 288 -11 229 -11 l 229 -11 q 171 -11 128 11 q 85 32 63 70 q 41 108 41 157 l 41 157 q 41 257 139 314 q 237 372 436 387 l 436 387 l 436 451 q 436 514 422 548 q 408 583 385 596 q 363 610 332 610 l 332 610 q 300 610 278 600 q 255 589 237 558 q 218 528 210 475 l 210 475 l 81 475 l 81 598 q 144 626 185 641 q 227 656 267 666 q 307 675 339 680 q 371 684 403 684 l 403 684 q 485 684 534 662 q 583 640 608 591 q 632 543 632 456 l 632 456 l 632 192 q 632 147 634 123 q 636 98 641 86 q 645 75 652 67 q 659 60 668 56 q 678 52 705 45 l 705 45 l 705 0 l 453 0 z m 437 208 l 437 320 q 332 317 281 281 q 231 244 231 174 l 231 174 q 231 132 254 110 q 277 87 317 87 l 317 87 q 349 87 376 104 q 404 121 420 149 q 437 176 437 208 l 437 208 z m 543 951 l 543 951 l 607 923 q 568 843 532 805 q 496 766 458 766 l 458 766 q 433 766 413 773 q 392 781 353 807 l 353 807 q 332 822 320 828 q 309 835 297 838 q 286 842 275 842 l 275 842 q 259 842 247 836 q 235 830 221 813 q 208 797 192 766 l 192 766 l 129 794 q 161 856 182 886 q 203 917 227 934 q 251 951 280 951 l 280 951 q 296 951 311 947 q 326 944 339 937 q 353 930 378 913 l 378 913 q 403 896 415 889 q 427 882 438 879 q 449 876 464 876 l 464 876 q 488 876 506 893 q 524 911 543 951 z "},"ä":{"ha":743,"x_min":41,"x_max":705,"o":"m 453 0 l 459 89 l 449 92 q 393 38 341 14 q 288 -11 229 -11 l 229 -11 q 171 -11 128 11 q 85 32 63 70 q 41 108 41 157 l 41 157 q 41 257 139 314 q 237 372 436 387 l 436 387 l 436 451 q 436 514 422 548 q 408 583 385 596 q 363 610 332 610 l 332 610 q 300 610 278 600 q 255 589 237 558 q 218 528 210 475 l 210 475 l 81 475 l 81 598 q 144 626 185 641 q 227 656 267 666 q 307 675 339 680 q 371 684 403 684 l 403 684 q 485 684 534 662 q 583 640 608 591 q 632 543 632 456 l 632 456 l 632 192 q 632 147 634 123 q 636 98 641 86 q 645 75 652 67 q 659 60 668 56 q 678 52 705 45 l 705 45 l 705 0 l 453 0 z m 437 208 l 437 320 q 332 317 281 281 q 231 244 231 174 l 231 174 q 231 132 254 110 q 277 87 317 87 l 317 87 q 349 87 376 104 q 404 121 420 149 q 437 176 437 208 l 437 208 z m 174 935 l 315 935 l 315 786 l 174 786 l 174 935 z m 422 935 l 564 935 l 564 786 l 422 786 l 422 935 z "},"ā":{"ha":743,"x_min":41,"x_max":705,"o":"m 453 0 l 459 89 l 449 92 q 393 38 341 14 q 288 -11 229 -11 l 229 -11 q 171 -11 128 11 q 85 32 63 70 q 41 108 41 157 l 41 157 q 41 257 139 314 q 237 372 436 387 l 436 387 l 436 451 q 436 514 422 548 q 408 583 385 596 q 363 610 332 610 l 332 610 q 300 610 278 600 q 255 589 237 558 q 218 528 210 475 l 210 475 l 81 475 l 81 598 q 144 626 185 641 q 227 656 267 666 q 307 675 339 680 q 371 684 403 684 l 403 684 q 485 684 534 662 q 583 640 608 591 q 632 543 632 456 l 632 456 l 632 192 q 632 147 634 123 q 636 98 641 86 q 645 75 652 67 q 659 60 668 56 q 678 52 705 45 l 705 45 l 705 0 l 453 0 z m 437 208 l 437 320 q 332 317 281 281 q 231 244 231 174 l 231 174 q 231 132 254 110 q 277 87 317 87 l 317 87 q 349 87 376 104 q 404 121 420 149 q 437 176 437 208 l 437 208 z m 559 913 l 559 808 l 177 808 l 177 913 l 559 913 z "},"ă":{"ha":743,"x_min":41,"x_max":705,"o":"m 453 0 l 459 89 l 449 92 q 393 38 341 14 q 288 -11 229 -11 l 229 -11 q 171 -11 128 11 q 85 32 63 70 q 41 108 41 157 l 41 157 q 41 257 139 314 q 237 372 436 387 l 436 387 l 436 451 q 436 514 422 548 q 408 583 385 596 q 363 610 332 610 l 332 610 q 300 610 278 600 q 255 589 237 558 q 218 528 210 475 l 210 475 l 81 475 l 81 598 q 144 626 185 641 q 227 656 267 666 q 307 675 339 680 q 371 684 403 684 l 403 684 q 485 684 534 662 q 583 640 608 591 q 632 543 632 456 l 632 456 l 632 192 q 632 147 634 123 q 636 98 641 86 q 645 75 652 67 q 659 60 668 56 q 678 52 705 45 l 705 45 l 705 0 l 453 0 z m 437 208 l 437 320 q 332 317 281 281 q 231 244 231 174 l 231 174 q 231 132 254 110 q 277 87 317 87 l 317 87 q 349 87 376 104 q 404 121 420 149 q 437 176 437 208 l 437 208 z m 521 974 l 587 954 q 564 859 510 811 q 457 763 366 763 l 366 763 q 284 763 230 812 q 176 861 157 954 l 157 954 l 222 974 q 245 921 279 896 q 313 871 369 871 l 369 871 q 430 871 465 897 q 500 922 521 974 l 521 974 z "},"å":{"ha":743,"x_min":41,"x_max":705,"o":"m 453 0 l 459 89 l 449 92 q 393 38 341 14 q 288 -11 229 -11 l 229 -11 q 171 -11 128 11 q 85 32 63 70 q 41 108 41 157 l 41 157 q 41 257 139 314 q 237 372 436 387 l 436 387 l 436 451 q 436 514 422 548 q 408 583 385 596 q 363 610 332 610 l 332 610 q 300 610 278 600 q 255 589 237 558 q 218 528 210 475 l 210 475 l 81 475 l 81 598 q 144 626 185 641 q 227 656 267 666 q 307 675 339 680 q 371 684 403 684 l 403 684 q 485 684 534 662 q 583 640 608 591 q 632 543 632 456 l 632 456 l 632 192 q 632 147 634 123 q 636 98 641 86 q 645 75 652 67 q 659 60 668 56 q 678 52 705 45 l 705 45 l 705 0 l 453 0 z m 437 208 l 437 320 q 332 317 281 281 q 231 244 231 174 l 231 174 q 231 132 254 110 q 277 87 317 87 l 317 87 q 349 87 376 104 q 404 121 420 149 q 437 176 437 208 l 437 208 z m 365 735 l 365 735 q 288 735 248 771 q 208 807 208 876 l 208 876 q 208 923 230 956 q 251 989 289 1005 q 326 1021 374 1021 l 374 1021 q 450 1021 490 985 q 529 949 529 882 l 529 882 q 529 810 486 773 q 443 735 365 735 z m 290 880 l 290 880 q 290 836 310 812 q 330 787 370 787 l 370 787 q 408 787 428 810 q 448 833 448 874 l 448 874 q 448 920 427 944 q 406 968 369 968 l 369 968 q 330 968 310 945 q 290 922 290 880 z "},"ǻ":{"ha":743,"x_min":41,"x_max":705,"o":"m 453 0 l 459 89 l 449 92 q 393 38 341 14 q 288 -11 229 -11 l 229 -11 q 171 -11 128 11 q 85 32 63 70 q 41 108 41 157 l 41 157 q 41 257 139 314 q 237 372 436 387 l 436 387 l 436 451 q 436 514 422 548 q 408 583 385 596 q 363 610 332 610 l 332 610 q 300 610 278 600 q 255 589 237 558 q 218 528 210 475 l 210 475 l 81 475 l 81 598 q 144 626 185 641 q 227 656 267 666 q 307 675 339 680 q 371 684 403 684 l 403 684 q 485 684 534 662 q 583 640 608 591 q 632 543 632 456 l 632 456 l 632 192 q 632 147 634 123 q 636 98 641 86 q 645 75 652 67 q 659 60 668 56 q 678 52 705 45 l 705 45 l 705 0 l 453 0 z m 437 208 l 437 320 q 332 317 281 281 q 231 244 231 174 l 231 174 q 231 132 254 110 q 277 87 317 87 l 317 87 q 349 87 376 104 q 404 121 420 149 q 437 176 437 208 l 437 208 z m 365 735 l 365 735 q 288 735 248 771 q 208 807 208 876 l 208 876 q 208 923 230 956 q 251 989 289 1005 q 326 1021 374 1021 l 374 1021 q 450 1021 490 985 q 529 949 529 882 l 529 882 q 529 810 486 773 q 443 735 365 735 z m 290 880 l 290 880 q 290 836 310 812 q 330 787 370 787 l 370 787 q 408 787 428 810 q 448 833 448 874 l 448 874 q 448 920 427 944 q 406 968 369 968 l 369 968 q 330 968 310 945 q 290 922 290 880 z m 401 1292 l 543 1292 l 543 1247 l 308 1029 l 254 1074 l 401 1292 z "},"ą":{"ha":743,"x_min":41,"x_max":705,"o":"m 453 0 l 459 89 l 449 92 q 393 38 341 14 q 288 -11 229 -11 l 229 -11 q 171 -11 128 11 q 85 32 63 70 q 41 108 41 157 l 41 157 q 41 257 139 314 q 237 372 436 387 l 436 387 l 436 451 q 436 514 422 548 q 408 583 385 596 q 363 610 332 610 l 332 610 q 300 610 278 600 q 255 589 237 558 q 218 528 210 475 l 210 475 l 81 475 l 81 598 q 144 626 185 641 q 227 656 267 666 q 307 675 339 680 q 371 684 403 684 l 403 684 q 485 684 534 662 q 583 640 608 591 q 632 543 632 456 l 632 456 l 632 192 q 632 147 634 123 q 636 98 641 86 q 645 75 652 67 q 659 60 668 56 q 678 52 705 45 l 705 45 l 705 0 l 631 0 q 592 -37 572 -76 q 552 -115 552 -151 l 552 -151 q 552 -184 568 -201 q 584 -218 612 -218 l 612 -218 q 632 -218 647 -212 q 663 -205 675 -197 l 675 -197 l 701 -255 q 676 -272 645 -284 q 614 -296 578 -296 l 578 -296 q 551 -296 526 -289 q 500 -283 481 -269 q 461 -255 449 -231 q 437 -208 437 -174 l 437 -174 q 437 -127 467 -82 q 496 -37 553 0 l 553 0 l 453 0 z m 437 208 l 437 320 q 332 317 281 281 q 231 244 231 174 l 231 174 q 231 132 254 110 q 277 87 317 87 l 317 87 q 349 87 376 104 q 404 121 420 149 q 437 176 437 208 l 437 208 z "},"æ":{"ha":1103,"x_min":41,"x_max":1056,"o":"m 983 183 l 1038 123 q 970 51 900 20 q 830 -11 741 -11 l 741 -11 q 651 -11 586 20 q 520 51 482 113 l 482 113 l 475 113 q 423 51 362 20 q 300 -11 229 -11 l 229 -11 q 171 -11 128 11 q 85 32 63 70 q 41 108 41 157 l 41 157 q 41 257 139 314 q 237 372 436 387 l 436 387 l 436 454 q 436 518 421 551 q 406 585 384 597 q 363 610 331 610 l 331 610 q 300 610 278 599 q 255 588 237 558 q 218 528 210 475 l 210 475 l 81 475 l 81 598 q 144 626 185 641 q 227 656 267 666 q 307 675 339 680 q 371 684 403 684 l 403 684 q 467 684 505 666 q 542 648 566 612 l 566 612 l 573 612 q 612 647 658 665 q 703 684 760 684 l 760 684 q 822 684 868 669 q 915 655 948 630 q 981 604 1003 568 l 1003 568 q 1029 526 1042 471 l 1042 471 q 1055 414 1056 334 l 1056 334 l 626 334 q 627 212 670 154 q 713 96 801 96 l 801 96 q 852 96 894 115 q 935 134 983 183 l 983 183 z m 629 408 l 855 408 q 852 511 828 562 q 804 613 749 613 l 749 613 q 697 613 666 560 q 635 507 629 408 l 629 408 z m 437 208 l 437 320 q 231 315 231 176 l 231 176 q 231 132 253 110 q 275 87 319 87 l 319 87 q 349 87 377 104 q 404 121 420 149 q 437 176 437 208 l 437 208 z "},"ǽ":{"ha":1103,"x_min":41,"x_max":1056,"o":"m 983 183 l 1038 123 q 970 51 900 20 q 830 -11 741 -11 l 741 -11 q 651 -11 586 20 q 520 51 482 113 l 482 113 l 475 113 q 423 51 362 20 q 300 -11 229 -11 l 229 -11 q 171 -11 128 11 q 85 32 63 70 q 41 108 41 157 l 41 157 q 41 257 139 314 q 237 372 436 387 l 436 387 l 436 454 q 436 518 421 551 q 406 585 384 597 q 363 610 331 610 l 331 610 q 300 610 278 599 q 255 588 237 558 q 218 528 210 475 l 210 475 l 81 475 l 81 598 q 144 626 185 641 q 227 656 267 666 q 307 675 339 680 q 371 684 403 684 l 403 684 q 467 684 505 666 q 542 648 566 612 l 566 612 l 573 612 q 612 647 658 665 q 703 684 760 684 l 760 684 q 822 684 868 669 q 915 655 948 630 q 981 604 1003 568 l 1003 568 q 1029 526 1042 471 l 1042 471 q 1055 414 1056 334 l 1056 334 l 626 334 q 627 212 670 154 q 713 96 801 96 l 801 96 q 852 96 894 115 q 935 134 983 183 l 983 183 z m 629 408 l 855 408 q 852 511 828 562 q 804 613 749 613 l 749 613 q 697 613 666 560 q 635 507 629 408 l 629 408 z m 437 208 l 437 320 q 231 315 231 176 l 231 176 q 231 132 253 110 q 275 87 319 87 l 319 87 q 349 87 377 104 q 404 121 420 149 q 437 176 437 208 l 437 208 z m 597 1000 l 739 1000 l 739 956 l 503 737 l 449 782 l 597 1000 z "},"ć":{"ha":651,"x_min":62,"x_max":627,"o":"m 575 174 l 575 174 l 627 111 q 561 45 499 17 q 437 -11 363 -11 l 363 -11 q 216 -11 139 76 q 62 162 62 327 l 62 327 q 62 438 104 519 q 146 600 226 642 q 305 684 408 684 l 408 684 q 463 684 517 676 q 572 668 616 654 l 616 654 l 616 491 l 482 491 q 472 555 452 584 q 431 613 393 613 l 393 613 q 368 613 346 601 q 323 588 306 557 q 288 526 278 474 q 268 422 268 343 l 268 343 q 268 264 283 209 q 298 155 331 125 q 364 96 418 96 l 418 96 q 458 96 493 113 q 528 130 575 174 z m 407 1000 l 549 1000 l 549 956 l 313 737 l 259 782 l 407 1000 z "},"ĉ":{"ha":651,"x_min":62,"x_max":627,"o":"m 575 174 l 575 174 l 627 111 q 561 45 499 17 q 437 -11 363 -11 l 363 -11 q 216 -11 139 76 q 62 162 62 327 l 62 327 q 62 438 104 519 q 146 600 226 642 q 305 684 408 684 l 408 684 q 463 684 517 676 q 572 668 616 654 l 616 654 l 616 491 l 482 491 q 472 555 452 584 q 431 613 393 613 l 393 613 q 368 613 346 601 q 323 588 306 557 q 288 526 278 474 q 268 422 268 343 l 268 343 q 268 264 283 209 q 298 155 331 125 q 364 96 418 96 l 418 96 q 458 96 493 113 q 528 130 575 174 z m 305 996 l 423 996 l 563 783 l 511 738 l 363 886 l 356 886 l 207 738 l 155 783 l 305 996 z "},"č":{"ha":651,"x_min":62,"x_max":627,"o":"m 575 174 l 575 174 l 627 111 q 561 45 499 17 q 437 -11 363 -11 l 363 -11 q 216 -11 139 76 q 62 162 62 327 l 62 327 q 62 438 104 519 q 146 600 226 642 q 305 684 408 684 l 408 684 q 463 684 517 676 q 572 668 616 654 l 616 654 l 616 491 l 482 491 q 472 555 452 584 q 431 613 393 613 l 393 613 q 368 613 346 601 q 323 588 306 557 q 288 526 278 474 q 268 422 268 343 l 268 343 q 268 264 283 209 q 298 155 331 125 q 364 96 418 96 l 418 96 q 458 96 493 113 q 528 130 575 174 z m 412 747 l 294 747 l 155 960 l 207 1005 l 354 857 l 361 857 l 511 1005 l 563 960 l 412 747 z "},"ċ":{"ha":651,"x_min":62,"x_max":627,"o":"m 575 174 l 575 174 l 627 111 q 561 45 499 17 q 437 -11 363 -11 l 363 -11 q 216 -11 139 76 q 62 162 62 327 l 62 327 q 62 438 104 519 q 146 600 226 642 q 305 684 408 684 l 408 684 q 463 684 517 676 q 572 668 616 654 l 616 654 l 616 491 l 482 491 q 472 555 452 584 q 431 613 393 613 l 393 613 q 368 613 346 601 q 323 588 306 557 q 288 526 278 474 q 268 422 268 343 l 268 343 q 268 264 283 209 q 298 155 331 125 q 364 96 418 96 l 418 96 q 458 96 493 113 q 528 130 575 174 z m 266 943 l 452 943 l 452 777 l 266 777 l 266 943 z "},"ç":{"ha":651,"x_min":62,"x_max":627,"o":"m 575 174 l 575 174 l 627 111 q 597 81 567 58 q 537 35 504 20 l 504 20 l 409 -46 q 420 -62 426 -84 q 432 -107 432 -134 l 432 -134 q 432 -203 370 -244 q 308 -286 195 -292 l 195 -292 l 184 -227 q 240 -219 266 -200 q 291 -181 291 -141 l 291 -141 q 291 -116 288 -98 l 288 -98 l 288 -69 l 375 -11 l 363 -11 q 216 -11 139 76 q 62 162 62 327 l 62 327 q 62 438 104 519 q 146 600 226 642 q 305 684 408 684 l 408 684 q 463 684 517 676 q 572 668 616 654 l 616 654 l 616 491 l 482 491 q 472 555 452 584 q 431 613 393 613 l 393 613 q 368 613 346 601 q 323 588 306 557 q 288 526 278 474 q 268 422 268 343 l 268 343 q 268 264 283 209 q 298 155 331 125 q 364 96 418 96 l 418 96 q 458 96 493 113 q 528 130 575 174 z "},"ď":{"ha":1006,"x_min":65,"x_max":985,"o":"m 713 971 l 713 198 q 713 146 715 123 q 717 99 723 85 q 729 71 743 61 q 756 52 788 45 l 788 45 l 788 0 l 604 -6 l 522 -6 l 528 92 l 517 92 q 469 43 415 16 q 361 -11 311 -11 l 311 -11 q 188 -11 126 74 q 65 159 65 329 l 65 329 q 65 444 102 523 q 140 602 213 643 q 287 684 391 684 l 391 684 q 420 684 449 680 q 478 676 517 665 l 517 665 l 517 727 q 517 800 515 830 q 513 860 507 876 q 500 892 488 901 q 475 909 441 916 l 441 916 l 441 962 l 629 971 l 713 971 z m 517 224 l 517 450 q 517 533 490 573 q 462 613 404 613 l 404 613 q 362 613 332 583 q 302 553 287 496 q 271 439 271 361 l 271 361 q 271 227 300 161 q 330 96 391 96 l 391 96 q 420 96 449 110 q 478 125 498 155 q 517 185 517 224 l 517 224 z m 838 970 l 970 970 q 985 926 985 883 l 985 883 q 985 827 953 779 q 920 730 839 669 l 839 669 l 795 711 q 825 744 837 778 q 849 812 849 869 l 849 869 q 849 890 847 909 q 846 928 838 970 l 838 970 z "},"đ":{"ha":829,"x_min":65,"x_max":804,"o":"m 804 836 l 804 760 l 713 760 l 713 198 q 713 146 715 123 q 717 99 723 85 q 729 71 743 61 q 756 52 788 45 l 788 45 l 788 0 l 604 -6 l 522 -6 l 528 92 l 517 92 q 469 43 415 16 q 361 -11 311 -11 l 311 -11 q 188 -11 126 74 q 65 159 65 329 l 65 329 q 65 444 102 523 q 140 602 213 643 q 287 684 391 684 l 391 684 q 420 684 449 680 q 478 676 517 665 l 517 665 l 517 760 l 281 760 l 281 836 l 517 836 q 515 869 508 883 q 502 897 489 904 q 475 911 441 917 l 441 917 l 441 962 l 629 971 l 713 971 l 713 836 l 804 836 z m 517 224 l 517 450 q 517 533 490 573 q 462 613 404 613 l 404 613 q 362 613 332 583 q 302 553 287 496 q 271 439 271 361 l 271 361 q 271 227 300 161 q 330 96 391 96 l 391 96 q 420 96 449 110 q 478 125 498 155 q 517 185 517 224 l 517 224 z "},"è":{"ha":737,"x_min":62,"x_max":690,"o":"m 617 183 l 672 123 q 603 50 535 20 q 467 -11 379 -11 l 379 -11 q 221 -11 141 76 q 62 162 62 332 l 62 332 q 62 442 103 522 q 144 602 219 643 q 294 684 394 684 l 394 684 q 456 684 502 669 q 549 655 582 630 q 615 604 637 568 l 637 568 q 663 526 675 471 l 675 471 q 689 414 690 334 l 690 334 l 260 334 q 260 212 303 154 q 347 96 435 96 l 435 96 q 486 96 528 115 q 569 134 617 183 l 617 183 z m 263 408 l 489 408 q 486 511 462 562 q 437 613 383 613 l 383 613 q 331 613 300 560 q 269 507 263 408 l 263 408 z m 192 1000 l 334 1000 l 481 782 l 427 737 l 192 956 l 192 1000 z "},"é":{"ha":737,"x_min":62,"x_max":690,"o":"m 617 183 l 672 123 q 603 50 535 20 q 467 -11 379 -11 l 379 -11 q 221 -11 141 76 q 62 162 62 332 l 62 332 q 62 442 103 522 q 144 602 219 643 q 294 684 394 684 l 394 684 q 456 684 502 669 q 549 655 582 630 q 615 604 637 568 l 637 568 q 663 526 675 471 l 675 471 q 689 414 690 334 l 690 334 l 260 334 q 260 212 303 154 q 347 96 435 96 l 435 96 q 486 96 528 115 q 569 134 617 183 l 617 183 z m 263 408 l 489 408 q 486 511 462 562 q 437 613 383 613 l 383 613 q 331 613 300 560 q 269 507 263 408 l 263 408 z m 425 1000 l 567 1000 l 567 956 l 332 737 l 277 782 l 425 1000 z "},"ê":{"ha":737,"x_min":62,"x_max":690,"o":"m 617 183 l 672 123 q 603 50 535 20 q 467 -11 379 -11 l 379 -11 q 221 -11 141 76 q 62 162 62 332 l 62 332 q 62 442 103 522 q 144 602 219 643 q 294 684 394 684 l 394 684 q 456 684 502 669 q 549 655 582 630 q 615 604 637 568 l 637 568 q 663 526 675 471 l 675 471 q 689 414 690 334 l 690 334 l 260 334 q 260 212 303 154 q 347 96 435 96 l 435 96 q 486 96 528 115 q 569 134 617 183 l 617 183 z m 263 408 l 489 408 q 486 511 462 562 q 437 613 383 613 l 383 613 q 331 613 300 560 q 269 507 263 408 l 263 408 z m 325 996 l 443 996 l 583 783 l 530 738 l 383 886 l 376 886 l 227 738 l 174 783 l 325 996 z "},"ě":{"ha":737,"x_min":62,"x_max":690,"o":"m 617 183 l 672 123 q 603 50 535 20 q 467 -11 379 -11 l 379 -11 q 221 -11 141 76 q 62 162 62 332 l 62 332 q 62 442 103 522 q 144 602 219 643 q 294 684 394 684 l 394 684 q 456 684 502 669 q 549 655 582 630 q 615 604 637 568 l 637 568 q 663 526 675 471 l 675 471 q 689 414 690 334 l 690 334 l 260 334 q 260 212 303 154 q 347 96 435 96 l 435 96 q 486 96 528 115 q 569 134 617 183 l 617 183 z m 263 408 l 489 408 q 486 511 462 562 q 437 613 383 613 l 383 613 q 331 613 300 560 q 269 507 263 408 l 263 408 z m 432 747 l 314 747 l 174 960 l 227 1005 l 374 857 l 381 857 l 530 1005 l 583 960 l 432 747 z "},"ë":{"ha":737,"x_min":62,"x_max":690,"o":"m 617 183 l 672 123 q 603 50 535 20 q 467 -11 379 -11 l 379 -11 q 221 -11 141 76 q 62 162 62 332 l 62 332 q 62 442 103 522 q 144 602 219 643 q 294 684 394 684 l 394 684 q 456 684 502 669 q 549 655 582 630 q 615 604 637 568 l 637 568 q 663 526 675 471 l 675 471 q 689 414 690 334 l 690 334 l 260 334 q 260 212 303 154 q 347 96 435 96 l 435 96 q 486 96 528 115 q 569 134 617 183 l 617 183 z m 263 408 l 489 408 q 486 511 462 562 q 437 613 383 613 l 383 613 q 331 613 300 560 q 269 507 263 408 l 263 408 z m 183 935 l 325 935 l 325 786 l 183 786 l 183 935 z m 431 935 l 573 935 l 573 786 l 431 786 l 431 935 z "},"ē":{"ha":737,"x_min":62,"x_max":690,"o":"m 617 183 l 672 123 q 603 50 535 20 q 467 -11 379 -11 l 379 -11 q 221 -11 141 76 q 62 162 62 332 l 62 332 q 62 442 103 522 q 144 602 219 643 q 294 684 394 684 l 394 684 q 456 684 502 669 q 549 655 582 630 q 615 604 637 568 l 637 568 q 663 526 675 471 l 675 471 q 689 414 690 334 l 690 334 l 260 334 q 260 212 303 154 q 347 96 435 96 l 435 96 q 486 96 528 115 q 569 134 617 183 l 617 183 z m 263 408 l 489 408 q 486 511 462 562 q 437 613 383 613 l 383 613 q 331 613 300 560 q 269 507 263 408 l 263 408 z m 570 913 l 570 808 l 187 808 l 187 913 l 570 913 z "},"ĕ":{"ha":737,"x_min":62,"x_max":690,"o":"m 617 183 l 672 123 q 603 50 535 20 q 467 -11 379 -11 l 379 -11 q 221 -11 141 76 q 62 162 62 332 l 62 332 q 62 442 103 522 q 144 602 219 643 q 294 684 394 684 l 394 684 q 456 684 502 669 q 549 655 582 630 q 615 604 637 568 l 637 568 q 663 526 675 471 l 675 471 q 689 414 690 334 l 690 334 l 260 334 q 260 212 303 154 q 347 96 435 96 l 435 96 q 486 96 528 115 q 569 134 617 183 l 617 183 z m 263 408 l 489 408 q 486 511 462 562 q 437 613 383 613 l 383 613 q 331 613 300 560 q 269 507 263 408 l 263 408 z m 528 977 l 593 956 q 570 862 517 814 q 464 766 373 766 l 373 766 q 291 766 237 814 q 183 863 163 956 l 163 956 l 229 977 q 252 924 286 899 q 319 874 376 874 l 376 874 q 437 874 472 900 q 507 925 528 977 l 528 977 z "},"ė":{"ha":737,"x_min":62,"x_max":690,"o":"m 617 183 l 672 123 q 603 50 535 20 q 467 -11 379 -11 l 379 -11 q 221 -11 141 76 q 62 162 62 332 l 62 332 q 62 442 103 522 q 144 602 219 643 q 294 684 394 684 l 394 684 q 456 684 502 669 q 549 655 582 630 q 615 604 637 568 l 637 568 q 663 526 675 471 l 675 471 q 689 414 690 334 l 690 334 l 260 334 q 260 212 303 154 q 347 96 435 96 l 435 96 q 486 96 528 115 q 569 134 617 183 l 617 183 z m 263 408 l 489 408 q 486 511 462 562 q 437 613 383 613 l 383 613 q 331 613 300 560 q 269 507 263 408 l 263 408 z m 286 943 l 471 943 l 471 777 l 286 777 l 286 943 z "},"ę":{"ha":737,"x_min":62,"x_max":690,"o":"m 617 183 l 672 123 q 646 96 620 74 l 620 74 q 600 54 577 30 q 555 5 537 -24 q 519 -54 508 -85 q 497 -117 497 -151 l 497 -151 q 497 -184 513 -201 q 529 -218 557 -218 l 557 -218 q 577 -218 592 -212 q 608 -205 620 -197 l 620 -197 l 646 -255 q 621 -272 590 -284 q 559 -296 524 -296 l 524 -296 q 496 -296 471 -289 q 446 -283 426 -269 q 406 -255 394 -231 q 382 -208 382 -174 l 382 -174 q 382 -83 484 1 l 484 1 q 437 -11 379 -11 l 379 -11 q 221 -11 141 76 q 62 162 62 332 l 62 332 q 62 442 103 522 q 144 602 219 643 q 294 684 394 684 l 394 684 q 456 684 502 669 q 549 655 582 630 q 615 604 637 568 l 637 568 q 663 526 675 471 l 675 471 q 689 414 690 334 l 690 334 l 260 334 q 260 212 303 154 q 347 96 435 96 l 435 96 q 486 96 528 115 q 569 134 617 183 l 617 183 z m 263 408 l 489 408 q 486 511 462 562 q 437 613 383 613 l 383 613 q 331 613 300 560 q 269 507 263 408 l 263 408 z "},"ĝ":{"ha":722,"x_min":24,"x_max":714,"o":"m 714 673 l 714 582 l 598 595 l 595 587 q 614 568 627 535 q 640 503 640 456 l 640 456 q 640 338 568 277 q 496 216 357 216 l 357 216 q 290 216 248 229 l 248 229 q 214 198 214 163 l 214 163 q 214 142 222 132 q 231 121 251 115 q 271 109 309 109 l 309 109 l 477 109 q 590 109 646 65 q 703 21 703 -72 l 703 -72 q 703 -144 662 -197 q 621 -249 544 -276 q 467 -304 362 -304 l 362 -304 q 286 -304 223 -297 q 161 -290 117 -272 q 73 -254 48 -223 q 24 -192 24 -144 l 24 -144 q 24 -105 49 -73 q 73 -40 117 -17 l 117 -17 q 89 3 76 30 q 63 56 63 95 l 63 95 q 63 127 76 155 q 90 182 112 205 q 134 228 169 255 l 169 255 q 116 285 89 333 q 62 382 62 447 l 62 447 q 62 510 84 555 q 107 600 147 629 q 186 657 240 670 q 294 684 357 684 l 357 684 q 391 684 418 680 q 444 677 469 673 l 469 673 l 714 673 z m 256 455 l 256 455 q 256 370 280 328 q 304 286 356 286 l 356 286 q 403 286 428 325 q 452 363 452 443 l 452 443 q 452 526 428 570 q 404 614 355 614 l 355 614 q 304 614 280 575 q 256 536 256 455 z m 232 -43 l 232 -43 q 208 -62 195 -85 q 182 -107 182 -136 l 182 -136 q 182 -185 225 -209 q 267 -232 359 -232 l 359 -232 q 444 -232 489 -203 q 533 -175 533 -123 l 533 -123 q 533 -100 525 -84 q 517 -68 493 -57 q 469 -46 426 -46 l 426 -46 l 309 -46 q 260 -46 232 -43 z m 309 996 l 427 996 l 567 783 l 515 738 l 368 886 l 360 886 l 211 738 l 159 783 l 309 996 z "},"ğ":{"ha":722,"x_min":24,"x_max":714,"o":"m 714 673 l 714 582 l 598 595 l 595 587 q 614 568 627 535 q 640 503 640 456 l 640 456 q 640 338 568 277 q 496 216 357 216 l 357 216 q 290 216 248 229 l 248 229 q 214 198 214 163 l 214 163 q 214 142 222 132 q 231 121 251 115 q 271 109 309 109 l 309 109 l 477 109 q 590 109 646 65 q 703 21 703 -72 l 703 -72 q 703 -144 662 -197 q 621 -249 544 -276 q 467 -304 362 -304 l 362 -304 q 286 -304 223 -297 q 161 -290 117 -272 q 73 -254 48 -223 q 24 -192 24 -144 l 24 -144 q 24 -105 49 -73 q 73 -40 117 -17 l 117 -17 q 89 3 76 30 q 63 56 63 95 l 63 95 q 63 127 76 155 q 90 182 112 205 q 134 228 169 255 l 169 255 q 116 285 89 333 q 62 382 62 447 l 62 447 q 62 510 84 555 q 107 600 147 629 q 186 657 240 670 q 294 684 357 684 l 357 684 q 391 684 418 680 q 444 677 469 673 l 469 673 l 714 673 z m 256 455 l 256 455 q 256 370 280 328 q 304 286 356 286 l 356 286 q 403 286 428 325 q 452 363 452 443 l 452 443 q 452 526 428 570 q 404 614 355 614 l 355 614 q 304 614 280 575 q 256 536 256 455 z m 232 -43 l 232 -43 q 208 -62 195 -85 q 182 -107 182 -136 l 182 -136 q 182 -185 225 -209 q 267 -232 359 -232 l 359 -232 q 444 -232 489 -203 q 533 -175 533 -123 l 533 -123 q 533 -100 525 -84 q 517 -68 493 -57 q 469 -46 426 -46 l 426 -46 l 309 -46 q 260 -46 232 -43 z m 512 977 l 578 956 q 555 862 502 814 q 448 766 357 766 l 357 766 q 275 766 221 814 q 168 863 148 956 l 148 956 l 214 977 q 237 924 270 899 q 304 874 360 874 l 360 874 q 421 874 456 900 q 492 925 512 977 l 512 977 z "},"ġ":{"ha":722,"x_min":24,"x_max":714,"o":"m 714 673 l 714 582 l 598 595 l 595 587 q 614 568 627 535 q 640 503 640 456 l 640 456 q 640 338 568 277 q 496 216 357 216 l 357 216 q 290 216 248 229 l 248 229 q 214 198 214 163 l 214 163 q 214 142 222 132 q 231 121 251 115 q 271 109 309 109 l 309 109 l 477 109 q 590 109 646 65 q 703 21 703 -72 l 703 -72 q 703 -144 662 -197 q 621 -249 544 -276 q 467 -304 362 -304 l 362 -304 q 286 -304 223 -297 q 161 -290 117 -272 q 73 -254 48 -223 q 24 -192 24 -144 l 24 -144 q 24 -105 49 -73 q 73 -40 117 -17 l 117 -17 q 89 3 76 30 q 63 56 63 95 l 63 95 q 63 127 76 155 q 90 182 112 205 q 134 228 169 255 l 169 255 q 116 285 89 333 q 62 382 62 447 l 62 447 q 62 510 84 555 q 107 600 147 629 q 186 657 240 670 q 294 684 357 684 l 357 684 q 391 684 418 680 q 444 677 469 673 l 469 673 l 714 673 z m 256 455 l 256 455 q 256 370 280 328 q 304 286 356 286 l 356 286 q 403 286 428 325 q 452 363 452 443 l 452 443 q 452 526 428 570 q 404 614 355 614 l 355 614 q 304 614 280 575 q 256 536 256 455 z m 232 -43 l 232 -43 q 208 -62 195 -85 q 182 -107 182 -136 l 182 -136 q 182 -185 225 -209 q 267 -232 359 -232 l 359 -232 q 444 -232 489 -203 q 533 -175 533 -123 l 533 -123 q 533 -100 525 -84 q 517 -68 493 -57 q 469 -46 426 -46 l 426 -46 l 309 -46 q 260 -46 232 -43 z m 270 943 l 456 943 l 456 777 l 270 777 l 270 943 z "},"ģ":{"ha":722,"x_min":24,"x_max":714,"o":"m 714 673 l 714 582 l 598 595 l 595 587 q 614 568 627 535 q 640 503 640 456 l 640 456 q 640 338 568 277 q 496 216 357 216 l 357 216 q 290 216 248 229 l 248 229 q 214 198 214 163 l 214 163 q 214 142 222 132 q 231 121 251 115 q 271 109 309 109 l 309 109 l 477 109 q 590 109 646 65 q 703 21 703 -72 l 703 -72 q 703 -144 662 -197 q 621 -249 544 -276 q 467 -304 362 -304 l 362 -304 q 286 -304 223 -297 q 161 -290 117 -272 q 73 -254 48 -223 q 24 -192 24 -144 l 24 -144 q 24 -105 49 -73 q 73 -40 117 -17 l 117 -17 q 89 3 76 30 q 63 56 63 95 l 63 95 q 63 127 76 155 q 90 182 112 205 q 134 228 169 255 l 169 255 q 116 285 89 333 q 62 382 62 447 l 62 447 q 62 510 84 555 q 107 600 147 629 q 186 657 240 670 q 294 684 357 684 l 357 684 q 391 684 418 680 q 444 677 469 673 l 469 673 l 714 673 z m 256 455 l 256 455 q 256 370 280 328 q 304 286 356 286 l 356 286 q 403 286 428 325 q 452 363 452 443 l 452 443 q 452 526 428 570 q 404 614 355 614 l 355 614 q 304 614 280 575 q 256 536 256 455 z m 232 -43 l 232 -43 q 208 -62 195 -85 q 182 -107 182 -136 l 182 -136 q 182 -185 225 -209 q 267 -232 359 -232 l 359 -232 q 444 -232 489 -203 q 533 -175 533 -123 l 533 -123 q 533 -100 525 -84 q 517 -68 493 -57 q 469 -46 426 -46 l 426 -46 l 309 -46 q 260 -46 232 -43 z m 427 778 l 300 759 q 284 800 284 840 l 284 840 q 284 878 299 909 q 315 941 347 973 q 379 1005 437 1048 l 437 1048 l 479 998 q 447 967 433 935 q 418 903 418 852 l 418 852 q 418 819 427 778 l 427 778 z "},"ĥ":{"ha":829,"x_min":39,"x_max":786,"o":"m 312 584 l 315 583 q 376 638 425 661 q 473 684 524 684 l 524 684 q 599 684 640 656 q 680 629 699 577 q 718 526 718 444 l 718 444 l 718 196 q 718 166 719 140 q 720 114 724 98 q 728 83 735 73 q 742 63 755 56 q 768 50 786 45 l 786 45 l 786 0 l 457 0 l 457 45 q 489 52 501 66 q 513 81 517 106 q 522 131 522 195 l 522 195 l 522 372 q 522 440 517 478 q 513 515 502 536 q 492 557 475 567 q 458 577 431 577 l 431 577 q 406 577 377 561 q 349 545 331 518 q 312 490 312 459 l 312 459 l 312 196 q 312 158 313 137 q 314 117 316 105 q 318 94 322 85 q 326 77 332 69 q 338 62 349 56 q 361 50 380 45 l 380 45 l 380 0 l 47 0 l 47 45 q 68 50 79 56 q 91 62 97 71 q 104 79 109 93 q 113 106 115 129 q 116 153 116 196 l 116 196 l 116 725 q 116 783 115 811 q 114 838 111 857 q 107 876 100 887 q 94 898 81 905 q 68 911 39 917 l 39 917 l 39 962 l 227 971 l 312 971 l 312 584 z m 356 1221 l 474 1221 l 627 1050 l 579 1005 l 418 1118 l 410 1118 l 248 1005 l 201 1050 l 356 1221 z "},"ħ":{"ha":829,"x_min":26,"x_max":786,"o":"m 26 747 l 26 823 l 115 823 q 115 869 101 887 q 87 905 39 911 l 39 911 l 39 962 l 227 971 l 312 971 l 312 823 l 548 823 l 548 747 l 312 747 l 312 556 l 315 555 q 427 656 524 656 l 524 656 q 628 656 673 598 q 718 541 718 416 l 718 416 l 718 196 q 718 101 731 78 q 744 56 786 45 l 786 45 l 786 0 l 457 0 l 457 45 q 499 55 510 82 q 522 109 522 195 l 522 195 l 522 345 q 522 487 498 518 q 474 549 431 549 l 431 549 q 390 549 351 513 q 312 477 312 431 l 312 431 l 312 196 q 312 102 325 79 q 338 56 380 45 l 380 45 l 380 0 l 47 0 l 47 45 q 93 56 104 82 q 116 108 116 196 l 116 196 l 116 747 l 26 747 z "},"ì":{"ha":437,"x_min":33,"x_max":389,"o":"m 58 0 l 58 45 q 91 54 103 68 q 116 82 120 106 q 125 131 125 195 l 125 195 l 125 511 q 125 544 122 564 q 119 585 110 597 q 102 609 87 615 q 73 622 50 627 l 50 627 l 50 673 l 236 678 l 321 678 l 321 196 q 321 158 322 137 q 323 117 325 105 q 327 94 331 85 q 334 77 340 69 q 347 62 358 56 q 370 50 389 45 l 389 45 l 389 0 l 58 0 z m 33 1000 l 174 1000 l 322 782 l 268 737 l 33 956 l 33 1000 z "},"í":{"ha":437,"x_min":50,"x_max":405,"o":"m 58 0 l 58 45 q 91 54 103 68 q 116 82 120 106 q 125 131 125 195 l 125 195 l 125 511 q 125 544 122 564 q 119 585 110 597 q 102 609 87 615 q 73 622 50 627 l 50 627 l 50 673 l 236 678 l 321 678 l 321 196 q 321 158 322 137 q 323 117 325 105 q 327 94 331 85 q 334 77 340 69 q 347 62 358 56 q 370 50 389 45 l 389 45 l 389 0 l 58 0 z m 263 1000 l 405 1000 l 405 956 l 170 737 l 115 782 l 263 1000 z "},"î":{"ha":437,"x_min":14,"x_max":422,"o":"m 58 0 l 58 45 q 91 54 103 68 q 116 82 120 106 q 125 131 125 195 l 125 195 l 125 511 q 125 544 122 564 q 119 585 110 597 q 102 609 87 615 q 73 622 50 627 l 50 627 l 50 673 l 236 678 l 321 678 l 321 196 q 321 158 322 137 q 323 117 325 105 q 327 94 331 85 q 334 77 340 69 q 347 62 358 56 q 370 50 389 45 l 389 45 l 389 0 l 58 0 z m 165 996 l 283 996 l 422 783 l 370 738 l 223 886 l 216 886 l 66 738 l 14 783 l 165 996 z "},"ĩ":{"ha":437,"x_min":-20,"x_max":458,"o":"m 58 0 l 58 45 q 91 54 103 68 q 116 82 120 106 q 125 131 125 195 l 125 195 l 125 511 q 125 544 122 564 q 119 585 110 597 q 102 609 87 615 q 73 622 50 627 l 50 627 l 50 673 l 236 678 l 321 678 l 321 196 q 321 158 322 137 q 323 117 325 105 q 327 94 331 85 q 334 77 340 69 q 347 62 358 56 q 370 50 389 45 l 389 45 l 389 0 l 58 0 z m 394 951 l 394 951 l 458 923 q 419 843 383 805 q 347 766 309 766 l 309 766 q 284 766 263 773 q 243 781 204 807 l 204 807 q 182 822 171 828 q 159 835 148 838 q 137 842 125 842 l 125 842 q 110 842 98 836 q 86 830 72 813 q 58 797 43 766 l 43 766 l -20 794 q 12 856 33 886 q 54 917 78 934 q 102 951 131 951 l 131 951 q 147 951 162 947 q 176 944 190 937 q 203 930 229 913 l 229 913 q 254 896 266 889 q 277 882 289 879 q 300 876 315 876 l 315 876 q 338 876 356 893 q 374 911 394 951 z "},"ï":{"ha":437,"x_min":24,"x_max":414,"o":"m 58 0 l 58 45 q 91 54 103 68 q 116 82 120 106 q 125 131 125 195 l 125 195 l 125 511 q 125 544 122 564 q 119 585 110 597 q 102 609 87 615 q 73 622 50 627 l 50 627 l 50 673 l 236 678 l 321 678 l 321 196 q 321 158 322 137 q 323 117 325 105 q 327 94 331 85 q 334 77 340 69 q 347 62 358 56 q 370 50 389 45 l 389 45 l 389 0 l 58 0 z m 24 935 l 165 935 l 165 786 l 24 786 l 24 935 z m 272 935 l 414 935 l 414 786 l 272 786 l 272 935 z "},"ī":{"ha":437,"x_min":27,"x_max":410,"o":"m 58 0 l 58 45 q 91 54 103 68 q 116 82 120 106 q 125 131 125 195 l 125 195 l 125 511 q 125 544 122 564 q 119 585 110 597 q 102 609 87 615 q 73 622 50 627 l 50 627 l 50 673 l 236 678 l 321 678 l 321 196 q 321 158 322 137 q 323 117 325 105 q 327 94 331 85 q 334 77 340 69 q 347 62 358 56 q 370 50 389 45 l 389 45 l 389 0 l 58 0 z m 410 913 l 410 808 l 27 808 l 27 913 l 410 913 z "},"ĭ":{"ha":437,"x_min":3,"x_max":433,"o":"m 58 0 l 58 45 q 91 54 103 68 q 116 82 120 106 q 125 131 125 195 l 125 195 l 125 511 q 125 544 122 564 q 119 585 110 597 q 102 609 87 615 q 73 622 50 627 l 50 627 l 50 673 l 236 678 l 321 678 l 321 196 q 321 158 322 137 q 323 117 325 105 q 327 94 331 85 q 334 77 340 69 q 347 62 358 56 q 370 50 389 45 l 389 45 l 389 0 l 58 0 z m 368 977 l 433 956 q 410 862 357 814 q 304 766 213 766 l 213 766 q 131 766 77 814 q 23 863 3 956 l 3 956 l 69 977 q 92 924 126 899 q 159 874 216 874 l 216 874 q 277 874 312 900 q 347 925 368 977 l 368 977 z "},"į":{"ha":437,"x_min":50,"x_max":389,"o":"m 130 943 l 315 943 l 315 777 l 130 777 l 130 943 z m 58 0 l 58 45 q 91 54 103 68 q 116 82 120 106 q 125 131 125 195 l 125 195 l 125 511 q 125 544 122 564 q 119 585 110 597 q 102 609 87 615 q 73 622 50 627 l 50 627 l 50 673 l 236 678 l 321 678 l 321 196 q 321 158 322 137 q 323 117 325 105 q 327 94 331 85 q 334 77 340 69 q 347 62 358 56 q 370 50 389 45 l 389 45 l 389 0 l 319 0 q 280 -37 260 -76 q 240 -115 240 -151 l 240 -151 q 240 -184 256 -201 q 272 -218 300 -218 l 300 -218 q 320 -218 335 -212 q 351 -205 363 -197 l 363 -197 l 389 -255 q 364 -272 333 -284 q 302 -296 267 -296 l 267 -296 q 239 -296 214 -289 q 189 -283 169 -269 q 149 -255 137 -231 q 125 -208 125 -174 l 125 -174 q 125 -127 155 -82 q 184 -37 241 0 l 241 0 l 58 0 z "},"ı":{"ha":437,"x_min":50,"x_max":389,"o":"m 58 0 l 58 45 q 91 54 103 68 q 116 82 120 106 q 125 131 125 195 l 125 195 l 125 511 q 125 544 122 564 q 119 585 110 597 q 102 609 87 615 q 73 622 50 627 l 50 627 l 50 673 l 236 678 l 321 678 l 321 196 q 321 158 322 137 q 323 117 325 105 q 327 94 331 85 q 334 77 340 69 q 347 62 358 56 q 370 50 389 45 l 389 45 l 389 0 l 58 0 z "},"ĳ":{"ha":857,"x_min":50,"x_max":747,"o":"m 130 943 l 315 943 l 315 777 l 130 777 l 130 943 z m 58 0 l 58 45 q 91 54 103 68 q 116 82 120 106 q 125 131 125 195 l 125 195 l 125 511 q 125 544 122 564 q 119 585 110 597 q 102 609 87 615 q 73 622 50 627 l 50 627 l 50 673 l 236 678 l 321 678 l 321 196 q 321 158 322 137 q 323 117 325 105 q 327 94 331 85 q 334 77 340 69 q 347 62 358 56 q 370 50 389 45 l 389 45 l 389 0 l 58 0 z m 556 943 l 742 943 l 742 777 l 556 777 l 556 943 z m 747 678 l 747 54 q 747 -26 733 -82 q 720 -137 687 -179 q 654 -221 595 -253 q 536 -284 477 -300 l 477 -300 l 445 -221 q 490 -203 511 -184 q 532 -165 542 -135 q 551 -106 551 -54 l 551 -54 l 551 511 q 551 544 548 564 q 545 585 537 597 q 528 609 514 615 q 499 622 476 627 l 476 627 l 476 673 l 663 678 l 747 678 z "},"ĵ":{"ha":420,"x_min":5,"x_max":413,"o":"m 154 996 l 272 996 l 413 783 l 361 738 l 214 882 l 206 882 l 57 738 l 5 783 l 154 996 z m 116 -54 l 116 511 q 116 544 113 564 q 110 585 101 597 q 93 609 78 615 q 64 622 41 627 l 41 627 l 41 673 l 227 678 l 312 678 l 312 54 q 312 -26 298 -82 q 284 -137 251 -179 q 218 -221 159 -253 q 100 -284 42 -300 l 42 -300 l 9 -221 q 55 -203 76 -184 q 97 -165 106 -135 q 116 -106 116 -54 l 116 -54 z "},"ķ":{"ha":822,"x_min":39,"x_max":836,"o":"m 636 519 l 538 428 l 713 169 q 751 111 770 90 q 788 68 802 59 q 815 50 836 45 l 836 45 l 836 0 l 504 0 l 504 45 q 534 51 534 77 l 534 77 q 534 94 523 118 q 511 142 476 193 l 476 193 l 424 272 q 406 298 395 310 q 385 322 374 328 q 363 334 345 334 l 345 334 l 312 334 l 312 196 q 312 132 316 107 q 320 83 333 68 q 345 54 380 45 l 380 45 l 380 0 l 47 0 l 47 45 q 68 50 79 56 q 91 62 97 71 q 104 79 109 93 q 113 106 115 129 q 116 153 116 196 l 116 196 l 116 725 q 116 783 115 811 q 114 838 111 857 q 107 876 100 887 q 94 898 81 905 q 68 911 39 917 l 39 917 l 39 962 l 228 971 l 312 971 l 312 399 l 334 399 q 358 399 372 404 q 385 409 400 419 q 414 430 445 457 q 475 485 491 506 q 507 528 512 544 q 517 559 517 574 l 517 574 q 517 621 458 629 l 458 629 l 458 673 l 798 673 l 798 629 q 771 625 739 605 q 706 585 636 519 l 636 519 z m 368 -69 l 503 -69 q 515 -98 515 -134 l 515 -134 q 515 -203 453 -244 q 391 -286 278 -292 l 278 -292 l 267 -227 q 310 -220 332 -210 q 353 -200 363 -182 q 374 -163 374 -132 l 374 -132 q 374 -101 368 -69 l 368 -69 z "},"ĸ":{"ha":831,"x_min":50,"x_max":844,"o":"m 125 196 l 125 511 q 125 544 122 564 q 119 585 110 597 q 102 609 87 615 q 73 622 50 627 l 50 627 l 50 673 l 236 678 l 321 678 l 321 399 l 345 399 q 366 399 379 404 l 379 404 q 394 408 410 420 l 410 420 q 431 436 463 466 l 463 466 q 487 488 502 509 l 502 509 q 515 527 521 544 l 521 544 q 526 558 526 574 l 526 574 q 526 621 467 629 l 467 629 l 467 673 l 806 673 l 806 629 q 780 625 747 605 q 715 585 645 519 l 645 519 l 547 428 l 722 169 q 760 111 779 90 q 797 68 810 59 q 824 50 844 45 l 844 45 l 844 0 l 513 0 l 513 45 q 543 51 543 77 l 543 77 q 543 88 538 102 q 534 115 524 133 q 513 150 485 193 l 485 193 l 433 272 q 415 298 404 310 q 393 322 383 328 q 372 334 353 334 l 353 334 l 321 334 l 321 196 q 321 132 325 107 q 329 83 341 68 q 354 54 389 45 l 389 45 l 389 0 l 56 0 l 56 45 q 77 50 88 56 q 100 62 106 71 q 113 79 117 93 q 122 106 123 129 q 125 153 125 196 l 125 196 z "},"ĺ":{"ha":428,"x_min":39,"x_max":416,"o":"m 312 971 l 312 196 q 312 132 316 107 q 320 83 333 68 q 345 54 380 45 l 380 45 l 380 0 l 47 0 l 47 45 q 68 50 79 56 q 91 62 97 71 q 104 79 109 93 q 113 106 115 129 q 116 153 116 196 l 116 196 l 116 725 q 116 783 115 811 q 114 838 111 857 q 108 876 101 887 q 94 898 81 905 q 68 911 39 917 l 39 917 l 39 962 l 227 971 l 312 971 z m 262 1219 l 416 1219 l 416 1175 l 140 996 l 96 1043 l 262 1219 z "},"ľ":{"ha":605,"x_min":39,"x_max":584,"o":"m 312 971 l 312 196 q 312 132 316 107 q 320 83 333 68 q 345 54 380 45 l 380 45 l 380 0 l 47 0 l 47 45 q 68 50 79 56 q 91 62 97 71 q 104 79 109 93 q 113 106 115 129 q 116 153 116 196 l 116 196 l 116 725 q 116 783 115 811 q 114 838 111 857 q 108 876 101 887 q 94 898 81 905 q 68 911 39 917 l 39 917 l 39 962 l 227 971 l 312 971 z m 437 970 l 568 970 q 584 926 584 883 l 584 883 q 584 827 551 779 q 519 730 437 669 l 437 669 l 394 711 q 424 744 436 778 q 448 812 448 869 l 448 869 q 448 890 446 909 q 444 928 437 970 l 437 970 z "},"ļ":{"ha":428,"x_min":39,"x_max":380,"o":"m 312 971 l 312 196 q 312 132 316 107 q 320 83 333 68 q 345 54 380 45 l 380 45 l 380 0 l 47 0 l 47 45 q 68 50 79 56 q 91 62 97 71 q 104 79 109 93 q 113 106 115 129 q 116 153 116 196 l 116 196 l 116 725 q 116 783 115 811 q 114 838 111 857 q 108 876 101 887 q 94 898 81 905 q 68 911 39 917 l 39 917 l 39 962 l 227 971 l 312 971 z m 144 -69 l 279 -69 q 290 -98 290 -134 l 290 -134 q 290 -203 228 -244 q 166 -286 54 -292 l 54 -292 l 43 -227 q 85 -220 107 -210 q 129 -200 139 -182 q 149 -163 149 -132 l 149 -132 q 149 -101 144 -69 l 144 -69 z "},"ł":{"ha":475,"x_min":11,"x_max":465,"o":"m 465 614 l 336 533 l 336 196 q 336 132 340 107 q 344 83 356 68 q 369 54 404 45 l 404 45 l 404 0 l 71 0 l 71 45 q 92 50 103 56 q 115 62 121 71 q 127 79 132 93 q 137 106 138 129 q 140 153 140 196 l 140 196 l 140 425 l 52 366 l 11 433 l 140 513 l 140 725 q 140 783 139 811 q 138 838 135 857 q 132 876 124 887 q 117 898 104 905 q 92 911 63 917 l 63 917 l 63 962 l 251 971 l 336 971 l 336 621 l 424 681 l 465 614 z "},"ŀ":{"ha":615,"x_min":39,"x_max":597,"o":"m 312 971 l 312 196 q 312 132 316 107 q 320 83 333 68 q 345 54 380 45 l 380 45 l 380 0 l 47 0 l 47 45 q 68 50 79 56 q 91 62 97 71 q 104 79 109 93 q 113 106 115 129 q 116 153 116 196 l 116 196 l 116 725 q 116 783 115 811 q 114 838 111 857 q 108 876 101 887 q 94 898 81 905 q 68 911 39 917 l 39 917 l 39 962 l 227 971 l 312 971 z m 428 554 l 597 554 l 597 388 l 428 388 l 428 554 z "},"ń":{"ha":838,"x_min":50,"x_max":795,"o":"m 795 45 l 795 0 l 467 0 l 467 45 q 498 52 510 67 q 522 81 527 106 q 531 131 531 195 l 531 195 l 531 376 q 531 425 529 455 q 527 486 523 506 q 518 526 510 539 q 503 552 493 561 q 484 569 471 573 q 459 577 440 577 l 440 577 q 414 577 387 561 q 359 545 340 517 q 321 489 321 457 l 321 457 l 321 196 q 321 132 325 106 q 329 81 341 67 q 354 52 386 45 l 386 45 l 386 0 l 58 0 l 58 45 q 91 54 103 68 q 116 82 120 106 q 125 131 125 195 l 125 195 l 125 474 q 125 524 123 548 q 121 572 115 587 q 109 602 95 611 q 82 620 50 627 l 50 627 l 50 673 l 235 678 l 321 678 l 311 581 l 319 578 q 361 616 393 637 q 425 659 459 671 q 494 684 533 684 l 533 684 q 589 684 625 668 q 662 652 685 621 q 707 591 717 547 q 727 503 727 444 l 727 444 l 727 196 q 727 166 728 140 q 729 114 733 98 q 737 83 744 73 q 751 63 764 56 q 777 50 795 45 l 795 45 z m 464 1000 l 606 1000 l 606 956 l 370 737 l 316 782 l 464 1000 z "},"ň":{"ha":838,"x_min":50,"x_max":795,"o":"m 795 45 l 795 0 l 467 0 l 467 45 q 498 52 510 67 q 522 81 527 106 q 531 131 531 195 l 531 195 l 531 376 q 531 425 529 455 q 527 486 523 506 q 518 526 510 539 q 503 552 493 561 q 484 569 471 573 q 459 577 440 577 l 440 577 q 414 577 387 561 q 359 545 340 517 q 321 489 321 457 l 321 457 l 321 196 q 321 132 325 106 q 329 81 341 67 q 354 52 386 45 l 386 45 l 386 0 l 58 0 l 58 45 q 91 54 103 68 q 116 82 120 106 q 125 131 125 195 l 125 195 l 125 474 q 125 524 123 548 q 121 572 115 587 q 109 602 95 611 q 82 620 50 627 l 50 627 l 50 673 l 235 678 l 321 678 l 311 581 l 319 578 q 361 616 393 637 q 425 659 459 671 q 494 684 533 684 l 533 684 q 589 684 625 668 q 662 652 685 621 q 707 591 717 547 q 727 503 727 444 l 727 444 l 727 196 q 727 166 728 140 q 729 114 733 98 q 737 83 744 73 q 751 63 764 56 q 777 50 795 45 l 795 45 z m 473 747 l 355 747 l 215 960 l 267 1005 l 414 857 l 422 857 l 571 1005 l 623 960 l 473 747 z "},"ñ":{"ha":838,"x_min":50,"x_max":795,"o":"m 795 45 l 795 0 l 467 0 l 467 45 q 498 52 510 67 q 522 81 527 106 q 531 131 531 195 l 531 195 l 531 376 q 531 425 529 455 q 527 486 523 506 q 518 526 510 539 q 503 552 493 561 q 484 569 471 573 q 459 577 440 577 l 440 577 q 414 577 387 561 q 359 545 340 517 q 321 489 321 457 l 321 457 l 321 196 q 321 132 325 106 q 329 81 341 67 q 354 52 386 45 l 386 45 l 386 0 l 58 0 l 58 45 q 91 54 103 68 q 116 82 120 106 q 125 131 125 195 l 125 195 l 125 474 q 125 524 123 548 q 121 572 115 587 q 109 602 95 611 q 82 620 50 627 l 50 627 l 50 673 l 235 678 l 321 678 l 311 581 l 319 578 q 361 616 393 637 q 425 659 459 671 q 494 684 533 684 l 533 684 q 589 684 625 668 q 662 652 685 621 q 707 591 717 547 q 727 503 727 444 l 727 444 l 727 196 q 727 166 728 140 q 729 114 733 98 q 737 83 744 73 q 751 63 764 56 q 777 50 795 45 l 795 45 z m 595 951 l 595 951 l 659 923 q 620 843 584 805 q 548 766 510 766 l 510 766 q 485 766 464 773 q 444 781 405 807 l 405 807 q 383 822 372 828 q 360 835 349 838 q 338 842 326 842 l 326 842 q 311 842 299 836 q 287 830 273 813 q 259 797 243 766 l 243 766 l 180 794 q 212 856 234 886 q 255 917 279 934 q 302 951 332 951 l 332 951 q 348 951 362 947 q 377 944 391 937 q 404 930 429 913 l 429 913 q 454 896 466 889 q 478 882 489 879 q 500 876 515 876 l 515 876 q 539 876 557 893 q 575 911 595 951 z "},"ņ":{"ha":838,"x_min":50,"x_max":795,"o":"m 795 45 l 795 0 l 467 0 l 467 45 q 498 52 510 67 q 522 81 527 106 q 531 131 531 195 l 531 195 l 531 376 q 531 425 529 455 q 527 486 523 506 q 518 526 510 539 q 503 552 493 561 q 484 569 471 573 q 459 577 440 577 l 440 577 q 414 577 387 561 q 359 545 340 517 q 321 489 321 457 l 321 457 l 321 196 q 321 132 325 106 q 329 81 341 67 q 354 52 386 45 l 386 45 l 386 0 l 58 0 l 58 45 q 91 54 103 68 q 116 82 120 106 q 125 131 125 195 l 125 195 l 125 474 q 125 524 123 548 q 121 572 115 587 q 109 602 95 611 q 82 620 50 627 l 50 627 l 50 673 l 235 678 l 321 678 l 311 581 l 319 578 q 361 616 393 637 q 425 659 459 671 q 494 684 533 684 l 533 684 q 589 684 625 668 q 662 652 685 621 q 707 591 717 547 q 727 503 727 444 l 727 444 l 727 196 q 727 166 728 140 q 729 114 733 98 q 737 83 744 73 q 751 63 764 56 q 777 50 795 45 l 795 45 z m 362 -69 l 497 -69 q 509 -98 509 -134 l 509 -134 q 509 -203 447 -244 q 385 -286 272 -292 l 272 -292 l 261 -227 q 304 -220 326 -210 q 347 -200 357 -182 q 368 -163 368 -132 l 368 -132 q 368 -101 362 -69 l 362 -69 z "},"ŉ":{"ha":1032,"x_min":41,"x_max":989,"o":"m 92 971 l 250 971 q 266 918 266 869 l 266 869 q 266 819 248 778 q 229 737 193 700 q 157 663 96 621 l 96 621 l 41 680 q 73 713 89 755 q 104 797 104 852 l 104 852 q 104 884 101 912 q 98 941 92 971 l 92 971 z m 989 45 l 989 0 l 661 0 l 661 45 q 692 52 704 67 q 716 81 721 106 q 725 131 725 195 l 725 195 l 725 376 q 725 425 723 455 q 721 486 716 506 q 712 526 704 539 q 696 552 687 561 q 677 569 665 573 q 653 577 634 577 l 634 577 q 608 577 581 561 q 553 545 534 517 q 515 489 515 457 l 515 457 l 515 196 q 515 132 519 106 q 523 81 535 67 q 548 52 580 45 l 580 45 l 580 0 l 252 0 l 252 45 q 285 54 297 68 q 310 82 314 106 q 319 131 319 195 l 319 195 l 319 474 q 319 524 317 548 q 315 572 309 587 q 302 602 289 611 q 276 620 243 627 l 243 627 l 243 673 l 429 678 l 515 678 l 505 581 l 513 578 q 555 616 587 637 q 618 659 653 671 q 688 684 727 684 l 727 684 q 783 684 819 668 q 856 652 879 621 q 901 591 911 547 q 921 503 921 444 l 921 444 l 921 196 q 921 166 922 140 q 923 114 927 98 q 931 83 938 73 q 945 63 958 56 q 971 50 989 45 l 989 45 z "},"ò":{"ha":791,"x_min":62,"x_max":729,"o":"m 387 -11 l 387 -11 q 288 -11 215 24 q 143 59 102 136 q 62 213 62 332 l 62 332 q 62 422 87 489 q 112 555 157 599 q 201 642 263 663 q 326 684 398 684 l 398 684 q 562 684 646 597 q 729 511 729 344 l 729 344 q 729 226 688 146 q 646 66 570 28 q 493 -11 387 -11 z m 268 347 l 268 347 q 268 203 300 131 q 332 60 397 60 l 397 60 q 433 60 457 78 q 481 96 496 131 q 511 165 517 214 q 523 262 523 323 l 523 323 q 523 469 491 541 q 458 613 395 613 l 395 613 q 349 613 321 584 q 294 555 281 496 q 268 438 268 347 z m 209 1000 l 351 1000 l 498 782 l 444 737 l 209 956 l 209 1000 z "},"ó":{"ha":791,"x_min":62,"x_max":729,"o":"m 387 -11 l 387 -11 q 288 -11 215 24 q 143 59 102 136 q 62 213 62 332 l 62 332 q 62 422 87 489 q 112 555 157 599 q 201 642 263 663 q 326 684 398 684 l 398 684 q 562 684 646 597 q 729 511 729 344 l 729 344 q 729 226 688 146 q 646 66 570 28 q 493 -11 387 -11 z m 268 347 l 268 347 q 268 203 300 131 q 332 60 397 60 l 397 60 q 433 60 457 78 q 481 96 496 131 q 511 165 517 214 q 523 262 523 323 l 523 323 q 523 469 491 541 q 458 613 395 613 l 395 613 q 349 613 321 584 q 294 555 281 496 q 268 438 268 347 z m 440 1000 l 582 1000 l 582 956 l 347 737 l 292 782 l 440 1000 z "},"ô":{"ha":791,"x_min":62,"x_max":729,"o":"m 387 -11 l 387 -11 q 288 -11 215 24 q 143 59 102 136 q 62 213 62 332 l 62 332 q 62 422 87 489 q 112 555 157 599 q 201 642 263 663 q 326 684 398 684 l 398 684 q 562 684 646 597 q 729 511 729 344 l 729 344 q 729 226 688 146 q 646 66 570 28 q 493 -11 387 -11 z m 268 347 l 268 347 q 268 203 300 131 q 332 60 397 60 l 397 60 q 433 60 457 78 q 481 96 496 131 q 511 165 517 214 q 523 262 523 323 l 523 323 q 523 469 491 541 q 458 613 395 613 l 395 613 q 349 613 321 584 q 294 555 281 496 q 268 438 268 347 z m 342 996 l 460 996 l 600 783 l 547 738 l 400 886 l 393 886 l 243 738 l 191 783 l 342 996 z "},"õ":{"ha":791,"x_min":62,"x_max":729,"o":"m 387 -11 l 387 -11 q 288 -11 215 24 q 143 59 102 136 q 62 213 62 332 l 62 332 q 62 422 87 489 q 112 555 157 599 q 201 642 263 663 q 326 684 398 684 l 398 684 q 562 684 646 597 q 729 511 729 344 l 729 344 q 729 226 688 146 q 646 66 570 28 q 493 -11 387 -11 z m 268 347 l 268 347 q 268 203 300 131 q 332 60 397 60 l 397 60 q 433 60 457 78 q 481 96 496 131 q 511 165 517 214 q 523 262 523 323 l 523 323 q 523 469 491 541 q 458 613 395 613 l 395 613 q 349 613 321 584 q 294 555 281 496 q 268 438 268 347 z m 571 951 l 571 951 l 635 923 q 596 843 560 805 q 524 766 486 766 l 486 766 q 461 766 440 773 q 420 781 381 807 l 381 807 q 359 822 348 828 q 336 835 325 838 q 314 842 302 842 l 302 842 q 287 842 275 836 q 263 830 249 813 q 235 797 220 766 l 220 766 l 157 794 q 189 856 210 886 q 231 917 255 934 q 279 951 308 951 l 308 951 q 324 951 339 947 q 353 944 367 937 q 380 930 406 913 l 406 913 q 431 896 443 889 q 454 882 466 879 q 477 876 492 876 l 492 876 q 515 876 533 893 q 551 911 571 951 z "},"ö":{"ha":791,"x_min":62,"x_max":729,"o":"m 387 -11 l 387 -11 q 288 -11 215 24 q 143 59 102 136 q 62 213 62 332 l 62 332 q 62 422 87 489 q 112 555 157 599 q 201 642 263 663 q 326 684 398 684 l 398 684 q 562 684 646 597 q 729 511 729 344 l 729 344 q 729 226 688 146 q 646 66 570 28 q 493 -11 387 -11 z m 268 347 l 268 347 q 268 203 300 131 q 332 60 397 60 l 397 60 q 433 60 457 78 q 481 96 496 131 q 511 165 517 214 q 523 262 523 323 l 523 323 q 523 469 491 541 q 458 613 395 613 l 395 613 q 349 613 321 584 q 294 555 281 496 q 268 438 268 347 z m 201 935 l 342 935 l 342 786 l 201 786 l 201 935 z m 449 935 l 591 935 l 591 786 l 449 786 l 449 935 z "},"ō":{"ha":791,"x_min":62,"x_max":729,"o":"m 387 -11 l 387 -11 q 288 -11 215 24 q 143 59 102 136 q 62 213 62 332 l 62 332 q 62 422 87 489 q 112 555 157 599 q 201 642 263 663 q 326 684 398 684 l 398 684 q 562 684 646 597 q 729 511 729 344 l 729 344 q 729 226 688 146 q 646 66 570 28 q 493 -11 387 -11 z m 268 347 l 268 347 q 268 203 300 131 q 332 60 397 60 l 397 60 q 433 60 457 78 q 481 96 496 131 q 511 165 517 214 q 523 262 523 323 l 523 323 q 523 469 491 541 q 458 613 395 613 l 395 613 q 349 613 321 584 q 294 555 281 496 q 268 438 268 347 z m 587 913 l 587 808 l 204 808 l 204 913 l 587 913 z "},"ŏ":{"ha":791,"x_min":62,"x_max":729,"o":"m 387 -11 l 387 -11 q 288 -11 215 24 q 143 59 102 136 q 62 213 62 332 l 62 332 q 62 422 87 489 q 112 555 157 599 q 201 642 263 663 q 326 684 398 684 l 398 684 q 562 684 646 597 q 729 511 729 344 l 729 344 q 729 226 688 146 q 646 66 570 28 q 493 -11 387 -11 z m 268 347 l 268 347 q 268 203 300 131 q 332 60 397 60 l 397 60 q 433 60 457 78 q 481 96 496 131 q 511 165 517 214 q 523 262 523 323 l 523 323 q 523 469 491 541 q 458 613 395 613 l 395 613 q 349 613 321 584 q 294 555 281 496 q 268 438 268 347 z m 545 977 l 610 956 q 587 862 534 814 q 481 766 390 766 l 390 766 q 308 766 254 814 q 200 863 180 956 l 180 956 l 246 977 q 269 924 303 899 q 336 874 393 874 l 393 874 q 454 874 489 900 q 524 925 545 977 l 545 977 z "},"ő":{"ha":791,"x_min":62,"x_max":729,"o":"m 387 -11 l 387 -11 q 288 -11 215 24 q 143 59 102 136 q 62 213 62 332 l 62 332 q 62 422 87 489 q 112 555 157 599 q 201 642 263 663 q 326 684 398 684 l 398 684 q 562 684 646 597 q 729 511 729 344 l 729 344 q 729 226 688 146 q 646 66 570 28 q 493 -11 387 -11 z m 268 347 l 268 347 q 268 203 300 131 q 332 60 397 60 l 397 60 q 433 60 457 78 q 481 96 496 131 q 511 165 517 214 q 523 262 523 323 l 523 323 q 523 469 491 541 q 458 613 395 613 l 395 613 q 349 613 321 584 q 294 555 281 496 q 268 438 268 347 z m 357 1000 l 464 1000 l 464 956 l 248 737 l 195 782 l 357 1000 z m 573 1000 l 680 1000 l 680 956 l 460 737 l 408 782 l 573 1000 z "},"ø":{"ha":791,"x_min":62,"x_max":729,"o":"m 77 -92 l 169 54 q 62 138 62 331 l 62 331 q 62 422 87 488 q 112 555 157 598 q 201 642 263 663 q 326 684 398 684 l 398 684 q 485 684 551 659 l 551 659 l 617 764 l 714 764 l 622 618 q 729 532 729 344 l 729 344 q 729 226 688 146 q 646 66 570 28 q 493 -11 387 -11 l 387 -11 q 304 -11 240 14 l 240 14 l 174 -92 l 77 -92 z m 271 213 l 271 213 l 486 557 q 455 613 395 613 l 395 613 q 326 613 295 548 q 264 484 264 347 l 264 347 q 264 262 271 213 z m 519 460 l 519 460 l 304 115 q 336 60 397 60 l 397 60 q 434 60 459 78 q 484 96 499 131 q 515 165 521 214 q 527 262 527 323 l 527 323 q 527 405 519 460 z "},"ǿ":{"ha":791,"x_min":62,"x_max":729,"o":"m 77 -92 l 169 54 q 62 138 62 331 l 62 331 q 62 422 87 488 q 112 555 157 598 q 201 642 263 663 q 326 684 398 684 l 398 684 q 485 684 551 659 l 551 659 l 617 764 l 714 764 l 622 618 q 729 532 729 344 l 729 344 q 729 226 688 146 q 646 66 570 28 q 493 -11 387 -11 l 387 -11 q 304 -11 240 14 l 240 14 l 174 -92 l 77 -92 z m 271 213 l 271 213 l 486 557 q 455 613 395 613 l 395 613 q 326 613 295 548 q 264 484 264 347 l 264 347 q 264 262 271 213 z m 519 460 l 519 460 l 304 115 q 336 60 397 60 l 397 60 q 434 60 459 78 q 484 96 499 131 q 515 165 521 214 q 527 262 527 323 l 527 323 q 527 405 519 460 z m 440 1000 l 582 1000 l 582 956 l 347 737 l 292 782 l 440 1000 z "},"œ":{"ha":1190,"x_min":62,"x_max":1143,"o":"m 1070 183 l 1125 123 q 1056 50 988 20 q 920 -11 832 -11 l 832 -11 q 768 -11 714 11 q 660 33 617 79 l 617 79 l 610 79 q 572 45 541 27 q 509 9 472 -1 q 435 -11 387 -11 l 387 -11 q 288 -11 216 24 q 143 59 102 136 q 62 212 62 330 l 62 330 q 62 441 101 520 q 141 600 218 642 q 294 684 399 684 l 399 684 q 467 684 520 662 q 573 641 625 591 l 625 591 l 632 591 q 686 640 737 662 q 789 684 847 684 l 847 684 q 909 684 955 669 q 1002 655 1035 630 q 1068 604 1090 568 l 1090 568 q 1116 526 1128 471 l 1128 471 q 1142 414 1143 334 l 1143 334 l 713 334 q 713 212 756 154 q 800 96 888 96 l 888 96 q 939 96 981 115 q 1022 134 1070 183 l 1070 183 z m 268 347 l 268 347 q 268 203 300 131 q 332 60 397 60 l 397 60 q 433 60 457 78 q 481 96 496 131 q 511 165 517 214 q 523 262 523 323 l 523 323 q 523 469 491 541 q 458 613 395 613 l 395 613 q 349 613 321 584 q 294 555 281 496 q 268 438 268 347 z m 716 408 l 942 408 q 939 511 915 562 q 890 613 836 613 l 836 613 q 784 613 753 560 q 722 507 716 408 l 716 408 z "},"ŕ":{"ha":641,"x_min":50,"x_max":622,"o":"m 321 678 l 311 576 l 320 574 q 370 632 422 658 q 474 684 535 684 l 535 684 q 576 684 622 675 l 622 675 l 622 488 l 499 488 q 488 527 469 548 q 450 569 419 569 l 419 569 q 404 569 386 560 q 368 551 353 534 q 338 517 331 500 q 325 483 323 465 q 321 448 321 412 l 321 412 l 321 196 q 321 132 326 106 q 330 80 345 65 q 359 51 393 45 l 393 45 l 393 0 l 58 0 l 58 45 q 91 54 103 68 q 116 82 120 106 q 125 131 125 195 l 125 195 l 125 474 q 125 524 123 548 q 121 572 115 587 q 109 602 95 611 q 82 620 50 627 l 50 627 l 50 673 l 235 678 l 321 678 z m 366 1000 l 507 1000 l 507 956 l 272 737 l 218 782 l 366 1000 z "},"ř":{"ha":641,"x_min":50,"x_max":622,"o":"m 321 678 l 311 576 l 320 574 q 370 632 422 658 q 474 684 535 684 l 535 684 q 576 684 622 675 l 622 675 l 622 488 l 499 488 q 488 527 469 548 q 450 569 419 569 l 419 569 q 404 569 386 560 q 368 551 353 534 q 338 517 331 500 q 325 483 323 465 q 321 448 321 412 l 321 412 l 321 196 q 321 132 326 106 q 330 80 345 65 q 359 51 393 45 l 393 45 l 393 0 l 58 0 l 58 45 q 91 54 103 68 q 116 82 120 106 q 125 131 125 195 l 125 195 l 125 474 q 125 524 123 548 q 121 572 115 587 q 109 602 95 611 q 82 620 50 627 l 50 627 l 50 673 l 235 678 l 321 678 z m 374 747 l 256 747 l 116 960 l 168 1005 l 315 857 l 323 857 l 472 1005 l 524 960 l 374 747 z "},"ŗ":{"ha":641,"x_min":50,"x_max":622,"o":"m 321 678 l 311 576 l 320 574 q 370 632 422 658 q 474 684 535 684 l 535 684 q 576 684 622 675 l 622 675 l 622 488 l 499 488 q 488 527 469 548 q 450 569 419 569 l 419 569 q 404 569 386 560 q 368 551 353 534 q 338 517 331 500 q 325 483 323 465 q 321 448 321 412 l 321 412 l 321 196 q 321 132 326 106 q 330 80 345 65 q 359 51 393 45 l 393 45 l 393 0 l 58 0 l 58 45 q 91 54 103 68 q 116 82 120 106 q 125 131 125 195 l 125 195 l 125 474 q 125 524 123 548 q 121 572 115 587 q 109 602 95 611 q 82 620 50 627 l 50 627 l 50 673 l 235 678 l 321 678 z m 170 -69 l 304 -69 q 316 -98 316 -134 l 316 -134 q 316 -203 254 -244 q 192 -286 79 -292 l 79 -292 l 68 -227 q 111 -220 133 -210 q 155 -200 165 -182 q 175 -163 175 -132 l 175 -132 q 175 -101 170 -69 l 170 -69 z "},"ś":{"ha":637,"x_min":55,"x_max":582,"o":"m 55 183 l 146 183 q 162 121 197 91 q 233 60 292 60 l 292 60 q 342 60 369 83 q 395 106 395 150 l 395 150 q 395 178 383 197 q 371 217 343 235 q 316 253 250 282 l 250 282 q 212 298 179 318 q 146 338 122 362 q 98 387 83 418 q 69 448 69 486 l 69 486 q 69 547 104 591 q 140 636 205 660 q 271 684 355 684 l 355 684 q 404 684 452 680 q 499 675 574 662 l 574 662 l 574 504 l 485 504 q 469 547 451 571 q 432 595 410 604 q 387 613 356 613 l 356 613 q 311 613 285 593 q 258 572 258 536 l 258 536 q 258 510 268 492 q 277 473 302 456 q 326 439 396 410 l 396 410 q 460 383 500 354 q 540 326 561 288 q 582 250 582 200 l 582 200 q 582 145 562 105 q 541 66 505 40 q 468 14 417 2 q 366 -11 304 -11 l 304 -11 q 192 -11 55 21 l 55 21 l 55 183 z m 363 1000 l 505 1000 l 505 956 l 270 737 l 216 782 l 363 1000 z "},"ŝ":{"ha":637,"x_min":55,"x_max":582,"o":"m 55 183 l 146 183 q 162 121 197 91 q 233 60 292 60 l 292 60 q 342 60 369 83 q 395 106 395 150 l 395 150 q 395 178 383 197 q 371 217 343 235 q 316 253 250 282 l 250 282 q 212 298 179 318 q 146 338 122 362 q 98 387 83 418 q 69 448 69 486 l 69 486 q 69 547 104 591 q 140 636 205 660 q 271 684 355 684 l 355 684 q 404 684 452 680 q 499 675 574 662 l 574 662 l 574 504 l 485 504 q 469 547 451 571 q 432 595 410 604 q 387 613 356 613 l 356 613 q 311 613 285 593 q 258 572 258 536 l 258 536 q 258 510 268 492 q 277 473 302 456 q 326 439 396 410 l 396 410 q 460 383 500 354 q 540 326 561 288 q 582 250 582 200 l 582 200 q 582 145 562 105 q 541 66 505 40 q 468 14 417 2 q 366 -11 304 -11 l 304 -11 q 192 -11 55 21 l 55 21 l 55 183 z m 265 996 l 383 996 l 523 783 l 471 738 l 323 886 l 316 886 l 167 738 l 115 783 l 265 996 z "},"š":{"ha":637,"x_min":55,"x_max":582,"o":"m 55 183 l 146 183 q 162 121 197 91 q 233 60 292 60 l 292 60 q 342 60 369 83 q 395 106 395 150 l 395 150 q 395 178 383 197 q 371 217 343 235 q 316 253 250 282 l 250 282 q 212 298 179 318 q 146 338 122 362 q 98 387 83 418 q 69 448 69 486 l 69 486 q 69 547 104 591 q 140 636 205 660 q 271 684 355 684 l 355 684 q 404 684 452 680 q 499 675 574 662 l 574 662 l 574 504 l 485 504 q 469 547 451 571 q 432 595 410 604 q 387 613 356 613 l 356 613 q 311 613 285 593 q 258 572 258 536 l 258 536 q 258 510 268 492 q 277 473 302 456 q 326 439 396 410 l 396 410 q 460 383 500 354 q 540 326 561 288 q 582 250 582 200 l 582 200 q 582 145 562 105 q 541 66 505 40 q 468 14 417 2 q 366 -11 304 -11 l 304 -11 q 192 -11 55 21 l 55 21 l 55 183 z m 372 747 l 254 747 l 115 960 l 167 1005 l 314 857 l 321 857 l 471 1005 l 523 960 l 372 747 z "},"ş":{"ha":637,"x_min":55,"x_max":582,"o":"m 55 183 l 146 183 q 162 121 197 91 q 233 60 292 60 l 292 60 q 342 60 369 83 q 395 106 395 150 l 395 150 q 395 178 383 197 q 371 217 343 235 q 316 253 250 282 l 250 282 q 212 298 179 318 q 146 338 122 362 q 98 387 83 418 q 69 448 69 486 l 69 486 q 69 547 104 591 q 140 636 205 660 q 271 684 355 684 l 355 684 q 404 684 452 680 q 499 675 574 662 l 574 662 l 574 504 l 485 504 q 469 547 451 571 q 432 595 410 604 q 387 613 356 613 l 356 613 q 311 613 285 593 q 258 572 258 536 l 258 536 q 258 510 268 492 q 277 473 302 456 q 326 439 396 410 l 396 410 q 460 383 500 354 q 540 326 561 288 q 582 250 582 200 l 582 200 q 582 130 546 80 q 510 31 440 8 l 440 8 l 361 -46 q 373 -62 379 -84 q 385 -107 385 -134 l 385 -134 q 385 -203 322 -244 q 260 -286 148 -292 l 148 -292 l 137 -227 q 193 -219 218 -200 q 243 -181 243 -141 l 243 -141 q 243 -116 240 -98 l 240 -98 l 240 -69 l 328 -10 q 322 -11 316 -11 l 316 -11 l 304 -11 q 192 -11 55 21 l 55 21 l 55 183 z "},"ș":{"ha":637,"x_min":55,"x_max":582,"o":"m 55 183 l 146 183 q 162 121 197 91 q 233 60 292 60 l 292 60 q 342 60 369 83 q 395 106 395 150 l 395 150 q 395 178 383 197 q 371 217 343 235 q 316 253 250 282 l 250 282 q 212 298 179 318 q 146 338 122 362 q 98 387 83 418 q 69 448 69 486 l 69 486 q 69 547 104 591 q 140 636 205 660 q 271 684 355 684 l 355 684 q 404 684 452 680 q 499 675 574 662 l 574 662 l 574 504 l 485 504 q 469 547 451 571 q 432 595 410 604 q 387 613 356 613 l 356 613 q 311 613 285 593 q 258 572 258 536 l 258 536 q 258 510 268 492 q 277 473 302 456 q 326 439 396 410 l 396 410 q 460 383 500 354 q 540 326 561 288 q 582 250 582 200 l 582 200 q 582 145 562 105 q 541 66 505 40 q 468 14 417 2 q 366 -11 304 -11 l 304 -11 q 192 -11 55 21 l 55 21 l 55 183 z m 266 -69 l 401 -69 q 412 -98 412 -134 l 412 -134 q 412 -203 350 -244 q 288 -286 176 -292 l 176 -292 l 165 -227 q 208 -220 229 -210 q 251 -200 261 -182 q 271 -163 271 -132 l 271 -132 q 271 -101 266 -69 l 266 -69 z "},"ß":{"ha":940,"x_min":42,"x_max":895,"o":"m 401 16 l 401 16 l 401 144 l 479 144 q 496 100 526 80 q 556 60 606 60 l 606 60 q 655 60 682 82 q 708 105 708 150 l 708 150 q 708 173 700 190 q 692 208 675 222 q 658 236 632 250 q 606 263 572 279 l 572 279 q 516 304 483 328 q 450 353 433 383 q 416 414 416 455 l 416 455 q 416 487 425 511 q 435 535 455 559 q 476 584 519 621 l 519 621 q 568 661 590 698 q 612 735 612 784 l 612 784 q 612 840 581 871 q 549 903 492 903 l 492 903 q 438 903 400 878 q 363 853 342 792 q 321 731 321 629 l 321 629 l 321 0 l 57 0 l 57 45 q 89 54 101 66 q 114 77 119 98 q 125 119 125 170 l 125 170 l 125 588 l 42 588 l 42 635 q 79 640 93 648 q 108 656 117 673 q 127 689 133 726 l 133 726 q 154 847 249 910 q 343 973 500 973 l 500 973 q 635 973 701 928 q 766 882 766 792 l 766 792 q 766 757 756 731 q 745 705 724 680 q 703 655 648 610 l 648 610 q 621 587 606 571 q 591 555 586 543 q 580 530 580 515 l 580 515 q 580 495 593 479 q 606 463 632 447 q 659 431 711 409 l 711 409 q 775 381 814 353 q 854 325 874 288 q 895 250 895 200 l 895 200 q 895 145 875 105 q 854 66 818 40 q 781 14 730 2 q 679 -11 617 -11 l 617 -11 q 563 -11 516 -5 q 469 0 401 16 z "},"ſ":{"ha":446,"x_min":42,"x_max":547,"o":"m 57 0 l 57 45 q 89 54 101 66 q 114 77 119 98 q 125 119 125 170 l 125 170 l 125 588 l 42 588 l 42 635 q 74 640 86 645 q 99 651 107 661 q 115 671 120 686 q 125 702 127 726 l 127 726 q 138 848 217 911 q 297 974 443 974 l 443 974 q 501 974 547 964 l 547 964 l 547 826 l 454 826 q 443 863 429 881 q 415 899 393 899 l 393 899 q 363 899 348 879 q 332 860 327 824 q 321 789 321 724 l 321 724 l 321 170 q 321 119 326 98 q 332 77 346 65 q 359 53 395 45 l 395 45 l 395 0 l 57 0 z "},"ť":{"ha":692,"x_min":25,"x_max":665,"o":"m 517 970 l 649 970 q 665 926 665 883 l 665 883 q 665 848 652 819 q 639 790 613 762 q 587 734 526 688 l 526 688 l 482 730 q 507 755 518 784 q 528 813 528 869 l 528 869 q 528 890 527 909 q 525 928 517 970 l 517 970 z m 479 138 l 522 81 q 463 31 414 10 q 365 -11 311 -11 l 311 -11 q 210 -11 160 44 q 110 98 110 209 l 110 209 l 110 588 l 25 588 l 25 635 q 66 642 86 655 q 106 669 117 691 q 127 714 134 751 q 140 787 144 842 l 144 842 l 306 842 l 306 673 l 499 673 l 499 588 l 306 588 l 306 282 q 306 205 313 169 q 320 132 337 115 q 354 98 379 98 l 379 98 q 398 98 413 101 q 428 104 445 113 q 461 122 479 138 l 479 138 z "},"ț":{"ha":507,"x_min":25,"x_max":522,"o":"m 479 138 l 522 81 q 463 31 414 10 q 365 -11 311 -11 l 311 -11 q 210 -11 160 44 q 110 98 110 209 l 110 209 l 110 588 l 25 588 l 25 635 q 66 642 86 655 q 106 669 117 691 q 127 714 134 751 q 140 787 144 842 l 144 842 l 306 842 l 306 673 l 499 673 l 499 588 l 306 588 l 306 282 q 306 205 313 169 q 320 132 337 115 q 354 98 379 98 l 379 98 q 398 98 413 101 q 428 104 445 113 q 461 122 479 138 l 479 138 z m 224 -69 l 359 -69 q 371 -98 371 -134 l 371 -134 q 371 -203 309 -244 q 247 -286 134 -292 l 134 -292 l 123 -227 q 166 -220 188 -210 q 210 -200 220 -182 q 230 -163 230 -132 l 230 -132 q 230 -101 224 -69 l 224 -69 z "},"ŧ":{"ha":523,"x_min":33,"x_max":530,"o":"m 471 401 l 471 326 l 313 326 l 313 282 q 313 205 320 169 q 328 132 345 115 q 361 98 387 98 l 387 98 q 406 98 420 101 q 435 104 452 113 q 469 122 487 138 l 487 138 l 530 81 q 470 31 421 10 q 372 -11 318 -11 l 318 -11 q 217 -11 167 44 q 117 98 117 209 l 117 209 l 117 326 l 33 326 l 33 401 l 117 401 l 117 588 l 33 588 l 33 635 q 74 642 94 655 q 113 669 124 691 q 135 714 141 751 q 148 787 151 842 l 151 842 l 313 842 l 313 673 l 507 673 l 507 588 l 313 588 l 313 401 l 471 401 z "},"ù":{"ha":829,"x_min":43,"x_max":788,"o":"m 43 628 l 43 673 l 307 673 l 307 296 q 307 231 311 195 q 315 158 327 137 q 338 115 355 105 q 372 96 397 96 l 397 96 q 422 96 450 111 q 478 127 497 155 q 517 183 517 215 l 517 215 l 517 477 q 517 526 515 550 q 513 574 507 588 q 501 602 489 611 q 477 620 449 628 l 449 628 l 449 673 l 713 673 l 713 198 q 713 146 715 123 q 717 99 723 85 q 729 71 743 61 q 756 52 788 45 l 788 45 l 788 0 l 604 -6 l 522 -6 l 528 92 l 519 94 q 456 35 407 12 q 357 -11 307 -11 l 307 -11 q 235 -11 192 16 q 149 43 130 95 q 111 146 111 229 l 111 229 l 111 477 q 111 515 110 535 q 109 555 107 567 q 105 578 101 587 q 98 596 91 604 q 85 611 74 617 q 62 623 43 628 l 43 628 z m 218 1000 l 359 1000 l 507 782 l 453 737 l 218 956 l 218 1000 z "},"ú":{"ha":829,"x_min":43,"x_max":788,"o":"m 43 628 l 43 673 l 307 673 l 307 296 q 307 231 311 195 q 315 158 327 137 q 338 115 355 105 q 372 96 397 96 l 397 96 q 422 96 450 111 q 478 127 497 155 q 517 183 517 215 l 517 215 l 517 477 q 517 526 515 550 q 513 574 507 588 q 501 602 489 611 q 477 620 449 628 l 449 628 l 449 673 l 713 673 l 713 198 q 713 146 715 123 q 717 99 723 85 q 729 71 743 61 q 756 52 788 45 l 788 45 l 788 0 l 604 -6 l 522 -6 l 528 92 l 519 94 q 456 35 407 12 q 357 -11 307 -11 l 307 -11 q 235 -11 192 16 q 149 43 130 95 q 111 146 111 229 l 111 229 l 111 477 q 111 515 110 535 q 109 555 107 567 q 105 578 101 587 q 98 596 91 604 q 85 611 74 617 q 62 623 43 628 l 43 628 z m 460 1000 l 602 1000 l 602 956 l 366 737 l 312 782 l 460 1000 z "},"û":{"ha":829,"x_min":43,"x_max":788,"o":"m 43 628 l 43 673 l 307 673 l 307 296 q 307 231 311 195 q 315 158 327 137 q 338 115 355 105 q 372 96 397 96 l 397 96 q 422 96 450 111 q 478 127 497 155 q 517 183 517 215 l 517 215 l 517 477 q 517 526 515 550 q 513 574 507 588 q 501 602 489 611 q 477 620 449 628 l 449 628 l 449 673 l 713 673 l 713 198 q 713 146 715 123 q 717 99 723 85 q 729 71 743 61 q 756 52 788 45 l 788 45 l 788 0 l 604 -6 l 522 -6 l 528 92 l 519 94 q 456 35 407 12 q 357 -11 307 -11 l 307 -11 q 235 -11 192 16 q 149 43 130 95 q 111 146 111 229 l 111 229 l 111 477 q 111 515 110 535 q 109 555 107 567 q 105 578 101 587 q 98 596 91 604 q 85 611 74 617 q 62 623 43 628 l 43 628 z m 361 996 l 479 996 l 618 783 l 566 738 l 419 886 l 412 886 l 262 738 l 210 783 l 361 996 z "},"ũ":{"ha":829,"x_min":43,"x_max":788,"o":"m 43 628 l 43 673 l 307 673 l 307 296 q 307 231 311 195 q 315 158 327 137 q 338 115 355 105 q 372 96 397 96 l 397 96 q 422 96 450 111 q 478 127 497 155 q 517 183 517 215 l 517 215 l 517 477 q 517 526 515 550 q 513 574 507 588 q 501 602 489 611 q 477 620 449 628 l 449 628 l 449 673 l 713 673 l 713 198 q 713 146 715 123 q 717 99 723 85 q 729 71 743 61 q 756 52 788 45 l 788 45 l 788 0 l 604 -6 l 522 -6 l 528 92 l 519 94 q 456 35 407 12 q 357 -11 307 -11 l 307 -11 q 235 -11 192 16 q 149 43 130 95 q 111 146 111 229 l 111 229 l 111 477 q 111 515 110 535 q 109 555 107 567 q 105 578 101 587 q 98 596 91 604 q 85 611 74 617 q 62 623 43 628 l 43 628 z m 590 951 l 590 951 l 654 923 q 615 843 579 805 q 543 766 505 766 l 505 766 q 480 766 459 773 q 439 781 400 807 l 400 807 q 378 822 367 828 q 355 835 344 838 q 333 842 321 842 l 321 842 q 306 842 294 836 q 282 830 268 813 q 254 797 239 766 l 239 766 l 176 794 q 208 856 229 886 q 250 917 274 934 q 298 951 327 951 l 327 951 q 343 951 358 947 q 372 944 386 937 q 399 930 425 913 l 425 913 q 450 896 461 889 q 473 882 485 879 q 496 876 511 876 l 511 876 q 534 876 552 893 q 570 911 590 951 z "},"ü":{"ha":829,"x_min":43,"x_max":788,"o":"m 43 628 l 43 673 l 307 673 l 307 296 q 307 231 311 195 q 315 158 327 137 q 338 115 355 105 q 372 96 397 96 l 397 96 q 422 96 450 111 q 478 127 497 155 q 517 183 517 215 l 517 215 l 517 477 q 517 526 515 550 q 513 574 507 588 q 501 602 489 611 q 477 620 449 628 l 449 628 l 449 673 l 713 673 l 713 198 q 713 146 715 123 q 717 99 723 85 q 729 71 743 61 q 756 52 788 45 l 788 45 l 788 0 l 604 -6 l 522 -6 l 528 92 l 519 94 q 456 35 407 12 q 357 -11 307 -11 l 307 -11 q 235 -11 192 16 q 149 43 130 95 q 111 146 111 229 l 111 229 l 111 477 q 111 515 110 535 q 109 555 107 567 q 105 578 101 587 q 98 596 91 604 q 85 611 74 617 q 62 623 43 628 l 43 628 z m 220 935 l 361 935 l 361 786 l 220 786 l 220 935 z m 468 935 l 610 935 l 610 786 l 468 786 l 468 935 z "},"ū":{"ha":829,"x_min":43,"x_max":788,"o":"m 43 628 l 43 673 l 307 673 l 307 296 q 307 231 311 195 q 315 158 327 137 q 338 115 355 105 q 372 96 397 96 l 397 96 q 422 96 450 111 q 478 127 497 155 q 517 183 517 215 l 517 215 l 517 477 q 517 526 515 550 q 513 574 507 588 q 501 602 489 611 q 477 620 449 628 l 449 628 l 449 673 l 713 673 l 713 198 q 713 146 715 123 q 717 99 723 85 q 729 71 743 61 q 756 52 788 45 l 788 45 l 788 0 l 604 -6 l 522 -6 l 528 92 l 519 94 q 456 35 407 12 q 357 -11 307 -11 l 307 -11 q 235 -11 192 16 q 149 43 130 95 q 111 146 111 229 l 111 229 l 111 477 q 111 515 110 535 q 109 555 107 567 q 105 578 101 587 q 98 596 91 604 q 85 611 74 617 q 62 623 43 628 l 43 628 z m 606 913 l 606 808 l 224 808 l 224 913 l 606 913 z "},"ŭ":{"ha":829,"x_min":43,"x_max":788,"o":"m 43 628 l 43 673 l 307 673 l 307 296 q 307 231 311 195 q 315 158 327 137 q 338 115 355 105 q 372 96 397 96 l 397 96 q 422 96 450 111 q 478 127 497 155 q 517 183 517 215 l 517 215 l 517 477 q 517 526 515 550 q 513 574 507 588 q 501 602 489 611 q 477 620 449 628 l 449 628 l 449 673 l 713 673 l 713 198 q 713 146 715 123 q 717 99 723 85 q 729 71 743 61 q 756 52 788 45 l 788 45 l 788 0 l 604 -6 l 522 -6 l 528 92 l 519 94 q 456 35 407 12 q 357 -11 307 -11 l 307 -11 q 235 -11 192 16 q 149 43 130 95 q 111 146 111 229 l 111 229 l 111 477 q 111 515 110 535 q 109 555 107 567 q 105 578 101 587 q 98 596 91 604 q 85 611 74 617 q 62 623 43 628 l 43 628 z m 564 977 l 630 956 q 607 862 554 814 q 500 766 410 766 l 410 766 q 328 766 274 814 q 220 863 200 956 l 200 956 l 266 977 q 289 924 322 899 q 356 874 412 874 l 412 874 q 473 874 509 900 q 544 925 564 977 l 564 977 z "},"ů":{"ha":829,"x_min":43,"x_max":788,"o":"m 43 628 l 43 673 l 307 673 l 307 296 q 307 231 311 195 q 315 158 327 137 q 338 115 355 105 q 372 96 397 96 l 397 96 q 422 96 450 111 q 478 127 497 155 q 517 183 517 215 l 517 215 l 517 477 q 517 526 515 550 q 513 574 507 588 q 501 602 489 611 q 477 620 449 628 l 449 628 l 449 673 l 713 673 l 713 198 q 713 146 715 123 q 717 99 723 85 q 729 71 743 61 q 756 52 788 45 l 788 45 l 788 0 l 604 -6 l 522 -6 l 528 92 l 519 94 q 456 35 407 12 q 357 -11 307 -11 l 307 -11 q 235 -11 192 16 q 149 43 130 95 q 111 146 111 229 l 111 229 l 111 477 q 111 515 110 535 q 109 555 107 567 q 105 578 101 587 q 98 596 91 604 q 85 611 74 617 q 62 623 43 628 l 43 628 z m 411 735 l 411 735 q 334 735 294 771 q 254 807 254 876 l 254 876 q 254 923 276 956 q 297 989 335 1005 q 372 1021 420 1021 l 420 1021 q 496 1021 536 985 q 575 949 575 882 l 575 882 q 575 810 532 773 q 489 735 411 735 z m 336 880 l 336 880 q 336 836 356 812 q 376 787 416 787 l 416 787 q 454 787 474 810 q 494 833 494 874 l 494 874 q 494 920 473 944 q 452 968 415 968 l 415 968 q 376 968 356 945 q 336 922 336 880 z "},"ű":{"ha":829,"x_min":43,"x_max":788,"o":"m 43 628 l 43 673 l 307 673 l 307 296 q 307 231 311 195 q 315 158 327 137 q 338 115 355 105 q 372 96 397 96 l 397 96 q 422 96 450 111 q 478 127 497 155 q 517 183 517 215 l 517 215 l 517 477 q 517 526 515 550 q 513 574 507 588 q 501 602 489 611 q 477 620 449 628 l 449 628 l 449 673 l 713 673 l 713 198 q 713 146 715 123 q 717 99 723 85 q 729 71 743 61 q 756 52 788 45 l 788 45 l 788 0 l 604 -6 l 522 -6 l 528 92 l 519 94 q 456 35 407 12 q 357 -11 307 -11 l 307 -11 q 235 -11 192 16 q 149 43 130 95 q 111 146 111 229 l 111 229 l 111 477 q 111 515 110 535 q 109 555 107 567 q 105 578 101 587 q 98 596 91 604 q 85 611 74 617 q 62 623 43 628 l 43 628 z m 376 1000 l 483 1000 l 483 956 l 267 737 l 214 782 l 376 1000 z m 592 1000 l 699 1000 l 699 956 l 479 737 l 427 782 l 592 1000 z "},"ų":{"ha":829,"x_min":43,"x_max":788,"o":"m 43 628 l 43 673 l 307 673 l 307 296 q 307 231 311 195 q 315 158 327 137 q 338 115 355 105 q 372 96 397 96 l 397 96 q 422 96 450 111 q 478 127 497 155 q 517 183 517 215 l 517 215 l 517 477 q 517 526 515 550 q 513 574 507 588 q 501 602 489 611 q 477 620 449 628 l 449 628 l 449 673 l 713 673 l 713 198 q 713 146 715 123 q 717 99 723 85 q 729 71 743 61 q 756 52 788 45 l 788 45 l 788 0 l 710 -3 q 674 -36 654 -75 q 633 -113 633 -151 l 633 -151 q 633 -184 649 -201 q 665 -218 693 -218 l 693 -218 q 713 -218 729 -212 q 744 -205 756 -197 l 756 -197 l 782 -255 q 758 -272 726 -284 q 695 -296 660 -296 l 660 -296 q 633 -296 607 -289 q 582 -283 562 -269 q 543 -255 531 -231 q 519 -208 519 -174 l 519 -174 q 519 -128 547 -85 q 574 -41 628 -4 l 628 -4 l 604 -6 l 522 -6 l 528 92 l 519 94 q 456 35 407 12 q 357 -11 307 -11 l 307 -11 q 235 -11 192 16 q 149 43 130 95 q 111 146 111 229 l 111 229 l 111 477 q 111 515 110 535 q 109 555 107 567 q 105 578 101 587 q 98 596 91 604 q 85 611 74 617 q 62 623 43 628 l 43 628 z "},"ẁ":{"ha":1109,"x_min":18,"x_max":1108,"o":"m 814 -7 l 679 -7 l 551 431 l 403 -7 l 266 -7 l 101 509 q 86 557 76 578 q 66 600 53 611 q 40 623 18 628 l 18 628 l 18 673 l 350 673 l 350 628 q 318 623 302 609 q 286 595 286 570 l 286 570 q 286 553 292 532 q 297 511 304 488 l 304 488 l 389 207 l 545 673 l 671 673 l 802 207 l 891 452 q 905 488 910 513 q 915 538 915 557 l 915 557 q 915 586 899 605 q 882 623 852 628 l 852 628 l 852 673 l 1108 673 l 1108 627 q 1088 621 1077 613 q 1065 605 1056 591 q 1046 576 1033 549 q 1021 522 997 462 l 997 462 l 814 -7 z m 415 1000 l 557 1000 l 705 782 l 650 737 l 415 956 l 415 1000 z "},"ẃ":{"ha":1109,"x_min":18,"x_max":1108,"o":"m 814 -7 l 679 -7 l 551 431 l 403 -7 l 266 -7 l 101 509 q 86 557 76 578 q 66 600 53 611 q 40 623 18 628 l 18 628 l 18 673 l 350 673 l 350 628 q 318 623 302 609 q 286 595 286 570 l 286 570 q 286 553 292 532 q 297 511 304 488 l 304 488 l 389 207 l 545 673 l 671 673 l 802 207 l 891 452 q 905 488 910 513 q 915 538 915 557 l 915 557 q 915 586 899 605 q 882 623 852 628 l 852 628 l 852 673 l 1108 673 l 1108 627 q 1088 621 1077 613 q 1065 605 1056 591 q 1046 576 1033 549 q 1021 522 997 462 l 997 462 l 814 -7 z m 650 1000 l 791 1000 l 791 956 l 556 737 l 502 782 l 650 1000 z "},"ŵ":{"ha":1109,"x_min":18,"x_max":1108,"o":"m 814 -7 l 679 -7 l 551 431 l 403 -7 l 266 -7 l 101 509 q 86 557 76 578 q 66 600 53 611 q 40 623 18 628 l 18 628 l 18 673 l 350 673 l 350 628 q 318 623 302 609 q 286 595 286 570 l 286 570 q 286 553 292 532 q 297 511 304 488 l 304 488 l 389 207 l 545 673 l 671 673 l 802 207 l 891 452 q 905 488 910 513 q 915 538 915 557 l 915 557 q 915 586 899 605 q 882 623 852 628 l 852 628 l 852 673 l 1108 673 l 1108 627 q 1088 621 1077 613 q 1065 605 1056 591 q 1046 576 1033 549 q 1021 522 997 462 l 997 462 l 814 -7 z m 549 996 l 667 996 l 806 783 l 754 738 l 607 886 l 600 886 l 450 738 l 398 783 l 549 996 z "},"ẅ":{"ha":1109,"x_min":18,"x_max":1108,"o":"m 814 -7 l 679 -7 l 551 431 l 403 -7 l 266 -7 l 101 509 q 86 557 76 578 q 66 600 53 611 q 40 623 18 628 l 18 628 l 18 673 l 350 673 l 350 628 q 318 623 302 609 q 286 595 286 570 l 286 570 q 286 553 292 532 q 297 511 304 488 l 304 488 l 389 207 l 545 673 l 671 673 l 802 207 l 891 452 q 905 488 910 513 q 915 538 915 557 l 915 557 q 915 586 899 605 q 882 623 852 628 l 852 628 l 852 673 l 1108 673 l 1108 627 q 1088 621 1077 613 q 1065 605 1056 591 q 1046 576 1033 549 q 1021 522 997 462 l 997 462 l 814 -7 z m 407 935 l 549 935 l 549 786 l 407 786 l 407 935 z m 655 935 l 797 935 l 797 786 l 655 786 l 655 935 z "},"ỳ":{"ha":737,"x_min":13,"x_max":741,"o":"m 621 462 l 400 -31 q 356 -129 317 -185 q 278 -241 233 -269 q 188 -296 121 -296 l 121 -296 q 70 -296 26 -283 l 26 -283 l 26 -128 l 102 -128 q 111 -160 124 -172 q 137 -184 161 -184 l 161 -184 q 186 -184 207 -170 q 228 -155 254 -116 q 280 -77 318 0 l 318 0 l 279 0 l 102 509 q 83 563 72 583 q 61 603 47 613 q 33 624 13 628 l 13 628 l 13 673 l 351 673 l 351 628 q 319 622 304 610 q 290 597 290 573 l 290 573 q 290 541 307 488 l 307 488 l 405 192 l 513 452 q 526 484 533 509 q 540 534 540 557 l 540 557 q 540 586 524 605 q 507 623 477 628 l 477 628 l 477 673 l 741 673 l 741 627 q 722 621 710 612 q 698 604 687 589 q 677 575 662 547 q 647 519 621 462 l 621 462 z m 195 1000 l 337 1000 l 485 782 l 431 737 l 195 956 l 195 1000 z "},"ý":{"ha":737,"x_min":13,"x_max":741,"o":"m 621 462 l 400 -31 q 356 -129 317 -185 q 278 -241 233 -269 q 188 -296 121 -296 l 121 -296 q 70 -296 26 -283 l 26 -283 l 26 -128 l 102 -128 q 111 -160 124 -172 q 137 -184 161 -184 l 161 -184 q 186 -184 207 -170 q 228 -155 254 -116 q 280 -77 318 0 l 318 0 l 279 0 l 102 509 q 83 563 72 583 q 61 603 47 613 q 33 624 13 628 l 13 628 l 13 673 l 351 673 l 351 628 q 319 622 304 610 q 290 597 290 573 l 290 573 q 290 541 307 488 l 307 488 l 405 192 l 513 452 q 526 484 533 509 q 540 534 540 557 l 540 557 q 540 586 524 605 q 507 623 477 628 l 477 628 l 477 673 l 741 673 l 741 627 q 722 621 710 612 q 698 604 687 589 q 677 575 662 547 q 647 519 621 462 l 621 462 z m 444 1000 l 586 1000 l 586 956 l 351 737 l 296 782 l 444 1000 z "},"ŷ":{"ha":737,"x_min":13,"x_max":741,"o":"m 621 462 l 400 -31 q 356 -129 317 -185 q 278 -241 233 -269 q 188 -296 121 -296 l 121 -296 q 70 -296 26 -283 l 26 -283 l 26 -128 l 102 -128 q 111 -160 124 -172 q 137 -184 161 -184 l 161 -184 q 186 -184 207 -170 q 228 -155 254 -116 q 280 -77 318 0 l 318 0 l 279 0 l 102 509 q 83 563 72 583 q 61 603 47 613 q 33 624 13 628 l 13 628 l 13 673 l 351 673 l 351 628 q 319 622 304 610 q 290 597 290 573 l 290 573 q 290 541 307 488 l 307 488 l 405 192 l 513 452 q 526 484 533 509 q 540 534 540 557 l 540 557 q 540 586 524 605 q 507 623 477 628 l 477 628 l 477 673 l 741 673 l 741 627 q 722 621 710 612 q 698 604 687 589 q 677 575 662 547 q 647 519 621 462 l 621 462 z m 342 996 l 460 996 l 600 783 l 548 738 l 401 886 l 393 886 l 244 738 l 192 783 l 342 996 z "},"ÿ":{"ha":737,"x_min":13,"x_max":741,"o":"m 621 462 l 400 -31 q 356 -129 317 -185 q 278 -241 233 -269 q 188 -296 121 -296 l 121 -296 q 70 -296 26 -283 l 26 -283 l 26 -128 l 102 -128 q 111 -160 124 -172 q 137 -184 161 -184 l 161 -184 q 186 -184 207 -170 q 228 -155 254 -116 q 280 -77 318 0 l 318 0 l 279 0 l 102 509 q 83 563 72 583 q 61 603 47 613 q 33 624 13 628 l 13 628 l 13 673 l 351 673 l 351 628 q 319 622 304 610 q 290 597 290 573 l 290 573 q 290 541 307 488 l 307 488 l 405 192 l 513 452 q 526 484 533 509 q 540 534 540 557 l 540 557 q 540 586 524 605 q 507 623 477 628 l 477 628 l 477 673 l 741 673 l 741 627 q 722 621 710 612 q 698 604 687 589 q 677 575 662 547 q 647 519 621 462 l 621 462 z m 201 935 l 343 935 l 343 786 l 201 786 l 201 935 z m 450 935 l 591 935 l 591 786 l 450 786 l 450 935 z "}}}
